M48
; DRILL file KiCad 10.0.0 date 2026-04-23T01:13:26
; FORMAT={-:-/ absolute / metric / decimal}
; #@! TF.CreationDate,2026-04-23T01:13:26-04:00
; #@! TF.GenerationSoftware,Kicad,Pcbnew,10.0.0
; #@! TF.FileFunction,Plated,1,2,PTH
FMAT,2
METRIC
; #@! TA.AperFunction,Plated,PTH,ViaDrill
T1C0.300
; #@! TA.AperFunction,Plated,PTH,ComponentDrill
T2C0.800
; #@! TA.AperFunction,Plated,PTH,ComponentDrill
T3C1.000
; #@! TA.AperFunction,Plated,PTH,ComponentDrill
T4C1.100
; #@! TA.AperFunction,Plated,PTH,ComponentDrill
T5C1.300
; #@! TA.AperFunction,Plated,PTH,ComponentDrill
T6C3.200
%
G90
G05
T1
X72.639Y-50.465
X72.639Y-66.212
T2
X41.91Y-90.932
X42.158Y-55.285
X42.158Y-62.905
X42.164Y-52.324
X44.698Y-55.285
X44.698Y-62.905
X47.164Y-52.324
X47.238Y-55.285
X47.238Y-62.905
X49.53Y-90.932
X49.778Y-55.285
X49.778Y-62.905
X55.621Y-36.068
X55.621Y-39.029
X55.621Y-46.649
X55.621Y-52.324
X55.621Y-55.285
X55.621Y-62.905
X55.621Y-69.088
X55.621Y-72.049
X55.621Y-79.669
X58.161Y-39.029
X58.161Y-46.649
X58.161Y-55.285
X58.161Y-62.905
X58.161Y-72.049
X58.161Y-79.669
X60.621Y-36.068
X60.621Y-52.324
X60.621Y-69.088
X60.701Y-39.029
X60.701Y-46.649
X60.701Y-55.285
X60.701Y-62.905
X60.701Y-72.049
X60.701Y-79.669
X63.241Y-39.029
X63.241Y-46.649
X63.241Y-55.285
X63.241Y-62.905
X63.241Y-72.049
X63.241Y-79.669
X65.781Y-39.029
X65.781Y-46.649
X65.781Y-55.285
X65.781Y-62.905
X65.781Y-72.049
X65.781Y-79.669
X68.321Y-39.029
X68.321Y-46.649
X68.321Y-55.285
X68.321Y-62.905
X68.321Y-72.049
X68.321Y-79.669
X70.861Y-39.029
X70.861Y-46.649
X70.861Y-55.285
X70.861Y-62.905
X70.861Y-72.049
X70.861Y-79.669
X73.401Y-39.029
X73.401Y-46.649
X73.401Y-55.285
X73.401Y-62.905
X73.401Y-72.049
X73.401Y-79.669
T3
X49.195Y-100.117
X51.735Y-100.117
X54.275Y-100.117
X56.815Y-100.117
X83.715Y-39.212
X83.715Y-41.752
X83.715Y-44.292
X83.715Y-46.832
X83.715Y-49.372
X83.715Y-51.912
X83.715Y-54.453
X83.715Y-56.992
X83.715Y-59.532
X83.715Y-62.072
X83.715Y-64.612
X83.715Y-67.153
X83.715Y-69.692
X83.715Y-72.233
X83.715Y-74.772
X83.715Y-77.312
X83.715Y-79.852
X83.715Y-82.392
X83.715Y-84.932
X83.715Y-87.472
X83.715Y-90.013
X83.715Y-92.552
X83.715Y-95.093
X83.715Y-97.632
T4
X42.47Y-82.078
X42.47Y-86.578
X48.97Y-82.078
X48.97Y-86.578
T5
X43.688Y-43.18
X48.768Y-43.18
T6
X41.148Y-104.14
X84.328Y-30.988
X84.328Y-104.14
M30
