%TF.GenerationSoftware,KiCad,Pcbnew,10.0.0*%
%TF.CreationDate,2026-04-23T01:13:24-04:00*%
%TF.ProjectId,Logic Analyzer MK2,4c6f6769-6320-4416-9e61-6c797a657220,rev?*%
%TF.SameCoordinates,Original*%
%TF.FileFunction,Copper,L2,Bot*%
%TF.FilePolarity,Positive*%
%FSLAX46Y46*%
G04 Gerber Fmt 4.6, Leading zero omitted, Abs format (unit mm)*
G04 Created by KiCad (PCBNEW 10.0.0) date 2026-04-23 01:13:24*
%MOMM*%
%LPD*%
G01*
G04 APERTURE LIST*
G04 Aperture macros list*
%AMRoundRect*
0 Rectangle with rounded corners*
0 $1 Rounding radius*
0 $2 $3 $4 $5 $6 $7 $8 $9 X,Y pos of 4 corners*
0 Add a 4 corners polygon primitive as box body*
4,1,4,$2,$3,$4,$5,$6,$7,$8,$9,$2,$3,0*
0 Add four circle primitives for the rounded corners*
1,1,$1+$1,$2,$3*
1,1,$1+$1,$4,$5*
1,1,$1+$1,$6,$7*
1,1,$1+$1,$8,$9*
0 Add four rect primitives between the rounded corners*
20,1,$1+$1,$2,$3,$4,$5,0*
20,1,$1+$1,$4,$5,$6,$7,0*
20,1,$1+$1,$6,$7,$8,$9,0*
20,1,$1+$1,$8,$9,$2,$3,0*%
G04 Aperture macros list end*
%TA.AperFunction,ComponentPad*%
%ADD10C,5.600000*%
%TD*%
%TA.AperFunction,ComponentPad*%
%ADD11C,2.000000*%
%TD*%
%TA.AperFunction,ComponentPad*%
%ADD12R,1.700000X1.700000*%
%TD*%
%TA.AperFunction,ComponentPad*%
%ADD13C,1.700000*%
%TD*%
%TA.AperFunction,ComponentPad*%
%ADD14RoundRect,0.250000X0.550000X-0.550000X0.550000X0.550000X-0.550000X0.550000X-0.550000X-0.550000X0*%
%TD*%
%TA.AperFunction,ComponentPad*%
%ADD15C,1.600000*%
%TD*%
%TA.AperFunction,ComponentPad*%
%ADD16RoundRect,0.250000X1.050000X1.050000X-1.050000X1.050000X-1.050000X-1.050000X1.050000X-1.050000X0*%
%TD*%
%TA.AperFunction,ComponentPad*%
%ADD17C,2.600000*%
%TD*%
%TA.AperFunction,ViaPad*%
%ADD18C,0.600000*%
%TD*%
%TA.AperFunction,Conductor*%
%ADD19C,0.200000*%
%TD*%
G04 APERTURE END LIST*
D10*
%TO.P,REF\u002A\u002A,1*%
%TO.N,N/C*%
X41148000Y-104140000D03*
%TD*%
%TO.P,REF\u002A\u002A,1*%
%TO.N,N/C*%
X84328000Y-104140000D03*
%TD*%
%TO.P,REF\u002A\u002A,1*%
%TO.N,N/C*%
X84328000Y-30988000D03*
%TD*%
D11*
%TO.P,SW1,1,1_1*%
%TO.N,GND*%
X42470000Y-82078000D03*
X48970000Y-82078000D03*
%TO.P,SW1,2,2_2*%
%TO.N,Net-(U4-~{RESET}{slash}PB5)*%
X42470000Y-86578000D03*
X48970000Y-86578000D03*
%TD*%
D12*
%TO.P,J1,1,Pin_1_1*%
%TO.N,Net-(J1-Pin_1)*%
X83715000Y-97632500D03*
D13*
%TO.P,J1,2,Pin_2_2*%
%TO.N,Net-(J1-Pin_2)*%
X83715000Y-95092500D03*
%TO.P,J1,3,Pin_3_3*%
%TO.N,Net-(J1-Pin_3)*%
X83715000Y-92552500D03*
%TO.P,J1,4,Pin_4_4*%
%TO.N,Net-(J1-Pin_4)*%
X83715000Y-90012500D03*
%TO.P,J1,5,Pin_5_5*%
%TO.N,Net-(J1-Pin_5)*%
X83715000Y-87472500D03*
%TO.P,J1,6,Pin_6_6*%
%TO.N,Net-(J1-Pin_6)*%
X83715000Y-84932500D03*
%TO.P,J1,7,Pin_7_7*%
%TO.N,Net-(J1-Pin_7)*%
X83715000Y-82392500D03*
%TO.P,J1,8,Pin_8_8*%
%TO.N,Net-(J1-Pin_8)*%
X83715000Y-79852500D03*
%TO.P,J1,9,Pin_9_9*%
%TO.N,Net-(J1-Pin_9)*%
X83715000Y-77312500D03*
%TO.P,J1,10,Pin_10_10*%
%TO.N,Net-(J1-Pin_10)*%
X83715000Y-74772500D03*
%TO.P,J1,11,Pin_11_11*%
%TO.N,Net-(J1-Pin_11)*%
X83715000Y-72232500D03*
%TO.P,J1,12,Pin_12_12*%
%TO.N,Net-(J1-Pin_12)*%
X83715000Y-69692500D03*
%TO.P,J1,13,Pin_13_13*%
%TO.N,Net-(J1-Pin_13)*%
X83715000Y-67152500D03*
%TO.P,J1,14,Pin_14_14*%
%TO.N,Net-(J1-Pin_14)*%
X83715000Y-64612500D03*
%TO.P,J1,15,Pin_15_15*%
%TO.N,Net-(J1-Pin_15)*%
X83715000Y-62072500D03*
%TO.P,J1,16,Pin_16_16*%
%TO.N,Net-(J1-Pin_16)*%
X83715000Y-59532500D03*
%TO.P,J1,17,Pin_17_17*%
%TO.N,Net-(J1-Pin_17)*%
X83715000Y-56992500D03*
%TO.P,J1,18,Pin_18_18*%
%TO.N,Net-(J1-Pin_18)*%
X83715000Y-54452500D03*
%TO.P,J1,19,Pin_19_19*%
%TO.N,Net-(J1-Pin_19)*%
X83715000Y-51912500D03*
%TO.P,J1,20,Pin_20_20*%
%TO.N,Net-(J1-Pin_20)*%
X83715000Y-49372500D03*
%TO.P,J1,21,Pin_21_21*%
%TO.N,Net-(J1-Pin_21)*%
X83715000Y-46832500D03*
%TO.P,J1,22,Pin_22_22*%
%TO.N,Net-(J1-Pin_22)*%
X83715000Y-44292500D03*
%TO.P,J1,23,Pin_23_23*%
%TO.N,Net-(J1-Pin_23)*%
X83715000Y-41752500D03*
%TO.P,J1,24,Pin_24_24*%
%TO.N,Net-(J1-Pin_24)*%
X83715000Y-39212500D03*
%TD*%
D14*
%TO.P,U2,1,~{PL}_1*%
%TO.N,Net-(U1-~{PL})*%
X55621000Y-62905500D03*
D15*
%TO.P,U2,2,CP_2*%
%TO.N,Net-(U1-CP)*%
X58161000Y-62905500D03*
%TO.P,U2,3,D4_3*%
%TO.N,Net-(J1-Pin_13)*%
X60701000Y-62905500D03*
%TO.P,U2,4,D5_4*%
%TO.N,Net-(J1-Pin_14)*%
X63241000Y-62905500D03*
%TO.P,U2,5,D6_5*%
%TO.N,Net-(J1-Pin_15)*%
X65781000Y-62905500D03*
%TO.P,U2,6,D7_6*%
%TO.N,Net-(J1-Pin_16)*%
X68321000Y-62905500D03*
%TO.P,U2,7,~{Q7}_7*%
%TO.N,unconnected-(U2-~{Q7}-Pad7)*%
X70861000Y-62905500D03*
%TO.P,U2,8,GND_8*%
%TO.N,GND*%
X73401000Y-62905500D03*
%TO.P,U2,9,Q7_9*%
%TO.N,Net-(U2-Q7)*%
X73401000Y-55285500D03*
%TO.P,U2,10,DS_10*%
%TO.N,Net-(U1-Q7)*%
X70861000Y-55285500D03*
%TO.P,U2,11,D0_11*%
%TO.N,Net-(J1-Pin_9)*%
X68321000Y-55285500D03*
%TO.P,U2,12,D1_12*%
%TO.N,Net-(J1-Pin_10)*%
X65781000Y-55285500D03*
%TO.P,U2,13,D2_13*%
%TO.N,Net-(J1-Pin_11)*%
X63241000Y-55285500D03*
%TO.P,U2,14,D3_14*%
%TO.N,Net-(J1-Pin_12)*%
X60701000Y-55285500D03*
%TO.P,U2,15,~{CE}_15*%
%TO.N,GND*%
X58161000Y-55285500D03*
%TO.P,U2,16,VCC_16*%
%TO.N,+5V*%
X55621000Y-55285500D03*
%TD*%
D14*
%TO.P,U1,1,~{PL}_1*%
%TO.N,Net-(U1-~{PL})*%
X55621000Y-79669500D03*
D15*
%TO.P,U1,2,CP_2*%
%TO.N,Net-(U1-CP)*%
X58161000Y-79669500D03*
%TO.P,U1,3,D4_3*%
%TO.N,Net-(J1-Pin_5)*%
X60701000Y-79669500D03*
%TO.P,U1,4,D5_4*%
%TO.N,Net-(J1-Pin_6)*%
X63241000Y-79669500D03*
%TO.P,U1,5,D6_5*%
%TO.N,Net-(J1-Pin_7)*%
X65781000Y-79669500D03*
%TO.P,U1,6,D7_6*%
%TO.N,Net-(J1-Pin_8)*%
X68321000Y-79669500D03*
%TO.P,U1,7,~{Q7}_7*%
%TO.N,unconnected-(U1-~{Q7}-Pad7)*%
X70861000Y-79669500D03*
%TO.P,U1,8,GND_8*%
%TO.N,GND*%
X73401000Y-79669500D03*
%TO.P,U1,9,Q7_9*%
%TO.N,Net-(U1-Q7)*%
X73401000Y-72049500D03*
%TO.P,U1,10,DS_10*%
%TO.N,unconnected-(U1-DS-Pad10)*%
X70861000Y-72049500D03*
%TO.P,U1,11,D0_11*%
%TO.N,Net-(J1-Pin_1)*%
X68321000Y-72049500D03*
%TO.P,U1,12,D1_12*%
%TO.N,Net-(J1-Pin_2)*%
X65781000Y-72049500D03*
%TO.P,U1,13,D2_13*%
%TO.N,Net-(J1-Pin_3)*%
X63241000Y-72049500D03*
%TO.P,U1,14,D3_14*%
%TO.N,Net-(J1-Pin_4)*%
X60701000Y-72049500D03*
%TO.P,U1,15,~{CE}_15*%
%TO.N,GND*%
X58161000Y-72049500D03*
%TO.P,U1,16,VCC_16*%
%TO.N,+5V*%
X55621000Y-72049500D03*
%TD*%
%TO.P,R1,1*%
%TO.N,Net-(U4-~{RESET}{slash}PB5)*%
X41910000Y-90932000D03*
%TO.P,R1,2*%
%TO.N,+5V*%
X49530000Y-90932000D03*
%TD*%
%TO.P,C3,1*%
%TO.N,+5V*%
X55621000Y-69088000D03*
%TO.P,C3,2*%
%TO.N,GND*%
X60621000Y-69088000D03*
%TD*%
%TO.P,C2,1*%
%TO.N,+5V*%
X55621000Y-52324000D03*
%TO.P,C2,2*%
%TO.N,GND*%
X60621000Y-52324000D03*
%TD*%
D12*
%TO.P,J2,1,Pin_1_1*%
%TO.N,GND*%
X49195000Y-100117500D03*
D13*
%TO.P,J2,2,Pin_2_2*%
%TO.N,+5V*%
X51735000Y-100117500D03*
%TO.P,J2,3,Pin_3_3*%
%TO.N,Net-(J2-Pin_3)*%
X54275000Y-100117500D03*
%TO.P,J2,4,Pin_4_4*%
%TO.N,Net-(J2-Pin_4)*%
X56815000Y-100117500D03*
%TD*%
D14*
%TO.P,U3,1,~{PL}_1*%
%TO.N,Net-(U1-~{PL})*%
X55621000Y-46649500D03*
D15*
%TO.P,U3,2,CP_2*%
%TO.N,Net-(U1-CP)*%
X58161000Y-46649500D03*
%TO.P,U3,3,D4_3*%
%TO.N,Net-(J1-Pin_21)*%
X60701000Y-46649500D03*
%TO.P,U3,4,D5_4*%
%TO.N,Net-(J1-Pin_22)*%
X63241000Y-46649500D03*
%TO.P,U3,5,D6_5*%
%TO.N,Net-(J1-Pin_23)*%
X65781000Y-46649500D03*
%TO.P,U3,6,D7_6*%
%TO.N,Net-(J1-Pin_24)*%
X68321000Y-46649500D03*
%TO.P,U3,7,~{Q7}_7*%
%TO.N,unconnected-(U3-~{Q7}-Pad7)*%
X70861000Y-46649500D03*
%TO.P,U3,8,GND_8*%
%TO.N,GND*%
X73401000Y-46649500D03*
%TO.P,U3,9,Q7_9*%
%TO.N,Net-(U3-Q7)*%
X73401000Y-39029500D03*
%TO.P,U3,10,DS_10*%
%TO.N,Net-(U2-Q7)*%
X70861000Y-39029500D03*
%TO.P,U3,11,D0_11*%
%TO.N,Net-(J1-Pin_17)*%
X68321000Y-39029500D03*
%TO.P,U3,12,D1_12*%
%TO.N,Net-(J1-Pin_18)*%
X65781000Y-39029500D03*
%TO.P,U3,13,D2_13*%
%TO.N,Net-(J1-Pin_19)*%
X63241000Y-39029500D03*
%TO.P,U3,14,D3_14*%
%TO.N,Net-(J1-Pin_20)*%
X60701000Y-39029500D03*
%TO.P,U3,15,~{CE}_15*%
%TO.N,GND*%
X58161000Y-39029500D03*
%TO.P,U3,16,VCC_16*%
%TO.N,+5V*%
X55621000Y-39029500D03*
%TD*%
D16*
%TO.P,J3,1,Pin_1_1*%
%TO.N,GND*%
X48768000Y-43180000D03*
D17*
%TO.P,J3,2,Pin_2_2*%
%TO.N,+5V*%
X43688000Y-43180000D03*
%TD*%
D14*
%TO.P,U4,1,~{RESET}/PB5_1*%
%TO.N,Net-(U4-~{RESET}{slash}PB5)*%
X42158000Y-62905500D03*
D15*
%TO.P,U4,2,XTAL1/PB3_2*%
%TO.N,Net-(U1-CP)*%
X44698000Y-62905500D03*
%TO.P,U4,3,XTAL2/PB4_3*%
%TO.N,Net-(U1-~{PL})*%
X47238000Y-62905500D03*
%TO.P,U4,4,GND_4*%
%TO.N,GND*%
X49778000Y-62905500D03*
%TO.P,U4,5,AREF/PB0_5*%
%TO.N,Net-(J2-Pin_3)*%
X49778000Y-55285500D03*
%TO.P,U4,6,PB1_6*%
%TO.N,Net-(U3-Q7)*%
X47238000Y-55285500D03*
%TO.P,U4,7,PB2_7*%
%TO.N,Net-(J2-Pin_4)*%
X44698000Y-55285500D03*
%TO.P,U4,8,VCC_8*%
%TO.N,+5V*%
X42158000Y-55285500D03*
%TD*%
%TO.P,C1,1*%
%TO.N,+5V*%
X55621000Y-36068000D03*
%TO.P,C1,2*%
%TO.N,GND*%
X60621000Y-36068000D03*
%TD*%
%TO.P,C4,1*%
%TO.N,+5V*%
X42164000Y-52324000D03*
%TO.P,C4,2*%
%TO.N,GND*%
X47164000Y-52324000D03*
%TD*%
D18*
%TO.N,Net-(U2-Q7)*%
X72639000Y-50464500D03*
%TO.N,Net-(U1-Q7)*%
X72639000Y-66212500D03*
%TD*%
%TO.N,GND*%
D19*
X59436000Y-46736000D02*
X59436000Y-45212000D01*
X59436000Y-47752000D02*
X59436000Y-46736000D01*
%TO.N,Net-(U4-~{RESET}{slash}PB5)*%
X42158000Y-70291500D02*
X44196000Y-72329500D01*
X42470000Y-86578000D02*
X44196000Y-84852000D01*
X42158000Y-62905500D02*
X42158000Y-70291500D01*
X44196000Y-84852000D02*
X44196000Y-72329500D01*
X48970000Y-86578000D02*
X42470000Y-86578000D01*
%TO.N,Net-(J1-Pin_1)*%
X68321000Y-72049500D02*
X70094000Y-70276500D01*
X70094000Y-70276500D02*
X74163000Y-70276500D01*
X75179000Y-71292500D02*
X75179000Y-89096500D01*
X74163000Y-70276500D02*
X75179000Y-71292500D01*
X75179000Y-89096500D02*
X83715000Y-97632500D01*
%TO.N,Net-(J1-Pin_2)*%
X67954000Y-69876500D02*
X74328686Y-69876500D01*
X75687000Y-87064500D02*
X83715000Y-95092500D01*
X74328686Y-69876500D02*
X75687000Y-71234814D01*
X65781000Y-72049500D02*
X67954000Y-69876500D01*
X75687000Y-71234814D02*
X75687000Y-87064500D01*
%TO.N,Net-(J1-Pin_3)*%
X76087000Y-71069129D02*
X76087000Y-84924500D01*
X63241000Y-72049500D02*
X65814000Y-69476500D01*
X74494372Y-69476500D02*
X76087000Y-71069129D01*
X76087000Y-84924500D02*
X83715000Y-92552500D01*
X65814000Y-69476500D02*
X74494372Y-69476500D01*
%TO.N,Net-(J1-Pin_4)*%
X63674000Y-69076500D02*
X74660058Y-69076500D01*
X76487000Y-70903444D02*
X76487000Y-82784500D01*
X74660058Y-69076500D02*
X76487000Y-70903444D01*
X76487000Y-82784500D02*
X83715000Y-90012500D01*
X60701000Y-72049500D02*
X63674000Y-69076500D01*
%TO.N,Net-(J1-Pin_9)*%
X68321000Y-55285500D02*
X69586000Y-54020500D01*
X83715000Y-77312500D02*
X79751000Y-73348500D01*
X69586000Y-54020500D02*
X75687000Y-54020500D01*
X79751000Y-58084500D02*
X75687000Y-54020500D01*
X79751000Y-73348500D02*
X79751000Y-58084500D01*
%TO.N,Net-(J1-Pin_10)*%
X67446000Y-53620500D02*
X75852686Y-53620500D01*
X75852686Y-53620500D02*
X80259000Y-58026814D01*
X80259000Y-58026814D02*
X80259000Y-71316500D01*
X65781000Y-55285500D02*
X67446000Y-53620500D01*
X80259000Y-71316500D02*
X83715000Y-74772500D01*
%TO.N,Net-(J1-Pin_11)*%
X80767000Y-69284500D02*
X83715000Y-72232500D01*
X65306000Y-53220500D02*
X76018372Y-53220500D01*
X80767000Y-57969128D02*
X80767000Y-69284500D01*
X76018372Y-53220500D02*
X80767000Y-57969128D01*
X63241000Y-55285500D02*
X65306000Y-53220500D01*
%TO.N,Net-(J1-Pin_12)*%
X81275000Y-57911442D02*
X81275000Y-67252500D01*
X60701000Y-55285500D02*
X63166000Y-52820500D01*
X63166000Y-52820500D02*
X76184058Y-52820500D01*
X76184058Y-52820500D02*
X81275000Y-57911442D01*
X81275000Y-67252500D02*
X83715000Y-69692500D01*
%TO.N,Net-(J1-Pin_17)*%
X76519000Y-49796500D02*
X83715000Y-56992500D01*
X76519000Y-40120500D02*
X76519000Y-49796500D01*
X69586000Y-37764500D02*
X74163000Y-37764500D01*
X68321000Y-39029500D02*
X69586000Y-37764500D01*
X74163000Y-37764500D02*
X76519000Y-40120500D01*
%TO.N,Net-(J1-Pin_18)*%
X67446000Y-37364500D02*
X74328686Y-37364500D01*
X76919000Y-39954814D02*
X76919000Y-47656500D01*
X76919000Y-47656500D02*
X83715000Y-54452500D01*
X65781000Y-39029500D02*
X67446000Y-37364500D01*
X74328686Y-37364500D02*
X76919000Y-39954814D01*
%TO.N,Net-(J1-Pin_19)*%
X77319000Y-39789128D02*
X77319000Y-45516500D01*
X74494372Y-36964500D02*
X77319000Y-39789128D01*
X63241000Y-39029500D02*
X65306000Y-36964500D01*
X65306000Y-36964500D02*
X74494372Y-36964500D01*
X77319000Y-45516500D02*
X83715000Y-51912500D01*
%TO.N,Net-(J1-Pin_20)*%
X74660058Y-36564500D02*
X63166000Y-36564500D01*
X77719000Y-39623442D02*
X74660058Y-36564500D01*
X77719000Y-43376500D02*
X77719000Y-39623442D01*
X83715000Y-49372500D02*
X77719000Y-43376500D01*
X63166000Y-36564500D02*
X60701000Y-39029500D01*
%TO.N,Net-(U1-~{PL})*%
X55621000Y-79669500D02*
X54521000Y-78569500D01*
X54521000Y-64005500D02*
X55621000Y-62905500D01*
X47238000Y-62905500D02*
X47238000Y-71286500D01*
X54521000Y-47749500D02*
X55621000Y-46649500D01*
X54521000Y-78569500D02*
X54521000Y-64005500D01*
X54521000Y-61805500D02*
X54521000Y-47749500D01*
X47238000Y-71286500D02*
X55621000Y-79669500D01*
X55621000Y-62905500D02*
X54521000Y-61805500D01*
%TO.N,Net-(U1-CP)*%
X56721000Y-78229500D02*
X56721000Y-64345500D01*
X57061000Y-80769500D02*
X58161000Y-79669500D01*
X58161000Y-79669500D02*
X56721000Y-78229500D01*
X56721000Y-64345500D02*
X58161000Y-62905500D01*
X58161000Y-62905500D02*
X56721000Y-61465500D01*
X54836256Y-80769500D02*
X57061000Y-80769500D01*
X44698000Y-62905500D02*
X44698000Y-70631244D01*
X44698000Y-70631244D02*
X54836256Y-80769500D01*
X56721000Y-61465500D02*
X56721000Y-48089500D01*
X56721000Y-48089500D02*
X58161000Y-46649500D01*
%TO.N,Net-(U2-Q7)*%
X72639000Y-50464500D02*
X72131000Y-49956500D01*
X72131000Y-40299500D02*
X70861000Y-39029500D01*
X72131000Y-49956500D02*
X72131000Y-40299500D01*
%TO.N,Net-(U1-Q7)*%
X72131000Y-65704500D02*
X72639000Y-66212500D01*
X72131000Y-56555500D02*
X72131000Y-65704500D01*
X70861000Y-55285500D02*
X72131000Y-56555500D01*
%TD*%
%TA.AperFunction,Conductor*%
%TO.N,GND*%
G36*
X75440705Y-54633280D02*
G01*
X75474584Y-54657319D01*
X79114181Y-58296916D01*
X79143542Y-58343642D01*
X79150500Y-58384597D01*
X79150500Y-73289350D01*
X79150499Y-73289356D01*
X79150499Y-73407644D01*
X79167065Y-73490927D01*
X79172534Y-73518422D01*
X79173576Y-73523661D01*
X79173577Y-73523664D01*
X79218840Y-73632939D01*
X79218841Y-73632941D01*
X79284560Y-73731296D01*
X79284563Y-73731300D01*
X79372522Y-73819259D01*
X79372544Y-73819279D01*
X82382233Y-76828968D01*
X82411594Y-76875694D01*
X82417772Y-76930533D01*
X82414327Y-76948742D01*
X82387607Y-77048460D01*
X82364500Y-77223983D01*
X82364500Y-77401016D01*
X82387606Y-77576531D01*
X82433429Y-77747543D01*
X82501169Y-77911084D01*
X82501174Y-77911093D01*
X82589691Y-78064408D01*
X82589694Y-78064412D01*
X82589698Y-78064418D01*
X82697462Y-78204857D01*
X82697470Y-78204866D01*
X82822634Y-78330030D01*
X82822642Y-78330037D01*
X82963081Y-78437801D01*
X82963085Y-78437803D01*
X82963092Y-78437809D01*
X83026028Y-78474145D01*
X83027704Y-78475113D01*
X83068157Y-78512649D01*
X83088318Y-78564020D01*
X83084194Y-78619051D01*
X83056601Y-78666842D01*
X83027704Y-78689887D01*
X82963093Y-78727190D01*
X82963081Y-78727198D01*
X82822642Y-78834962D01*
X82697462Y-78960142D01*
X82589698Y-79100581D01*
X82589691Y-79100592D01*
X82501174Y-79253906D01*
X82501169Y-79253915D01*
X82433429Y-79417456D01*
X82387606Y-79588468D01*
X82364500Y-79763983D01*
X82364500Y-79941016D01*
X82383906Y-80088429D01*
X82387607Y-80116535D01*
X82408947Y-80196178D01*
X82433429Y-80287543D01*
X82501169Y-80451084D01*
X82501174Y-80451093D01*
X82589691Y-80604408D01*
X82589694Y-80604412D01*
X82589698Y-80604418D01*
X82697462Y-80744857D01*
X82697470Y-80744866D01*
X82822634Y-80870030D01*
X82822642Y-80870037D01*
X82822643Y-80870038D01*
X82857056Y-80896444D01*
X82963081Y-80977801D01*
X82963085Y-80977803D01*
X82963092Y-80977809D01*
X83026028Y-81014145D01*
X83027704Y-81015113D01*
X83068157Y-81052649D01*
X83088318Y-81104020D01*
X83084194Y-81159051D01*
X83056601Y-81206842D01*
X83027704Y-81229887D01*
X82963093Y-81267190D01*
X82963081Y-81267198D01*
X82822642Y-81374962D01*
X82697462Y-81500142D01*
X82589698Y-81640581D01*
X82589691Y-81640592D01*
X82501174Y-81793906D01*
X82501169Y-81793915D01*
X82433429Y-81957456D01*
X82387606Y-82128468D01*
X82364500Y-82303983D01*
X82364500Y-82481016D01*
X82387606Y-82656531D01*
X82433429Y-82827543D01*
X82501169Y-82991084D01*
X82501174Y-82991093D01*
X82589691Y-83144408D01*
X82589694Y-83144412D01*
X82589698Y-83144418D01*
X82697462Y-83284857D01*
X82697470Y-83284866D01*
X82822634Y-83410030D01*
X82822642Y-83410037D01*
X82963081Y-83517801D01*
X82963085Y-83517803D01*
X82963092Y-83517809D01*
X82969740Y-83521647D01*
X83027704Y-83555113D01*
X83068157Y-83592649D01*
X83088318Y-83644020D01*
X83084194Y-83699051D01*
X83056601Y-83746842D01*
X83027704Y-83769887D01*
X82963093Y-83807190D01*
X82963081Y-83807198D01*
X82822642Y-83914962D01*
X82697462Y-84040142D01*
X82589698Y-84180581D01*
X82589691Y-84180592D01*
X82501174Y-84333906D01*
X82501169Y-84333915D01*
X82433429Y-84497456D01*
X82387606Y-84668468D01*
X82364500Y-84843983D01*
X82364500Y-85021016D01*
X82386685Y-85189536D01*
X82387607Y-85196535D01*
X82429350Y-85352322D01*
X82433429Y-85367543D01*
X82501169Y-85531084D01*
X82501174Y-85531093D01*
X82589691Y-85684408D01*
X82589694Y-85684412D01*
X82589698Y-85684418D01*
X82697462Y-85824857D01*
X82697470Y-85824866D01*
X82822634Y-85950030D01*
X82822642Y-85950037D01*
X82822643Y-85950038D01*
X82854177Y-85974235D01*
X82963081Y-86057801D01*
X82963085Y-86057803D01*
X82963092Y-86057809D01*
X83026028Y-86094145D01*
X83027704Y-86095113D01*
X83068157Y-86132649D01*
X83088318Y-86184020D01*
X83084194Y-86239051D01*
X83056601Y-86286842D01*
X83027704Y-86309887D01*
X82963093Y-86347190D01*
X82963081Y-86347198D01*
X82822642Y-86454962D01*
X82697462Y-86580142D01*
X82589698Y-86720581D01*
X82589691Y-86720592D01*
X82501174Y-86873906D01*
X82501169Y-86873915D01*
X82433429Y-87037456D01*
X82387606Y-87208468D01*
X82364500Y-87383983D01*
X82364500Y-87513403D01*
X82352220Y-87567205D01*
X82317813Y-87610350D01*
X82268093Y-87634294D01*
X82212907Y-87634294D01*
X82163187Y-87610350D01*
X82152819Y-87601084D01*
X77123819Y-82572084D01*
X77094458Y-82525358D01*
X77087500Y-82484403D01*
X77087500Y-70968722D01*
X77087501Y-70968701D01*
X77087501Y-70844302D01*
X77082232Y-70817813D01*
X77064425Y-70728285D01*
X77042504Y-70675364D01*
X77019160Y-70619005D01*
X77019159Y-70619003D01*
X76988692Y-70573407D01*
X76964347Y-70536972D01*
X76953439Y-70520647D01*
X76869797Y-70437005D01*
X76869794Y-70437003D01*
X76654618Y-70221827D01*
X75042858Y-68610063D01*
X75042854Y-68610060D01*
X74944499Y-68544341D01*
X74944497Y-68544340D01*
X74835222Y-68499077D01*
X74835210Y-68499074D01*
X74719205Y-68475999D01*
X74719202Y-68475999D01*
X74600915Y-68475999D01*
X74594801Y-68475999D01*
X74594781Y-68476000D01*
X63733149Y-68476000D01*
X63733144Y-68475999D01*
X63614856Y-68475999D01*
X63518088Y-68495247D01*
X63511494Y-68496558D01*
X63511490Y-68496559D01*
X63498838Y-68499076D01*
X63498837Y-68499076D01*
X63389560Y-68544340D01*
X63389558Y-68544341D01*
X63291204Y-68610059D01*
X63249383Y-68651881D01*
X63207561Y-68693703D01*
X63207558Y-68693706D01*
X61143705Y-70757558D01*
X61096979Y-70786919D01*
X61042140Y-70793097D01*
X61023931Y-70789652D01*
X60955269Y-70771254D01*
X60955262Y-70771252D01*
X60955259Y-70771252D01*
X60907839Y-70765009D01*
X60786246Y-70749000D01*
X60786239Y-70749000D01*
X60615761Y-70749000D01*
X60615753Y-70749000D01*
X60454878Y-70770180D01*
X60446741Y-70771252D01*
X60442789Y-70772311D01*
X60282075Y-70815373D01*
X60212238Y-70844301D01*
X60124570Y-70880615D01*
X60124567Y-70880616D01*
X60124566Y-70880617D01*
X60124559Y-70880620D01*
X59976931Y-70965853D01*
X59841682Y-71069633D01*
X59841675Y-71069639D01*
X59721139Y-71190175D01*
X59721133Y-71190182D01*
X59617353Y-71325431D01*
X59538098Y-71462705D01*
X59500562Y-71503159D01*
X59449192Y-71523320D01*
X59394161Y-71519196D01*
X59346369Y-71491603D01*
X59323324Y-71462705D01*
X59244229Y-71325708D01*
X59241673Y-71322379D01*
X58559830Y-72004221D01*
X58545628Y-71932824D01*
X58515475Y-71860029D01*
X58471700Y-71794515D01*
X58415985Y-71738800D01*
X58350471Y-71695025D01*
X58277676Y-71664872D01*
X58206276Y-71650669D01*
X58888120Y-70968825D01*
X58884791Y-70966270D01*
X58884784Y-70966266D01*
X58737216Y-70881067D01*
X58737205Y-70881062D01*
X58579770Y-70815850D01*
X58415160Y-70771744D01*
X58246213Y-70749500D01*
X58075786Y-70749500D01*
X57906839Y-70771744D01*
X57742229Y-70815850D01*
X57584794Y-70881062D01*
X57584783Y-70881067D01*
X57507500Y-70925687D01*
X57454766Y-70941953D01*
X57400197Y-70933728D01*
X57354601Y-70902641D01*
X57327009Y-70854849D01*
X57321500Y-70818300D01*
X57321500Y-69002786D01*
X59321000Y-69002786D01*
X59321000Y-69173213D01*
X59343244Y-69342160D01*
X59387350Y-69506770D01*
X59452562Y-69664205D01*
X59452567Y-69664216D01*
X59537766Y-69811784D01*
X59537770Y-69811791D01*
X59540325Y-69815120D01*
X60222169Y-69133276D01*
X60236372Y-69204676D01*
X60266525Y-69277471D01*
X60310300Y-69342985D01*
X60366015Y-69398700D01*
X60431529Y-69442475D01*
X60504324Y-69472628D01*
X60575722Y-69486830D01*
X59893879Y-70168673D01*
X59897208Y-70171229D01*
X60044783Y-70256432D01*
X60044794Y-70256437D01*
X60202229Y-70321649D01*
X60366839Y-70365755D01*
X60535786Y-70387999D01*
X60535801Y-70388000D01*
X60706199Y-70388000D01*
X60706213Y-70387999D01*
X60875160Y-70365755D01*
X61039770Y-70321649D01*
X61197205Y-70256437D01*
X61197216Y-70256432D01*
X61344788Y-70171231D01*
X61344788Y-70171230D01*
X61348119Y-70168673D01*
X61348119Y-70168672D01*
X60666277Y-69486830D01*
X60737676Y-69472628D01*
X60810471Y-69442475D01*
X60875985Y-69398700D01*
X60931700Y-69342985D01*
X60975475Y-69277471D01*
X61005628Y-69204676D01*
X61019830Y-69133277D01*
X61701672Y-69815119D01*
X61701673Y-69815119D01*
X61704230Y-69811788D01*
X61704231Y-69811788D01*
X61789432Y-69664216D01*
X61789437Y-69664205D01*
X61854649Y-69506770D01*
X61898755Y-69342160D01*
X61920999Y-69173213D01*
X61921000Y-69173199D01*
X61921000Y-69002800D01*
X61920999Y-69002786D01*
X61898755Y-68833839D01*
X61854649Y-68669229D01*
X61789437Y-68511794D01*
X61789432Y-68511783D01*
X61704229Y-68364208D01*
X61701673Y-68360879D01*
X61019830Y-69042721D01*
X61005628Y-68971324D01*
X60975475Y-68898529D01*
X60931700Y-68833015D01*
X60875985Y-68777300D01*
X60810471Y-68733525D01*
X60737676Y-68703372D01*
X60666275Y-68689169D01*
X61348120Y-68007325D01*
X61344791Y-68004770D01*
X61344784Y-68004766D01*
X61197216Y-67919567D01*
X61197205Y-67919562D01*
X61039770Y-67854350D01*
X60875160Y-67810244D01*
X60706213Y-67788000D01*
X60535786Y-67788000D01*
X60366839Y-67810244D01*
X60202229Y-67854350D01*
X60044794Y-67919562D01*
X60044783Y-67919567D01*
X59897210Y-68004769D01*
X59893878Y-68007325D01*
X60575722Y-68689169D01*
X60504324Y-68703372D01*
X60431529Y-68733525D01*
X60366015Y-68777300D01*
X60310300Y-68833015D01*
X60266525Y-68898529D01*
X60236372Y-68971324D01*
X60222169Y-69042722D01*
X59540325Y-68360878D01*
X59537769Y-68364210D01*
X59452567Y-68511783D01*
X59452562Y-68511794D01*
X59387350Y-68669229D01*
X59343244Y-68833839D01*
X59321000Y-69002786D01*
X57321500Y-69002786D01*
X57321500Y-64645596D01*
X57333780Y-64591794D01*
X57357816Y-64557918D01*
X57718295Y-64197438D01*
X57765019Y-64168080D01*
X57819857Y-64161901D01*
X57838053Y-64165343D01*
X57906741Y-64183748D01*
X58067623Y-64204928D01*
X58071955Y-64205499D01*
X58075761Y-64206000D01*
X58075768Y-64206000D01*
X58246232Y-64206000D01*
X58246239Y-64206000D01*
X58415259Y-64183748D01*
X58579929Y-64139625D01*
X58737430Y-64074385D01*
X58885069Y-63989146D01*
X59020319Y-63885365D01*
X59140865Y-63764819D01*
X59244646Y-63629569D01*
X59247316Y-63624945D01*
X59323613Y-63492794D01*
X59361148Y-63452340D01*
X59412518Y-63432178D01*
X59467549Y-63436302D01*
X59515341Y-63463894D01*
X59538387Y-63492794D01*
X59617350Y-63629564D01*
X59617351Y-63629566D01*
X59721133Y-63764817D01*
X59721139Y-63764824D01*
X59841675Y-63885360D01*
X59841682Y-63885366D01*
X59976931Y-63989146D01*
X60124559Y-64074379D01*
X60124561Y-64074380D01*
X60124570Y-64074385D01*
X60282071Y-64139625D01*
X60446741Y-64183748D01*
X60607623Y-64204928D01*
X60611955Y-64205499D01*
X60615761Y-64206000D01*
X60615768Y-64206000D01*
X60786232Y-64206000D01*
X60786239Y-64206000D01*
X60955259Y-64183748D01*
X61119929Y-64139625D01*
X61277430Y-64074385D01*
X61425069Y-63989146D01*
X61560319Y-63885365D01*
X61680865Y-63764819D01*
X61784646Y-63629569D01*
X61787316Y-63624945D01*
X61863613Y-63492794D01*
X61901148Y-63452340D01*
X61952518Y-63432178D01*
X62007549Y-63436302D01*
X62055341Y-63463894D01*
X62078387Y-63492794D01*
X62157350Y-63629564D01*
X62157351Y-63629566D01*
X62261133Y-63764817D01*
X62261139Y-63764824D01*
X62381675Y-63885360D01*
X62381682Y-63885366D01*
X62516931Y-63989146D01*
X62664559Y-64074379D01*
X62664561Y-64074380D01*
X62664570Y-64074385D01*
X62822071Y-64139625D01*
X62986741Y-64183748D01*
X63147623Y-64204928D01*
X63151955Y-64205499D01*
X63155761Y-64206000D01*
X63155768Y-64206000D01*
X63326232Y-64206000D01*
X63326239Y-64206000D01*
X63495259Y-64183748D01*
X63659929Y-64139625D01*
X63817430Y-64074385D01*
X63965069Y-63989146D01*
X64100319Y-63885365D01*
X64220865Y-63764819D01*
X64324646Y-63629569D01*
X64327316Y-63624945D01*
X64403613Y-63492794D01*
X64441148Y-63452340D01*
X64492518Y-63432178D01*
X64547549Y-63436302D01*
X64595341Y-63463894D01*
X64618387Y-63492794D01*
X64697350Y-63629564D01*
X64697351Y-63629566D01*
X64801133Y-63764817D01*
X64801139Y-63764824D01*
X64921675Y-63885360D01*
X64921682Y-63885366D01*
X65056931Y-63989146D01*
X65204559Y-64074379D01*
X65204561Y-64074380D01*
X65204570Y-64074385D01*
X65362071Y-64139625D01*
X65526741Y-64183748D01*
X65687623Y-64204928D01*
X65691955Y-64205499D01*
X65695761Y-64206000D01*
X65695768Y-64206000D01*
X65866232Y-64206000D01*
X65866239Y-64206000D01*
X66035259Y-64183748D01*
X66199929Y-64139625D01*
X66357430Y-64074385D01*
X66505069Y-63989146D01*
X66640319Y-63885365D01*
X66760865Y-63764819D01*
X66864646Y-63629569D01*
X66867316Y-63624945D01*
X66943613Y-63492794D01*
X66981148Y-63452340D01*
X67032518Y-63432178D01*
X67087549Y-63436302D01*
X67135341Y-63463894D01*
X67158387Y-63492794D01*
X67237350Y-63629564D01*
X67237351Y-63629566D01*
X67341133Y-63764817D01*
X67341139Y-63764824D01*
X67461675Y-63885360D01*
X67461682Y-63885366D01*
X67596931Y-63989146D01*
X67744559Y-64074379D01*
X67744561Y-64074380D01*
X67744570Y-64074385D01*
X67902071Y-64139625D01*
X68066741Y-64183748D01*
X68227623Y-64204928D01*
X68231955Y-64205499D01*
X68235761Y-64206000D01*
X68235768Y-64206000D01*
X68406232Y-64206000D01*
X68406239Y-64206000D01*
X68575259Y-64183748D01*
X68739929Y-64139625D01*
X68897430Y-64074385D01*
X69045069Y-63989146D01*
X69180319Y-63885365D01*
X69300865Y-63764819D01*
X69404646Y-63629569D01*
X69407316Y-63624945D01*
X69483613Y-63492794D01*
X69521148Y-63452340D01*
X69572518Y-63432178D01*
X69627549Y-63436302D01*
X69675341Y-63463894D01*
X69698387Y-63492794D01*
X69777350Y-63629564D01*
X69777351Y-63629566D01*
X69881133Y-63764817D01*
X69881139Y-63764824D01*
X70001675Y-63885360D01*
X70001682Y-63885366D01*
X70136931Y-63989146D01*
X70284559Y-64074379D01*
X70284561Y-64074380D01*
X70284570Y-64074385D01*
X70442071Y-64139625D01*
X70606741Y-64183748D01*
X70767623Y-64204928D01*
X70771955Y-64205499D01*
X70775761Y-64206000D01*
X70775768Y-64206000D01*
X70946232Y-64206000D01*
X70946239Y-64206000D01*
X71115259Y-64183748D01*
X71279929Y-64139625D01*
X71359050Y-64106851D01*
X71413452Y-64097608D01*
X71466480Y-64112885D01*
X71507629Y-64149657D01*
X71528748Y-64200641D01*
X71530500Y-64221413D01*
X71530500Y-65645350D01*
X71530499Y-65645356D01*
X71530499Y-65763644D01*
X71543639Y-65829703D01*
X71545138Y-65837239D01*
X71553576Y-65879660D01*
X71553577Y-65879664D01*
X71598840Y-65988939D01*
X71598841Y-65988941D01*
X71664560Y-66087296D01*
X71664563Y-66087300D01*
X71752522Y-66175259D01*
X71752544Y-66175279D01*
X71807326Y-66230061D01*
X71836687Y-66276787D01*
X71842117Y-66298343D01*
X71858211Y-66399951D01*
X71897148Y-66519785D01*
X71897149Y-66519788D01*
X71897150Y-66519789D01*
X71954353Y-66632057D01*
X72028407Y-66733984D01*
X72028411Y-66733989D01*
X72117510Y-66823088D01*
X72117515Y-66823092D01*
X72219442Y-66897146D01*
X72219444Y-66897147D01*
X72219447Y-66897149D01*
X72331715Y-66954352D01*
X72451549Y-66993289D01*
X72575999Y-67013000D01*
X72576000Y-67013000D01*
X72702000Y-67013000D01*
X72702001Y-67013000D01*
X72826451Y-66993289D01*
X72946285Y-66954352D01*
X73058553Y-66897149D01*
X73160491Y-66823087D01*
X73249587Y-66733991D01*
X73323649Y-66632053D01*
X73380852Y-66519785D01*
X73419789Y-66399951D01*
X73439500Y-66275501D01*
X73439500Y-66149499D01*
X73419789Y-66025049D01*
X73380852Y-65905215D01*
X73323649Y-65792947D01*
X73323647Y-65792944D01*
X73323646Y-65792942D01*
X73249592Y-65691015D01*
X73249588Y-65691010D01*
X73160489Y-65601911D01*
X73160484Y-65601907D01*
X73058557Y-65527853D01*
X72946289Y-65470650D01*
X72946288Y-65470649D01*
X72946285Y-65470648D01*
X72826451Y-65431711D01*
X72826446Y-65431710D01*
X72821817Y-65430206D01*
X72822044Y-65429506D01*
X72777085Y-65407219D01*
X72743173Y-65363683D01*
X72731500Y-65311161D01*
X72731500Y-64220872D01*
X72743780Y-64167070D01*
X72778187Y-64123925D01*
X72827907Y-64099981D01*
X72883093Y-64099981D01*
X72902954Y-64106311D01*
X72982232Y-64139149D01*
X73146839Y-64183255D01*
X73315786Y-64205499D01*
X73315801Y-64205500D01*
X73486199Y-64205500D01*
X73486213Y-64205499D01*
X73655160Y-64183255D01*
X73819770Y-64139149D01*
X73977205Y-64073937D01*
X73977216Y-64073932D01*
X74124785Y-63988732D01*
X74128119Y-63986172D01*
X73446277Y-63304330D01*
X73517676Y-63290128D01*
X73590471Y-63259975D01*
X73655985Y-63216200D01*
X73711700Y-63160485D01*
X73755475Y-63094971D01*
X73785628Y-63022176D01*
X73799830Y-62950777D01*
X74481672Y-63632619D01*
X74481673Y-63632619D01*
X74484230Y-63629288D01*
X74484231Y-63629288D01*
X74569432Y-63481716D01*
X74569437Y-63481705D01*
X74634649Y-63324270D01*
X74678755Y-63159660D01*
X74700999Y-62990713D01*
X74701000Y-62990699D01*
X74701000Y-62820300D01*
X74700999Y-62820286D01*
X74678755Y-62651339D01*
X74634649Y-62486729D01*
X74569437Y-62329294D01*
X74569432Y-62329283D01*
X74484229Y-62181708D01*
X74481673Y-62178379D01*
X73799830Y-62860221D01*
X73785628Y-62788824D01*
X73755475Y-62716029D01*
X73711700Y-62650515D01*
X73655985Y-62594800D01*
X73590471Y-62551025D01*
X73517676Y-62520872D01*
X73446276Y-62506669D01*
X74128120Y-61824825D01*
X74124791Y-61822270D01*
X74124784Y-61822266D01*
X73977216Y-61737067D01*
X73977205Y-61737062D01*
X73819770Y-61671850D01*
X73655160Y-61627744D01*
X73486213Y-61605500D01*
X73315786Y-61605500D01*
X73146839Y-61627744D01*
X72982229Y-61671850D01*
X72902953Y-61704688D01*
X72848547Y-61713932D01*
X72795519Y-61698655D01*
X72754370Y-61661882D01*
X72733252Y-61610898D01*
X72731500Y-61590127D01*
X72731500Y-56601413D01*
X72743780Y-56547611D01*
X72778187Y-56504466D01*
X72827907Y-56480522D01*
X72883093Y-56480522D01*
X72902941Y-56486848D01*
X72982071Y-56519625D01*
X73146741Y-56563748D01*
X73315761Y-56586000D01*
X73315768Y-56586000D01*
X73486232Y-56586000D01*
X73486239Y-56586000D01*
X73655259Y-56563748D01*
X73819929Y-56519625D01*
X73977430Y-56454385D01*
X74125069Y-56369146D01*
X74260319Y-56265365D01*
X74380865Y-56144819D01*
X74484646Y-56009569D01*
X74569885Y-55861930D01*
X74635125Y-55704429D01*
X74679248Y-55539759D01*
X74701500Y-55370739D01*
X74701500Y-55200261D01*
X74679248Y-55031241D01*
X74635125Y-54866571D01*
X74604422Y-54792448D01*
X74595179Y-54738049D01*
X74610456Y-54685020D01*
X74647228Y-54643871D01*
X74698212Y-54622752D01*
X74718984Y-54621000D01*
X75386903Y-54621000D01*
X75440705Y-54633280D01*
G37*
%TD.AperFunction*%
%TA.AperFunction,Conductor*%
G36*
X59241672Y-72776619D02*
G01*
X59241673Y-72776619D01*
X59244230Y-72773288D01*
X59244231Y-72773288D01*
X59323324Y-72636294D01*
X59360859Y-72595841D01*
X59412229Y-72575679D01*
X59467260Y-72579803D01*
X59515052Y-72607395D01*
X59538098Y-72636294D01*
X59617353Y-72773568D01*
X59721133Y-72908817D01*
X59721139Y-72908824D01*
X59841675Y-73029360D01*
X59841682Y-73029366D01*
X59976931Y-73133146D01*
X60124559Y-73218379D01*
X60124561Y-73218380D01*
X60124570Y-73218385D01*
X60282071Y-73283625D01*
X60446741Y-73327748D01*
X60607623Y-73348928D01*
X60611955Y-73349499D01*
X60615761Y-73350000D01*
X60615768Y-73350000D01*
X60786232Y-73350000D01*
X60786239Y-73350000D01*
X60955259Y-73327748D01*
X61119929Y-73283625D01*
X61277430Y-73218385D01*
X61425069Y-73133146D01*
X61560319Y-73029365D01*
X61680865Y-72908819D01*
X61784646Y-72773569D01*
X61863613Y-72636794D01*
X61901148Y-72596340D01*
X61952518Y-72576178D01*
X62007549Y-72580302D01*
X62055341Y-72607894D01*
X62078387Y-72636794D01*
X62157350Y-72773564D01*
X62157351Y-72773566D01*
X62261133Y-72908817D01*
X62261139Y-72908824D01*
X62381675Y-73029360D01*
X62381682Y-73029366D01*
X62516931Y-73133146D01*
X62664559Y-73218379D01*
X62664561Y-73218380D01*
X62664570Y-73218385D01*
X62822071Y-73283625D01*
X62986741Y-73327748D01*
X63147623Y-73348928D01*
X63151955Y-73349499D01*
X63155761Y-73350000D01*
X63155768Y-73350000D01*
X63326232Y-73350000D01*
X63326239Y-73350000D01*
X63495259Y-73327748D01*
X63659929Y-73283625D01*
X63817430Y-73218385D01*
X63965069Y-73133146D01*
X64100319Y-73029365D01*
X64220865Y-72908819D01*
X64324646Y-72773569D01*
X64403613Y-72636794D01*
X64441148Y-72596340D01*
X64492518Y-72576178D01*
X64547549Y-72580302D01*
X64595341Y-72607894D01*
X64618387Y-72636794D01*
X64697350Y-72773564D01*
X64697351Y-72773566D01*
X64801133Y-72908817D01*
X64801139Y-72908824D01*
X64921675Y-73029360D01*
X64921682Y-73029366D01*
X65056931Y-73133146D01*
X65204559Y-73218379D01*
X65204561Y-73218380D01*
X65204570Y-73218385D01*
X65362071Y-73283625D01*
X65526741Y-73327748D01*
X65687623Y-73348928D01*
X65691955Y-73349499D01*
X65695761Y-73350000D01*
X65695768Y-73350000D01*
X65866232Y-73350000D01*
X65866239Y-73350000D01*
X66035259Y-73327748D01*
X66199929Y-73283625D01*
X66357430Y-73218385D01*
X66505069Y-73133146D01*
X66640319Y-73029365D01*
X66760865Y-72908819D01*
X66864646Y-72773569D01*
X66943613Y-72636794D01*
X66981148Y-72596340D01*
X67032518Y-72576178D01*
X67087549Y-72580302D01*
X67135341Y-72607894D01*
X67158387Y-72636794D01*
X67237350Y-72773564D01*
X67237351Y-72773566D01*
X67341133Y-72908817D01*
X67341139Y-72908824D01*
X67461675Y-73029360D01*
X67461682Y-73029366D01*
X67596931Y-73133146D01*
X67744559Y-73218379D01*
X67744561Y-73218380D01*
X67744570Y-73218385D01*
X67902071Y-73283625D01*
X68066741Y-73327748D01*
X68227623Y-73348928D01*
X68231955Y-73349499D01*
X68235761Y-73350000D01*
X68235768Y-73350000D01*
X68406232Y-73350000D01*
X68406239Y-73350000D01*
X68575259Y-73327748D01*
X68739929Y-73283625D01*
X68897430Y-73218385D01*
X69045069Y-73133146D01*
X69180319Y-73029365D01*
X69300865Y-72908819D01*
X69404646Y-72773569D01*
X69483613Y-72636794D01*
X69521148Y-72596340D01*
X69572518Y-72576178D01*
X69627549Y-72580302D01*
X69675341Y-72607894D01*
X69698387Y-72636794D01*
X69777350Y-72773564D01*
X69777351Y-72773566D01*
X69881133Y-72908817D01*
X69881139Y-72908824D01*
X70001675Y-73029360D01*
X70001682Y-73029366D01*
X70136931Y-73133146D01*
X70284559Y-73218379D01*
X70284561Y-73218380D01*
X70284570Y-73218385D01*
X70442071Y-73283625D01*
X70606741Y-73327748D01*
X70767623Y-73348928D01*
X70771955Y-73349499D01*
X70775761Y-73350000D01*
X70775768Y-73350000D01*
X70946232Y-73350000D01*
X70946239Y-73350000D01*
X71115259Y-73327748D01*
X71279929Y-73283625D01*
X71437430Y-73218385D01*
X71585069Y-73133146D01*
X71720319Y-73029365D01*
X71840865Y-72908819D01*
X71944646Y-72773569D01*
X72023613Y-72636794D01*
X72061148Y-72596340D01*
X72112518Y-72576178D01*
X72167549Y-72580302D01*
X72215341Y-72607894D01*
X72238387Y-72636794D01*
X72317350Y-72773564D01*
X72317351Y-72773566D01*
X72421133Y-72908817D01*
X72421139Y-72908824D01*
X72541675Y-73029360D01*
X72541682Y-73029366D01*
X72676931Y-73133146D01*
X72824559Y-73218379D01*
X72824561Y-73218380D01*
X72824570Y-73218385D01*
X72982071Y-73283625D01*
X73146741Y-73327748D01*
X73307623Y-73348928D01*
X73311955Y-73349499D01*
X73315761Y-73350000D01*
X73315768Y-73350000D01*
X73486232Y-73350000D01*
X73486239Y-73350000D01*
X73655259Y-73327748D01*
X73819929Y-73283625D01*
X73977430Y-73218385D01*
X74125069Y-73133146D01*
X74260319Y-73029365D01*
X74305277Y-72984407D01*
X74366819Y-72922866D01*
X74413545Y-72893505D01*
X74468384Y-72887327D01*
X74520472Y-72905553D01*
X74559494Y-72944575D01*
X74577720Y-72996663D01*
X74578500Y-73010547D01*
X74578500Y-78816334D01*
X74566220Y-78870136D01*
X74531813Y-78913281D01*
X74491224Y-78932827D01*
X73799830Y-79624221D01*
X73785628Y-79552824D01*
X73755475Y-79480029D01*
X73711700Y-79414515D01*
X73655985Y-79358800D01*
X73590471Y-79315025D01*
X73517676Y-79284872D01*
X73446275Y-79270669D01*
X74128120Y-78588825D01*
X74124791Y-78586270D01*
X74124784Y-78586266D01*
X73977216Y-78501067D01*
X73977205Y-78501062D01*
X73819770Y-78435850D01*
X73655160Y-78391744D01*
X73486213Y-78369500D01*
X73315786Y-78369500D01*
X73146839Y-78391744D01*
X72982229Y-78435850D01*
X72824794Y-78501062D01*
X72824783Y-78501067D01*
X72677210Y-78586269D01*
X72673878Y-78588825D01*
X73355722Y-79270669D01*
X73284324Y-79284872D01*
X73211529Y-79315025D01*
X73146015Y-79358800D01*
X73090300Y-79414515D01*
X73046525Y-79480029D01*
X73016372Y-79552824D01*
X73002169Y-79624222D01*
X72320325Y-78942378D01*
X72317772Y-78945707D01*
X72238675Y-79082706D01*
X72201139Y-79123159D01*
X72149769Y-79143320D01*
X72094738Y-79139196D01*
X72046946Y-79111603D01*
X72023901Y-79082705D01*
X71944646Y-78945431D01*
X71840866Y-78810182D01*
X71840860Y-78810175D01*
X71720324Y-78689639D01*
X71720317Y-78689633D01*
X71585068Y-78585853D01*
X71437440Y-78500620D01*
X71437433Y-78500617D01*
X71437434Y-78500617D01*
X71437430Y-78500615D01*
X71279929Y-78435375D01*
X71279928Y-78435374D01*
X71279924Y-78435373D01*
X71183228Y-78409464D01*
X71115259Y-78391252D01*
X71087010Y-78387533D01*
X70946246Y-78369000D01*
X70946239Y-78369000D01*
X70775761Y-78369000D01*
X70775753Y-78369000D01*
X70618940Y-78389646D01*
X70606741Y-78391252D01*
X70578010Y-78398950D01*
X70442075Y-78435373D01*
X70363320Y-78467995D01*
X70284570Y-78500615D01*
X70284567Y-78500616D01*
X70284566Y-78500617D01*
X70284559Y-78500620D01*
X70136931Y-78585853D01*
X70001682Y-78689633D01*
X70001675Y-78689639D01*
X69881139Y-78810175D01*
X69881133Y-78810182D01*
X69777353Y-78945431D01*
X69698387Y-79082206D01*
X69660852Y-79122659D01*
X69609482Y-79142821D01*
X69554451Y-79138697D01*
X69506659Y-79111105D01*
X69483613Y-79082206D01*
X69404646Y-78945431D01*
X69300866Y-78810182D01*
X69300860Y-78810175D01*
X69180324Y-78689639D01*
X69180317Y-78689633D01*
X69045068Y-78585853D01*
X68897440Y-78500620D01*
X68897433Y-78500617D01*
X68897434Y-78500617D01*
X68897430Y-78500615D01*
X68739929Y-78435375D01*
X68739928Y-78435374D01*
X68739924Y-78435373D01*
X68643228Y-78409464D01*
X68575259Y-78391252D01*
X68547010Y-78387533D01*
X68406246Y-78369000D01*
X68406239Y-78369000D01*
X68235761Y-78369000D01*
X68235753Y-78369000D01*
X68078940Y-78389646D01*
X68066741Y-78391252D01*
X68038010Y-78398950D01*
X67902075Y-78435373D01*
X67823320Y-78467995D01*
X67744570Y-78500615D01*
X67744567Y-78500616D01*
X67744566Y-78500617D01*
X67744559Y-78500620D01*
X67596931Y-78585853D01*
X67461682Y-78689633D01*
X67461675Y-78689639D01*
X67341139Y-78810175D01*
X67341133Y-78810182D01*
X67237353Y-78945431D01*
X67158387Y-79082206D01*
X67120852Y-79122659D01*
X67069482Y-79142821D01*
X67014451Y-79138697D01*
X66966659Y-79111105D01*
X66943613Y-79082206D01*
X66864646Y-78945431D01*
X66760866Y-78810182D01*
X66760860Y-78810175D01*
X66640324Y-78689639D01*
X66640317Y-78689633D01*
X66505068Y-78585853D01*
X66357440Y-78500620D01*
X66357433Y-78500617D01*
X66357434Y-78500617D01*
X66357430Y-78500615D01*
X66199929Y-78435375D01*
X66199928Y-78435374D01*
X66199924Y-78435373D01*
X66103228Y-78409464D01*
X66035259Y-78391252D01*
X66007010Y-78387533D01*
X65866246Y-78369000D01*
X65866239Y-78369000D01*
X65695761Y-78369000D01*
X65695753Y-78369000D01*
X65538940Y-78389646D01*
X65526741Y-78391252D01*
X65498010Y-78398950D01*
X65362075Y-78435373D01*
X65283320Y-78467995D01*
X65204570Y-78500615D01*
X65204567Y-78500616D01*
X65204566Y-78500617D01*
X65204559Y-78500620D01*
X65056931Y-78585853D01*
X64921682Y-78689633D01*
X64921675Y-78689639D01*
X64801139Y-78810175D01*
X64801133Y-78810182D01*
X64697353Y-78945431D01*
X64618387Y-79082206D01*
X64580852Y-79122659D01*
X64529482Y-79142821D01*
X64474451Y-79138697D01*
X64426659Y-79111105D01*
X64403613Y-79082206D01*
X64324646Y-78945431D01*
X64220866Y-78810182D01*
X64220860Y-78810175D01*
X64100324Y-78689639D01*
X64100317Y-78689633D01*
X63965068Y-78585853D01*
X63817440Y-78500620D01*
X63817433Y-78500617D01*
X63817434Y-78500617D01*
X63817430Y-78500615D01*
X63659929Y-78435375D01*
X63659928Y-78435374D01*
X63659924Y-78435373D01*
X63563228Y-78409464D01*
X63495259Y-78391252D01*
X63467010Y-78387533D01*
X63326246Y-78369000D01*
X63326239Y-78369000D01*
X63155761Y-78369000D01*
X63155753Y-78369000D01*
X62998940Y-78389646D01*
X62986741Y-78391252D01*
X62958010Y-78398950D01*
X62822075Y-78435373D01*
X62743320Y-78467995D01*
X62664570Y-78500615D01*
X62664567Y-78500616D01*
X62664566Y-78500617D01*
X62664559Y-78500620D01*
X62516931Y-78585853D01*
X62381682Y-78689633D01*
X62381675Y-78689639D01*
X62261139Y-78810175D01*
X62261133Y-78810182D01*
X62157353Y-78945431D01*
X62078387Y-79082206D01*
X62040852Y-79122659D01*
X61989482Y-79142821D01*
X61934451Y-79138697D01*
X61886659Y-79111105D01*
X61863613Y-79082206D01*
X61784646Y-78945431D01*
X61680866Y-78810182D01*
X61680860Y-78810175D01*
X61560324Y-78689639D01*
X61560317Y-78689633D01*
X61425068Y-78585853D01*
X61277440Y-78500620D01*
X61277433Y-78500617D01*
X61277434Y-78500617D01*
X61277430Y-78500615D01*
X61119929Y-78435375D01*
X61119928Y-78435374D01*
X61119924Y-78435373D01*
X61023228Y-78409464D01*
X60955259Y-78391252D01*
X60927010Y-78387533D01*
X60786246Y-78369000D01*
X60786239Y-78369000D01*
X60615761Y-78369000D01*
X60615753Y-78369000D01*
X60458940Y-78389646D01*
X60446741Y-78391252D01*
X60418010Y-78398950D01*
X60282075Y-78435373D01*
X60203320Y-78467995D01*
X60124570Y-78500615D01*
X60124567Y-78500616D01*
X60124566Y-78500617D01*
X60124559Y-78500620D01*
X59976931Y-78585853D01*
X59841682Y-78689633D01*
X59841675Y-78689639D01*
X59721139Y-78810175D01*
X59721133Y-78810182D01*
X59617353Y-78945431D01*
X59538387Y-79082206D01*
X59500852Y-79122659D01*
X59449482Y-79142821D01*
X59394451Y-79138697D01*
X59346659Y-79111105D01*
X59323613Y-79082206D01*
X59244646Y-78945431D01*
X59140866Y-78810182D01*
X59140860Y-78810175D01*
X59020324Y-78689639D01*
X59020317Y-78689633D01*
X58885068Y-78585853D01*
X58737440Y-78500620D01*
X58737433Y-78500617D01*
X58737434Y-78500617D01*
X58737430Y-78500615D01*
X58579929Y-78435375D01*
X58579928Y-78435374D01*
X58579924Y-78435373D01*
X58483228Y-78409464D01*
X58415259Y-78391252D01*
X58387010Y-78387533D01*
X58246246Y-78369000D01*
X58246239Y-78369000D01*
X58075761Y-78369000D01*
X58075753Y-78369000D01*
X57925521Y-78388779D01*
X57906741Y-78391252D01*
X57906738Y-78391252D01*
X57906726Y-78391255D01*
X57838066Y-78409652D01*
X57782920Y-78411715D01*
X57732339Y-78389646D01*
X57718293Y-78377558D01*
X57357819Y-78017084D01*
X57328458Y-77970358D01*
X57321500Y-77929403D01*
X57321500Y-73280699D01*
X57333780Y-73226897D01*
X57368187Y-73183752D01*
X57417907Y-73159808D01*
X57473093Y-73159808D01*
X57507501Y-73173312D01*
X57584790Y-73217935D01*
X57584794Y-73217937D01*
X57742229Y-73283149D01*
X57906839Y-73327255D01*
X58075786Y-73349499D01*
X58075801Y-73349500D01*
X58246199Y-73349500D01*
X58246213Y-73349499D01*
X58415160Y-73327255D01*
X58579770Y-73283149D01*
X58737205Y-73217937D01*
X58737216Y-73217932D01*
X58884785Y-73132732D01*
X58888119Y-73130172D01*
X58206277Y-72448330D01*
X58277676Y-72434128D01*
X58350471Y-72403975D01*
X58415985Y-72360200D01*
X58471700Y-72304485D01*
X58515475Y-72238971D01*
X58545628Y-72166176D01*
X58559830Y-72094777D01*
X59241672Y-72776619D01*
G37*
%TD.AperFunction*%
%TA.AperFunction,Conductor*%
G36*
X74833871Y-39292398D02*
G01*
X74863612Y-39314348D01*
X75882181Y-40332916D01*
X75911542Y-40379642D01*
X75918500Y-40420597D01*
X75918500Y-49732220D01*
X75918499Y-49732246D01*
X75918499Y-49855647D01*
X75926796Y-49897356D01*
X75940913Y-49968327D01*
X75941576Y-49971660D01*
X75941577Y-49971663D01*
X75986840Y-50080939D01*
X75986841Y-50080941D01*
X76052560Y-50179296D01*
X76052563Y-50179300D01*
X76140522Y-50267259D01*
X76140544Y-50267279D01*
X82382233Y-56508968D01*
X82411594Y-56555694D01*
X82417772Y-56610533D01*
X82414327Y-56628742D01*
X82387607Y-56728460D01*
X82364500Y-56903983D01*
X82364500Y-57081016D01*
X82387606Y-57256531D01*
X82433429Y-57427543D01*
X82501169Y-57591084D01*
X82501174Y-57591093D01*
X82589691Y-57744408D01*
X82589694Y-57744412D01*
X82589698Y-57744418D01*
X82697462Y-57884857D01*
X82697470Y-57884866D01*
X82822634Y-58010030D01*
X82822642Y-58010037D01*
X82963081Y-58117801D01*
X82963085Y-58117803D01*
X82963092Y-58117809D01*
X83026028Y-58154145D01*
X83027704Y-58155113D01*
X83068157Y-58192649D01*
X83088318Y-58244020D01*
X83084194Y-58299051D01*
X83056601Y-58346842D01*
X83027704Y-58369887D01*
X82963093Y-58407190D01*
X82963081Y-58407198D01*
X82822642Y-58514962D01*
X82697462Y-58640142D01*
X82589698Y-58780581D01*
X82589691Y-58780592D01*
X82501174Y-58933906D01*
X82501169Y-58933915D01*
X82433429Y-59097456D01*
X82387606Y-59268468D01*
X82364500Y-59443983D01*
X82364500Y-59621016D01*
X82387606Y-59796531D01*
X82433429Y-59967543D01*
X82501169Y-60131084D01*
X82501174Y-60131093D01*
X82589691Y-60284408D01*
X82589694Y-60284412D01*
X82589698Y-60284418D01*
X82697462Y-60424857D01*
X82697470Y-60424866D01*
X82822634Y-60550030D01*
X82822642Y-60550037D01*
X82963081Y-60657801D01*
X82963085Y-60657803D01*
X82963092Y-60657809D01*
X83026028Y-60694145D01*
X83027704Y-60695113D01*
X83068157Y-60732649D01*
X83088318Y-60784020D01*
X83084194Y-60839051D01*
X83056601Y-60886842D01*
X83027704Y-60909887D01*
X82963093Y-60947190D01*
X82963081Y-60947198D01*
X82822642Y-61054962D01*
X82697462Y-61180142D01*
X82589698Y-61320581D01*
X82589691Y-61320592D01*
X82501174Y-61473906D01*
X82501169Y-61473915D01*
X82433429Y-61637456D01*
X82387606Y-61808468D01*
X82364500Y-61983983D01*
X82364500Y-62161016D01*
X82386653Y-62329294D01*
X82387607Y-62336535D01*
X82432907Y-62505597D01*
X82433429Y-62507543D01*
X82501169Y-62671084D01*
X82501174Y-62671093D01*
X82589691Y-62824408D01*
X82589694Y-62824412D01*
X82589698Y-62824418D01*
X82697462Y-62964857D01*
X82697470Y-62964866D01*
X82822634Y-63090030D01*
X82822642Y-63090037D01*
X82963081Y-63197801D01*
X82963085Y-63197803D01*
X82963092Y-63197809D01*
X82994946Y-63216200D01*
X83027704Y-63235113D01*
X83068157Y-63272649D01*
X83088318Y-63324020D01*
X83084194Y-63379051D01*
X83056601Y-63426842D01*
X83027704Y-63449887D01*
X82963093Y-63487190D01*
X82963081Y-63487198D01*
X82822642Y-63594962D01*
X82697462Y-63720142D01*
X82589698Y-63860581D01*
X82589691Y-63860592D01*
X82501174Y-64013906D01*
X82501169Y-64013915D01*
X82433429Y-64177456D01*
X82387606Y-64348468D01*
X82364500Y-64523983D01*
X82364500Y-64701016D01*
X82387606Y-64876531D01*
X82433429Y-65047543D01*
X82501169Y-65211084D01*
X82501174Y-65211093D01*
X82589691Y-65364408D01*
X82589694Y-65364412D01*
X82589698Y-65364418D01*
X82697462Y-65504857D01*
X82697470Y-65504866D01*
X82822634Y-65630030D01*
X82822642Y-65630037D01*
X82963081Y-65737801D01*
X82963085Y-65737803D01*
X82963092Y-65737809D01*
X83026028Y-65774145D01*
X83027704Y-65775113D01*
X83068157Y-65812649D01*
X83088318Y-65864020D01*
X83084194Y-65919051D01*
X83056601Y-65966842D01*
X83027704Y-65989887D01*
X82963093Y-66027190D01*
X82963081Y-66027198D01*
X82822642Y-66134962D01*
X82697462Y-66260142D01*
X82589698Y-66400581D01*
X82589691Y-66400592D01*
X82501174Y-66553906D01*
X82501169Y-66553915D01*
X82433429Y-66717456D01*
X82387606Y-66888468D01*
X82364500Y-67063983D01*
X82364500Y-67193402D01*
X82352220Y-67247204D01*
X82317813Y-67290349D01*
X82268093Y-67314293D01*
X82212907Y-67314293D01*
X82163187Y-67290349D01*
X82152819Y-67281083D01*
X81911819Y-67040083D01*
X81882458Y-66993357D01*
X81875500Y-66952402D01*
X81875500Y-57852299D01*
X81854040Y-57744408D01*
X81852424Y-57736282D01*
X81807157Y-57626998D01*
X81741439Y-57528645D01*
X81657797Y-57445003D01*
X81657796Y-57445002D01*
X76657566Y-52444773D01*
X76657564Y-52444770D01*
X76657564Y-52444771D01*
X76650497Y-52437704D01*
X76650497Y-52437703D01*
X76566855Y-52354061D01*
X76566854Y-52354060D01*
X76566853Y-52354059D01*
X76468499Y-52288341D01*
X76468497Y-52288340D01*
X76359222Y-52243077D01*
X76359210Y-52243074D01*
X76243205Y-52219999D01*
X76243202Y-52219999D01*
X76124914Y-52219999D01*
X76118800Y-52219999D01*
X76118780Y-52220000D01*
X63106856Y-52220000D01*
X63048848Y-52231538D01*
X62990839Y-52243076D01*
X62990833Y-52243078D01*
X62881560Y-52288340D01*
X62881558Y-52288341D01*
X62783204Y-52354059D01*
X62741383Y-52395881D01*
X62699561Y-52437703D01*
X62699558Y-52437706D01*
X61143705Y-53993558D01*
X61096979Y-54022919D01*
X61042140Y-54029097D01*
X61023931Y-54025652D01*
X60955269Y-54007254D01*
X60955262Y-54007252D01*
X60955259Y-54007252D01*
X60917699Y-54002307D01*
X60786246Y-53985000D01*
X60786239Y-53985000D01*
X60615761Y-53985000D01*
X60615753Y-53985000D01*
X60454878Y-54006180D01*
X60446741Y-54007252D01*
X60446734Y-54007254D01*
X60282075Y-54051373D01*
X60203320Y-54083995D01*
X60124570Y-54116615D01*
X60124567Y-54116616D01*
X60124566Y-54116617D01*
X60124559Y-54116620D01*
X59976931Y-54201853D01*
X59841682Y-54305633D01*
X59841675Y-54305639D01*
X59721139Y-54426175D01*
X59721133Y-54426182D01*
X59617353Y-54561431D01*
X59532120Y-54709059D01*
X59532117Y-54709066D01*
X59532115Y-54709070D01*
X59511507Y-54758821D01*
X59466873Y-54866575D01*
X59422753Y-55031238D01*
X59422751Y-55031249D01*
X59400500Y-55200253D01*
X59400500Y-55370746D01*
X59413572Y-55470030D01*
X59422752Y-55539759D01*
X59440964Y-55607728D01*
X59466873Y-55704424D01*
X59466874Y-55704428D01*
X59466875Y-55704429D01*
X59532115Y-55861930D01*
X59532117Y-55861933D01*
X59532120Y-55861940D01*
X59617353Y-56009568D01*
X59721133Y-56144817D01*
X59721139Y-56144824D01*
X59841675Y-56265360D01*
X59841682Y-56265366D01*
X59976931Y-56369146D01*
X60124559Y-56454379D01*
X60124561Y-56454380D01*
X60124570Y-56454385D01*
X60282071Y-56519625D01*
X60446741Y-56563748D01*
X60615761Y-56586000D01*
X60615768Y-56586000D01*
X60786232Y-56586000D01*
X60786239Y-56586000D01*
X60955259Y-56563748D01*
X61119929Y-56519625D01*
X61277430Y-56454385D01*
X61425069Y-56369146D01*
X61560319Y-56265365D01*
X61680865Y-56144819D01*
X61784646Y-56009569D01*
X61863613Y-55872794D01*
X61901148Y-55832340D01*
X61952518Y-55812178D01*
X62007549Y-55816302D01*
X62055341Y-55843894D01*
X62078387Y-55872794D01*
X62157350Y-56009564D01*
X62157351Y-56009566D01*
X62261133Y-56144817D01*
X62261139Y-56144824D01*
X62381675Y-56265360D01*
X62381682Y-56265366D01*
X62516931Y-56369146D01*
X62664559Y-56454379D01*
X62664561Y-56454380D01*
X62664570Y-56454385D01*
X62822071Y-56519625D01*
X62986741Y-56563748D01*
X63155761Y-56586000D01*
X63155768Y-56586000D01*
X63326232Y-56586000D01*
X63326239Y-56586000D01*
X63495259Y-56563748D01*
X63659929Y-56519625D01*
X63817430Y-56454385D01*
X63965069Y-56369146D01*
X64100319Y-56265365D01*
X64220865Y-56144819D01*
X64324646Y-56009569D01*
X64403613Y-55872794D01*
X64441148Y-55832340D01*
X64492518Y-55812178D01*
X64547549Y-55816302D01*
X64595341Y-55843894D01*
X64618387Y-55872794D01*
X64697350Y-56009564D01*
X64697351Y-56009566D01*
X64801133Y-56144817D01*
X64801139Y-56144824D01*
X64921675Y-56265360D01*
X64921682Y-56265366D01*
X65056931Y-56369146D01*
X65204559Y-56454379D01*
X65204561Y-56454380D01*
X65204570Y-56454385D01*
X65362071Y-56519625D01*
X65526741Y-56563748D01*
X65695761Y-56586000D01*
X65695768Y-56586000D01*
X65866232Y-56586000D01*
X65866239Y-56586000D01*
X66035259Y-56563748D01*
X66199929Y-56519625D01*
X66357430Y-56454385D01*
X66505069Y-56369146D01*
X66640319Y-56265365D01*
X66760865Y-56144819D01*
X66864646Y-56009569D01*
X66943613Y-55872794D01*
X66981148Y-55832340D01*
X67032518Y-55812178D01*
X67087549Y-55816302D01*
X67135341Y-55843894D01*
X67158387Y-55872794D01*
X67237350Y-56009564D01*
X67237351Y-56009566D01*
X67341133Y-56144817D01*
X67341139Y-56144824D01*
X67461675Y-56265360D01*
X67461682Y-56265366D01*
X67596931Y-56369146D01*
X67744559Y-56454379D01*
X67744561Y-56454380D01*
X67744570Y-56454385D01*
X67902071Y-56519625D01*
X68066741Y-56563748D01*
X68235761Y-56586000D01*
X68235768Y-56586000D01*
X68406232Y-56586000D01*
X68406239Y-56586000D01*
X68575259Y-56563748D01*
X68739929Y-56519625D01*
X68897430Y-56454385D01*
X69045069Y-56369146D01*
X69180319Y-56265365D01*
X69300865Y-56144819D01*
X69404646Y-56009569D01*
X69483613Y-55872794D01*
X69521148Y-55832340D01*
X69572518Y-55812178D01*
X69627549Y-55816302D01*
X69675341Y-55843894D01*
X69698387Y-55872794D01*
X69777350Y-56009564D01*
X69777351Y-56009566D01*
X69881133Y-56144817D01*
X69881139Y-56144824D01*
X70001675Y-56265360D01*
X70001682Y-56265366D01*
X70136931Y-56369146D01*
X70284559Y-56454379D01*
X70284561Y-56454380D01*
X70284570Y-56454385D01*
X70442071Y-56519625D01*
X70606741Y-56563748D01*
X70775761Y-56586000D01*
X70775768Y-56586000D01*
X70946232Y-56586000D01*
X70946239Y-56586000D01*
X71115259Y-56563748D01*
X71183931Y-56545346D01*
X71239077Y-56543284D01*
X71289658Y-56565352D01*
X71303705Y-56577441D01*
X71494181Y-56767916D01*
X71523541Y-56814642D01*
X71530500Y-56855597D01*
X71530500Y-61589586D01*
X71518220Y-61643388D01*
X71483813Y-61686533D01*
X71434093Y-61710477D01*
X71378907Y-61710477D01*
X71359047Y-61704147D01*
X71279927Y-61671374D01*
X71178700Y-61644251D01*
X71115259Y-61627252D01*
X71087010Y-61623533D01*
X70946246Y-61605000D01*
X70946239Y-61605000D01*
X70775761Y-61605000D01*
X70775753Y-61605000D01*
X70618940Y-61625646D01*
X70606741Y-61627252D01*
X70578010Y-61634950D01*
X70442075Y-61671373D01*
X70376212Y-61698655D01*
X70284570Y-61736615D01*
X70284567Y-61736616D01*
X70284566Y-61736617D01*
X70284559Y-61736620D01*
X70136931Y-61821853D01*
X70001682Y-61925633D01*
X70001679Y-61925636D01*
X69881139Y-62046175D01*
X69881133Y-62046182D01*
X69777353Y-62181431D01*
X69698387Y-62318206D01*
X69660852Y-62358659D01*
X69609482Y-62378821D01*
X69554451Y-62374697D01*
X69506659Y-62347105D01*
X69483613Y-62318206D01*
X69404646Y-62181431D01*
X69300866Y-62046182D01*
X69300860Y-62046175D01*
X69180321Y-61925636D01*
X69180317Y-61925633D01*
X69045068Y-61821853D01*
X68897440Y-61736620D01*
X68897433Y-61736617D01*
X68897434Y-61736617D01*
X68897430Y-61736615D01*
X68739929Y-61671375D01*
X68739928Y-61671374D01*
X68739924Y-61671373D01*
X68638697Y-61644250D01*
X68575259Y-61627252D01*
X68547010Y-61623533D01*
X68406246Y-61605000D01*
X68406239Y-61605000D01*
X68235761Y-61605000D01*
X68235753Y-61605000D01*
X68078940Y-61625646D01*
X68066741Y-61627252D01*
X68038010Y-61634950D01*
X67902075Y-61671373D01*
X67836212Y-61698655D01*
X67744570Y-61736615D01*
X67744567Y-61736616D01*
X67744566Y-61736617D01*
X67744559Y-61736620D01*
X67596931Y-61821853D01*
X67461682Y-61925633D01*
X67461679Y-61925636D01*
X67341139Y-62046175D01*
X67341133Y-62046182D01*
X67237353Y-62181431D01*
X67158387Y-62318206D01*
X67120852Y-62358659D01*
X67069482Y-62378821D01*
X67014451Y-62374697D01*
X66966659Y-62347105D01*
X66943613Y-62318206D01*
X66864646Y-62181431D01*
X66760866Y-62046182D01*
X66760860Y-62046175D01*
X66640321Y-61925636D01*
X66640317Y-61925633D01*
X66505068Y-61821853D01*
X66357440Y-61736620D01*
X66357433Y-61736617D01*
X66357434Y-61736617D01*
X66357430Y-61736615D01*
X66199929Y-61671375D01*
X66199928Y-61671374D01*
X66199924Y-61671373D01*
X66098697Y-61644250D01*
X66035259Y-61627252D01*
X66007010Y-61623533D01*
X65866246Y-61605000D01*
X65866239Y-61605000D01*
X65695761Y-61605000D01*
X65695753Y-61605000D01*
X65538940Y-61625646D01*
X65526741Y-61627252D01*
X65498010Y-61634950D01*
X65362075Y-61671373D01*
X65296212Y-61698655D01*
X65204570Y-61736615D01*
X65204567Y-61736616D01*
X65204566Y-61736617D01*
X65204559Y-61736620D01*
X65056931Y-61821853D01*
X64921682Y-61925633D01*
X64921679Y-61925636D01*
X64801139Y-62046175D01*
X64801133Y-62046182D01*
X64697353Y-62181431D01*
X64618387Y-62318206D01*
X64580852Y-62358659D01*
X64529482Y-62378821D01*
X64474451Y-62374697D01*
X64426659Y-62347105D01*
X64403613Y-62318206D01*
X64324646Y-62181431D01*
X64220866Y-62046182D01*
X64220860Y-62046175D01*
X64100321Y-61925636D01*
X64100317Y-61925633D01*
X63965068Y-61821853D01*
X63817440Y-61736620D01*
X63817433Y-61736617D01*
X63817434Y-61736617D01*
X63817430Y-61736615D01*
X63659929Y-61671375D01*
X63659928Y-61671374D01*
X63659924Y-61671373D01*
X63558697Y-61644250D01*
X63495259Y-61627252D01*
X63467010Y-61623533D01*
X63326246Y-61605000D01*
X63326239Y-61605000D01*
X63155761Y-61605000D01*
X63155753Y-61605000D01*
X62998940Y-61625646D01*
X62986741Y-61627252D01*
X62958010Y-61634950D01*
X62822075Y-61671373D01*
X62756212Y-61698655D01*
X62664570Y-61736615D01*
X62664567Y-61736616D01*
X62664566Y-61736617D01*
X62664559Y-61736620D01*
X62516931Y-61821853D01*
X62381682Y-61925633D01*
X62381679Y-61925636D01*
X62261139Y-62046175D01*
X62261133Y-62046182D01*
X62157353Y-62181431D01*
X62078387Y-62318206D01*
X62040852Y-62358659D01*
X61989482Y-62378821D01*
X61934451Y-62374697D01*
X61886659Y-62347105D01*
X61863613Y-62318206D01*
X61784646Y-62181431D01*
X61680866Y-62046182D01*
X61680860Y-62046175D01*
X61560321Y-61925636D01*
X61560317Y-61925633D01*
X61425068Y-61821853D01*
X61277440Y-61736620D01*
X61277433Y-61736617D01*
X61277434Y-61736617D01*
X61277430Y-61736615D01*
X61119929Y-61671375D01*
X61119928Y-61671374D01*
X61119924Y-61671373D01*
X61018697Y-61644250D01*
X60955259Y-61627252D01*
X60927010Y-61623533D01*
X60786246Y-61605000D01*
X60786239Y-61605000D01*
X60615761Y-61605000D01*
X60615753Y-61605000D01*
X60458940Y-61625646D01*
X60446741Y-61627252D01*
X60418010Y-61634950D01*
X60282075Y-61671373D01*
X60216212Y-61698655D01*
X60124570Y-61736615D01*
X60124567Y-61736616D01*
X60124566Y-61736617D01*
X60124559Y-61736620D01*
X59976931Y-61821853D01*
X59841682Y-61925633D01*
X59841679Y-61925636D01*
X59721139Y-62046175D01*
X59721133Y-62046182D01*
X59617353Y-62181431D01*
X59538387Y-62318206D01*
X59500852Y-62358659D01*
X59449482Y-62378821D01*
X59394451Y-62374697D01*
X59346659Y-62347105D01*
X59323613Y-62318206D01*
X59244646Y-62181431D01*
X59140866Y-62046182D01*
X59140860Y-62046175D01*
X59020321Y-61925636D01*
X59020317Y-61925633D01*
X58885068Y-61821853D01*
X58737440Y-61736620D01*
X58737433Y-61736617D01*
X58737434Y-61736617D01*
X58737430Y-61736615D01*
X58579929Y-61671375D01*
X58579928Y-61671374D01*
X58579924Y-61671373D01*
X58478697Y-61644250D01*
X58415259Y-61627252D01*
X58387010Y-61623533D01*
X58246246Y-61605000D01*
X58246239Y-61605000D01*
X58075761Y-61605000D01*
X58075753Y-61605000D01*
X57925521Y-61624779D01*
X57906741Y-61627252D01*
X57906738Y-61627252D01*
X57906726Y-61627255D01*
X57838066Y-61645652D01*
X57782920Y-61647715D01*
X57732339Y-61625646D01*
X57718293Y-61613558D01*
X57357819Y-61253084D01*
X57328458Y-61206358D01*
X57321500Y-61165403D01*
X57321500Y-52238786D01*
X59321000Y-52238786D01*
X59321000Y-52409213D01*
X59343244Y-52578160D01*
X59387350Y-52742770D01*
X59452562Y-52900205D01*
X59452567Y-52900216D01*
X59537766Y-53047784D01*
X59537770Y-53047791D01*
X59540325Y-53051120D01*
X60222169Y-52369276D01*
X60236372Y-52440676D01*
X60266525Y-52513471D01*
X60310300Y-52578985D01*
X60366015Y-52634700D01*
X60431529Y-52678475D01*
X60504324Y-52708628D01*
X60575722Y-52722830D01*
X59893879Y-53404673D01*
X59897208Y-53407229D01*
X60044783Y-53492432D01*
X60044794Y-53492437D01*
X60202229Y-53557649D01*
X60366839Y-53601755D01*
X60535786Y-53623999D01*
X60535801Y-53624000D01*
X60706199Y-53624000D01*
X60706213Y-53623999D01*
X60875160Y-53601755D01*
X61039770Y-53557649D01*
X61197205Y-53492437D01*
X61197216Y-53492432D01*
X61344788Y-53407231D01*
X61344788Y-53407230D01*
X61348119Y-53404673D01*
X61348119Y-53404672D01*
X60666277Y-52722830D01*
X60737676Y-52708628D01*
X60810471Y-52678475D01*
X60875985Y-52634700D01*
X60931700Y-52578985D01*
X60975475Y-52513471D01*
X61005628Y-52440676D01*
X61019830Y-52369277D01*
X61701672Y-53051119D01*
X61701673Y-53051119D01*
X61704230Y-53047788D01*
X61704231Y-53047788D01*
X61789432Y-52900216D01*
X61789437Y-52900205D01*
X61854649Y-52742770D01*
X61898755Y-52578160D01*
X61920999Y-52409213D01*
X61921000Y-52409199D01*
X61921000Y-52238800D01*
X61920999Y-52238786D01*
X61898755Y-52069839D01*
X61854649Y-51905229D01*
X61789437Y-51747794D01*
X61789432Y-51747783D01*
X61704229Y-51600208D01*
X61701673Y-51596879D01*
X61019830Y-52278721D01*
X61005628Y-52207324D01*
X60975475Y-52134529D01*
X60931700Y-52069015D01*
X60875985Y-52013300D01*
X60810471Y-51969525D01*
X60737676Y-51939372D01*
X60666275Y-51925169D01*
X61348120Y-51243325D01*
X61344791Y-51240770D01*
X61344784Y-51240766D01*
X61197216Y-51155567D01*
X61197205Y-51155562D01*
X61039770Y-51090350D01*
X60875160Y-51046244D01*
X60706213Y-51024000D01*
X60535786Y-51024000D01*
X60366839Y-51046244D01*
X60202229Y-51090350D01*
X60044794Y-51155562D01*
X60044783Y-51155567D01*
X59897210Y-51240769D01*
X59893878Y-51243325D01*
X60575722Y-51925169D01*
X60504324Y-51939372D01*
X60431529Y-51969525D01*
X60366015Y-52013300D01*
X60310300Y-52069015D01*
X60266525Y-52134529D01*
X60236372Y-52207324D01*
X60222169Y-52278722D01*
X59540325Y-51596878D01*
X59537769Y-51600210D01*
X59452567Y-51747783D01*
X59452562Y-51747794D01*
X59387350Y-51905229D01*
X59343244Y-52069839D01*
X59321000Y-52238786D01*
X57321500Y-52238786D01*
X57321500Y-48389596D01*
X57333780Y-48335794D01*
X57357816Y-48301918D01*
X57718295Y-47941438D01*
X57765019Y-47912080D01*
X57819857Y-47905901D01*
X57838053Y-47909343D01*
X57906741Y-47927748D01*
X58067623Y-47948928D01*
X58071955Y-47949499D01*
X58075761Y-47950000D01*
X58075768Y-47950000D01*
X58246232Y-47950000D01*
X58246239Y-47950000D01*
X58415259Y-47927748D01*
X58579929Y-47883625D01*
X58737430Y-47818385D01*
X58885069Y-47733146D01*
X59020319Y-47629365D01*
X59140865Y-47508819D01*
X59244646Y-47373569D01*
X59296901Y-47283061D01*
X59323613Y-47236794D01*
X59361148Y-47196340D01*
X59412518Y-47176178D01*
X59467549Y-47180302D01*
X59515341Y-47207894D01*
X59538387Y-47236794D01*
X59617350Y-47373564D01*
X59617351Y-47373566D01*
X59721133Y-47508817D01*
X59721139Y-47508824D01*
X59841675Y-47629360D01*
X59841682Y-47629366D01*
X59976931Y-47733146D01*
X60124559Y-47818379D01*
X60124561Y-47818380D01*
X60124570Y-47818385D01*
X60282071Y-47883625D01*
X60446741Y-47927748D01*
X60607623Y-47948928D01*
X60611955Y-47949499D01*
X60615761Y-47950000D01*
X60615768Y-47950000D01*
X60786232Y-47950000D01*
X60786239Y-47950000D01*
X60955259Y-47927748D01*
X61119929Y-47883625D01*
X61277430Y-47818385D01*
X61425069Y-47733146D01*
X61560319Y-47629365D01*
X61680865Y-47508819D01*
X61784646Y-47373569D01*
X61836901Y-47283061D01*
X61863613Y-47236794D01*
X61901148Y-47196340D01*
X61952518Y-47176178D01*
X62007549Y-47180302D01*
X62055341Y-47207894D01*
X62078387Y-47236794D01*
X62157350Y-47373564D01*
X62157351Y-47373566D01*
X62261133Y-47508817D01*
X62261139Y-47508824D01*
X62381675Y-47629360D01*
X62381682Y-47629366D01*
X62516931Y-47733146D01*
X62664559Y-47818379D01*
X62664561Y-47818380D01*
X62664570Y-47818385D01*
X62822071Y-47883625D01*
X62986741Y-47927748D01*
X63147623Y-47948928D01*
X63151955Y-47949499D01*
X63155761Y-47950000D01*
X63155768Y-47950000D01*
X63326232Y-47950000D01*
X63326239Y-47950000D01*
X63495259Y-47927748D01*
X63659929Y-47883625D01*
X63817430Y-47818385D01*
X63965069Y-47733146D01*
X64100319Y-47629365D01*
X64220865Y-47508819D01*
X64324646Y-47373569D01*
X64376901Y-47283061D01*
X64403613Y-47236794D01*
X64441148Y-47196340D01*
X64492518Y-47176178D01*
X64547549Y-47180302D01*
X64595341Y-47207894D01*
X64618387Y-47236794D01*
X64697350Y-47373564D01*
X64697351Y-47373566D01*
X64801133Y-47508817D01*
X64801139Y-47508824D01*
X64921675Y-47629360D01*
X64921682Y-47629366D01*
X65056931Y-47733146D01*
X65204559Y-47818379D01*
X65204561Y-47818380D01*
X65204570Y-47818385D01*
X65362071Y-47883625D01*
X65526741Y-47927748D01*
X65687623Y-47948928D01*
X65691955Y-47949499D01*
X65695761Y-47950000D01*
X65695768Y-47950000D01*
X65866232Y-47950000D01*
X65866239Y-47950000D01*
X66035259Y-47927748D01*
X66199929Y-47883625D01*
X66357430Y-47818385D01*
X66505069Y-47733146D01*
X66640319Y-47629365D01*
X66760865Y-47508819D01*
X66864646Y-47373569D01*
X66916901Y-47283061D01*
X66943613Y-47236794D01*
X66981148Y-47196340D01*
X67032518Y-47176178D01*
X67087549Y-47180302D01*
X67135341Y-47207894D01*
X67158387Y-47236794D01*
X67237350Y-47373564D01*
X67237351Y-47373566D01*
X67341133Y-47508817D01*
X67341139Y-47508824D01*
X67461675Y-47629360D01*
X67461682Y-47629366D01*
X67596931Y-47733146D01*
X67744559Y-47818379D01*
X67744561Y-47818380D01*
X67744570Y-47818385D01*
X67902071Y-47883625D01*
X68066741Y-47927748D01*
X68227623Y-47948928D01*
X68231955Y-47949499D01*
X68235761Y-47950000D01*
X68235768Y-47950000D01*
X68406232Y-47950000D01*
X68406239Y-47950000D01*
X68575259Y-47927748D01*
X68739929Y-47883625D01*
X68897430Y-47818385D01*
X69045069Y-47733146D01*
X69180319Y-47629365D01*
X69300865Y-47508819D01*
X69404646Y-47373569D01*
X69456901Y-47283061D01*
X69483613Y-47236794D01*
X69521148Y-47196340D01*
X69572518Y-47176178D01*
X69627549Y-47180302D01*
X69675341Y-47207894D01*
X69698387Y-47236794D01*
X69777350Y-47373564D01*
X69777351Y-47373566D01*
X69881133Y-47508817D01*
X69881139Y-47508824D01*
X70001675Y-47629360D01*
X70001682Y-47629366D01*
X70136931Y-47733146D01*
X70284559Y-47818379D01*
X70284561Y-47818380D01*
X70284570Y-47818385D01*
X70442071Y-47883625D01*
X70606741Y-47927748D01*
X70767623Y-47948928D01*
X70771955Y-47949499D01*
X70775761Y-47950000D01*
X70775768Y-47950000D01*
X70946232Y-47950000D01*
X70946239Y-47950000D01*
X71115259Y-47927748D01*
X71279929Y-47883625D01*
X71359050Y-47850851D01*
X71413452Y-47841608D01*
X71466480Y-47856885D01*
X71507629Y-47893657D01*
X71528748Y-47944641D01*
X71530500Y-47965413D01*
X71530500Y-49892220D01*
X71530499Y-49892246D01*
X71530499Y-49897356D01*
X71530499Y-50015644D01*
X71530499Y-50015646D01*
X71530498Y-50015646D01*
X71543487Y-50080939D01*
X71552133Y-50124407D01*
X71552515Y-50126324D01*
X71552516Y-50126335D01*
X71552517Y-50126335D01*
X71553575Y-50131657D01*
X71553577Y-50131663D01*
X71598841Y-50240941D01*
X71664560Y-50339296D01*
X71664563Y-50339300D01*
X71752522Y-50427259D01*
X71752544Y-50427279D01*
X71807326Y-50482061D01*
X71836687Y-50528787D01*
X71842117Y-50550343D01*
X71858211Y-50651951D01*
X71897148Y-50771785D01*
X71897149Y-50771788D01*
X71897150Y-50771789D01*
X71954353Y-50884057D01*
X72028407Y-50985984D01*
X72028411Y-50985989D01*
X72117510Y-51075088D01*
X72117515Y-51075092D01*
X72219442Y-51149146D01*
X72219444Y-51149147D01*
X72219447Y-51149149D01*
X72331715Y-51206352D01*
X72451549Y-51245289D01*
X72575999Y-51265000D01*
X72576000Y-51265000D01*
X72702000Y-51265000D01*
X72702001Y-51265000D01*
X72826451Y-51245289D01*
X72946285Y-51206352D01*
X73058553Y-51149149D01*
X73160491Y-51075087D01*
X73249587Y-50985991D01*
X73323649Y-50884053D01*
X73380852Y-50771785D01*
X73419789Y-50651951D01*
X73439500Y-50527501D01*
X73439500Y-50401499D01*
X73419789Y-50277049D01*
X73380852Y-50157215D01*
X73323649Y-50044947D01*
X73323647Y-50044944D01*
X73323646Y-50044942D01*
X73249592Y-49943015D01*
X73249588Y-49943010D01*
X73160489Y-49853911D01*
X73160484Y-49853907D01*
X73058557Y-49779853D01*
X72946289Y-49722650D01*
X72946288Y-49722649D01*
X72946285Y-49722648D01*
X72826451Y-49683711D01*
X72826446Y-49683710D01*
X72821817Y-49682206D01*
X72822044Y-49681506D01*
X72777085Y-49659219D01*
X72743173Y-49615683D01*
X72731500Y-49563161D01*
X72731500Y-47964872D01*
X72743780Y-47911070D01*
X72778187Y-47867925D01*
X72827907Y-47843981D01*
X72883093Y-47843981D01*
X72902954Y-47850311D01*
X72982232Y-47883149D01*
X73146839Y-47927255D01*
X73315786Y-47949499D01*
X73315801Y-47949500D01*
X73486199Y-47949500D01*
X73486213Y-47949499D01*
X73655160Y-47927255D01*
X73819770Y-47883149D01*
X73977205Y-47817937D01*
X73977216Y-47817932D01*
X74124785Y-47732732D01*
X74128119Y-47730172D01*
X73446277Y-47048330D01*
X73517676Y-47034128D01*
X73590471Y-47003975D01*
X73655985Y-46960200D01*
X73711700Y-46904485D01*
X73755475Y-46838971D01*
X73785628Y-46766176D01*
X73799830Y-46694777D01*
X74481672Y-47376619D01*
X74481673Y-47376619D01*
X74484230Y-47373288D01*
X74484231Y-47373288D01*
X74569432Y-47225716D01*
X74569437Y-47225705D01*
X74634649Y-47068270D01*
X74678755Y-46903660D01*
X74700999Y-46734713D01*
X74701000Y-46734699D01*
X74701000Y-46564300D01*
X74700999Y-46564286D01*
X74678755Y-46395339D01*
X74634649Y-46230729D01*
X74569437Y-46073294D01*
X74569432Y-46073283D01*
X74484229Y-45925708D01*
X74481673Y-45922379D01*
X73799830Y-46604221D01*
X73785628Y-46532824D01*
X73755475Y-46460029D01*
X73711700Y-46394515D01*
X73655985Y-46338800D01*
X73590471Y-46295025D01*
X73517676Y-46264872D01*
X73446276Y-46250669D01*
X74128120Y-45568825D01*
X74124791Y-45566270D01*
X74124784Y-45566266D01*
X73977216Y-45481067D01*
X73977205Y-45481062D01*
X73819770Y-45415850D01*
X73655160Y-45371744D01*
X73486213Y-45349500D01*
X73315786Y-45349500D01*
X73146839Y-45371744D01*
X72982229Y-45415850D01*
X72902953Y-45448688D01*
X72848547Y-45457932D01*
X72795519Y-45442655D01*
X72754370Y-45405882D01*
X72733252Y-45354898D01*
X72731500Y-45334127D01*
X72731500Y-40345413D01*
X72743780Y-40291611D01*
X72778187Y-40248466D01*
X72827907Y-40224522D01*
X72883093Y-40224522D01*
X72902941Y-40230848D01*
X72982071Y-40263625D01*
X73146741Y-40307748D01*
X73307623Y-40328928D01*
X73311955Y-40329499D01*
X73315761Y-40330000D01*
X73315768Y-40330000D01*
X73486232Y-40330000D01*
X73486239Y-40330000D01*
X73655259Y-40307748D01*
X73819929Y-40263625D01*
X73977430Y-40198385D01*
X74125069Y-40113146D01*
X74260319Y-40009365D01*
X74380865Y-39888819D01*
X74484646Y-39753569D01*
X74569885Y-39605930D01*
X74635125Y-39448429D01*
X74656157Y-39369934D01*
X74681942Y-39321146D01*
X74726343Y-39288376D01*
X74780566Y-39278116D01*
X74833871Y-39292398D01*
G37*
%TD.AperFunction*%
%TA.AperFunction,Conductor*%
G36*
X82415412Y-28036219D02*
G01*
X82432107Y-28036969D01*
X82441984Y-28042283D01*
X82452920Y-28044780D01*
X82465985Y-28055199D01*
X82480703Y-28063119D01*
X82487296Y-28072194D01*
X82496065Y-28079187D01*
X82503315Y-28094242D01*
X82513140Y-28107765D01*
X82515142Y-28118802D01*
X82520009Y-28128907D01*
X82520009Y-28145618D01*
X82522993Y-28162063D01*
X82520009Y-28172875D01*
X82520009Y-28184093D01*
X82512758Y-28199149D01*
X82508312Y-28215260D01*
X82500924Y-28223722D01*
X82496065Y-28233813D01*
X82472180Y-28256648D01*
X82472083Y-28256758D01*
X82283104Y-28394061D01*
X82281300Y-28395601D01*
X82281290Y-28395609D01*
X82085895Y-28562492D01*
X82085881Y-28562505D01*
X81902505Y-28745881D01*
X81902492Y-28745895D01*
X81734066Y-28943097D01*
X81734055Y-28943111D01*
X81581618Y-29152923D01*
X81581611Y-29152934D01*
X81446114Y-29374044D01*
X81446107Y-29374055D01*
X81328359Y-29605149D01*
X81229107Y-29844764D01*
X81154448Y-30074542D01*
X81148965Y-30091419D01*
X81088420Y-30343607D01*
X81047848Y-30599768D01*
X81027500Y-30858323D01*
X81027500Y-31117677D01*
X81047848Y-31376232D01*
X81088420Y-31632393D01*
X81148965Y-31884581D01*
X81148969Y-31884592D01*
X81229107Y-32131235D01*
X81296562Y-32294085D01*
X81328360Y-32370853D01*
X81372500Y-32457482D01*
X81446107Y-32601944D01*
X81446114Y-32601955D01*
X81563018Y-32792724D01*
X81581617Y-32823075D01*
X81734061Y-33032896D01*
X81902498Y-33230111D01*
X82085889Y-33413502D01*
X82283104Y-33581939D01*
X82492925Y-33734383D01*
X82615057Y-33809225D01*
X82714044Y-33869885D01*
X82714055Y-33869892D01*
X82714061Y-33869895D01*
X82945147Y-33987640D01*
X83184759Y-34086890D01*
X83184764Y-34086892D01*
X83247478Y-34107268D01*
X83431419Y-34167035D01*
X83683607Y-34227580D01*
X83939768Y-34268152D01*
X84198323Y-34288500D01*
X84198331Y-34288500D01*
X84457669Y-34288500D01*
X84457677Y-34288500D01*
X84716232Y-34268152D01*
X84972393Y-34227580D01*
X85224581Y-34167035D01*
X85471241Y-34086890D01*
X85710853Y-33987640D01*
X85941939Y-33869895D01*
X86163075Y-33734383D01*
X86372896Y-33581939D01*
X86570111Y-33413502D01*
X86753502Y-33230111D01*
X86921939Y-33032896D01*
X87059182Y-32843996D01*
X87100740Y-32807688D01*
X87153937Y-32793007D01*
X87208235Y-32802860D01*
X87252881Y-32835297D01*
X87279031Y-32883893D01*
X87283500Y-32916882D01*
X87283500Y-102211117D01*
X87271220Y-102264919D01*
X87236813Y-102308064D01*
X87187093Y-102332008D01*
X87131907Y-102332008D01*
X87082187Y-102308064D01*
X87059182Y-102284002D01*
X86921944Y-102095111D01*
X86921939Y-102095104D01*
X86753502Y-101897889D01*
X86570111Y-101714498D01*
X86372896Y-101546061D01*
X86163075Y-101393617D01*
X86061432Y-101331330D01*
X85941955Y-101258114D01*
X85941944Y-101258107D01*
X85824350Y-101198190D01*
X85710853Y-101140360D01*
X85585277Y-101088345D01*
X85471235Y-101041107D01*
X85295739Y-100984085D01*
X85224581Y-100960965D01*
X84972393Y-100900420D01*
X84972387Y-100900419D01*
X84716233Y-100859848D01*
X84457682Y-100839500D01*
X84457677Y-100839500D01*
X84198323Y-100839500D01*
X84198317Y-100839500D01*
X83939767Y-100859848D01*
X83939766Y-100859848D01*
X83683612Y-100900419D01*
X83683609Y-100900419D01*
X83683607Y-100900420D01*
X83593293Y-100922102D01*
X83431430Y-100960962D01*
X83431424Y-100960963D01*
X83431419Y-100960965D01*
X83431407Y-100960969D01*
X83184764Y-101041107D01*
X82945149Y-101140359D01*
X82714055Y-101258107D01*
X82714044Y-101258114D01*
X82492934Y-101393611D01*
X82492923Y-101393618D01*
X82283111Y-101546055D01*
X82283097Y-101546066D01*
X82085895Y-101714492D01*
X82085881Y-101714505D01*
X81902505Y-101897881D01*
X81902492Y-101897895D01*
X81734066Y-102095097D01*
X81734055Y-102095111D01*
X81581618Y-102304923D01*
X81581611Y-102304934D01*
X81446114Y-102526044D01*
X81446107Y-102526055D01*
X81328359Y-102757149D01*
X81229107Y-102996764D01*
X81154448Y-103226542D01*
X81148965Y-103243419D01*
X81088420Y-103495607D01*
X81047848Y-103751768D01*
X81027500Y-104010323D01*
X81027500Y-104269677D01*
X81047848Y-104528232D01*
X81088420Y-104784393D01*
X81148965Y-105036581D01*
X81148969Y-105036592D01*
X81229107Y-105283235D01*
X81296562Y-105446085D01*
X81328360Y-105522853D01*
X81372500Y-105609482D01*
X81446107Y-105753944D01*
X81446114Y-105753955D01*
X81563018Y-105944724D01*
X81581617Y-105975075D01*
X81734061Y-106184896D01*
X81902498Y-106382111D01*
X82085889Y-106565502D01*
X82283104Y-106733939D01*
X82283111Y-106733944D01*
X82472003Y-106871182D01*
X82508312Y-106912740D01*
X82522993Y-106965937D01*
X82513140Y-107020235D01*
X82480703Y-107064881D01*
X82432107Y-107091031D01*
X82399118Y-107095500D01*
X43076882Y-107095500D01*
X43023080Y-107083220D01*
X42979935Y-107048813D01*
X42955991Y-106999093D01*
X42955991Y-106943907D01*
X42979935Y-106894187D01*
X43003997Y-106871182D01*
X43192896Y-106733939D01*
X43390111Y-106565502D01*
X43573502Y-106382111D01*
X43741939Y-106184896D01*
X43894383Y-105975075D01*
X44029895Y-105753939D01*
X44147640Y-105522853D01*
X44246890Y-105283241D01*
X44327035Y-105036581D01*
X44387580Y-104784393D01*
X44428152Y-104528232D01*
X44448500Y-104269677D01*
X44448500Y-104010323D01*
X44428152Y-103751768D01*
X44387580Y-103495607D01*
X44327035Y-103243419D01*
X44246890Y-102996759D01*
X44147640Y-102757147D01*
X44029895Y-102526061D01*
X44029892Y-102526055D01*
X44029885Y-102526044D01*
X43910979Y-102332008D01*
X43894383Y-102304925D01*
X43741939Y-102095104D01*
X43573502Y-101897889D01*
X43390111Y-101714498D01*
X43192896Y-101546061D01*
X42983075Y-101393617D01*
X42881432Y-101331330D01*
X42761955Y-101258114D01*
X42761944Y-101258107D01*
X42644350Y-101198190D01*
X42530853Y-101140360D01*
X42405277Y-101088345D01*
X42291235Y-101041107D01*
X42115739Y-100984085D01*
X42044581Y-100960965D01*
X41792393Y-100900420D01*
X41792387Y-100900419D01*
X41536233Y-100859848D01*
X41277682Y-100839500D01*
X41277677Y-100839500D01*
X41018323Y-100839500D01*
X41018317Y-100839500D01*
X40759767Y-100859848D01*
X40759766Y-100859848D01*
X40503612Y-100900419D01*
X40503609Y-100900419D01*
X40503607Y-100900420D01*
X40413293Y-100922102D01*
X40251430Y-100960962D01*
X40251424Y-100960963D01*
X40251419Y-100960965D01*
X40251407Y-100960969D01*
X40004764Y-101041107D01*
X39765149Y-101140359D01*
X39534055Y-101258107D01*
X39534044Y-101258114D01*
X39312934Y-101393611D01*
X39312923Y-101393618D01*
X39103111Y-101546055D01*
X39103097Y-101546066D01*
X38905895Y-101714492D01*
X38905881Y-101714505D01*
X38722505Y-101897881D01*
X38722492Y-101897895D01*
X38554066Y-102095097D01*
X38554055Y-102095111D01*
X38416818Y-102284002D01*
X38375260Y-102320311D01*
X38322063Y-102334992D01*
X38267765Y-102325138D01*
X38223119Y-102292701D01*
X38196969Y-102244105D01*
X38192500Y-102211117D01*
X38192500Y-99224026D01*
X47845000Y-99224026D01*
X47845000Y-99867500D01*
X48760700Y-99867500D01*
X48751906Y-99880661D01*
X48714215Y-99971655D01*
X48695000Y-100068254D01*
X48695000Y-100166746D01*
X48714215Y-100263345D01*
X48751906Y-100354339D01*
X48760700Y-100367500D01*
X47845000Y-100367500D01*
X47845000Y-101010973D01*
X47846656Y-101035401D01*
X47872903Y-101140941D01*
X47921224Y-101238371D01*
X47989361Y-101323137D01*
X47989362Y-101323138D01*
X48074128Y-101391275D01*
X48171558Y-101439596D01*
X48277100Y-101465843D01*
X48277096Y-101465843D01*
X48301526Y-101467500D01*
X48945000Y-101467500D01*
X48945000Y-100551800D01*
X48958161Y-100560594D01*
X49049155Y-100598285D01*
X49145754Y-100617500D01*
X49244246Y-100617500D01*
X49340845Y-100598285D01*
X49431839Y-100560594D01*
X49445000Y-100551800D01*
X49445000Y-101467500D01*
X50088474Y-101467500D01*
X50112901Y-101465843D01*
X50218441Y-101439596D01*
X50315871Y-101391275D01*
X50400637Y-101323138D01*
X50400638Y-101323137D01*
X50468775Y-101238371D01*
X50517096Y-101140940D01*
X50530176Y-101088345D01*
X50555077Y-101039097D01*
X50598879Y-101005530D01*
X50652908Y-100994292D01*
X50706462Y-101007610D01*
X50738192Y-101030588D01*
X50842634Y-101135030D01*
X50842642Y-101135037D01*
X50842643Y-101135038D01*
X50849579Y-101140360D01*
X50983081Y-101242801D01*
X50983084Y-101242803D01*
X50983092Y-101242809D01*
X51136407Y-101331326D01*
X51136410Y-101331327D01*
X51136415Y-101331330D01*
X51299956Y-101399070D01*
X51299958Y-101399070D01*
X51299964Y-101399073D01*
X51470965Y-101444893D01*
X51602604Y-101462223D01*
X51646483Y-101468000D01*
X51646484Y-101468000D01*
X51823517Y-101468000D01*
X51858619Y-101463378D01*
X51999035Y-101444893D01*
X52170036Y-101399073D01*
X52214162Y-101380795D01*
X52333584Y-101331330D01*
X52333585Y-101331328D01*
X52333593Y-101331326D01*
X52486908Y-101242809D01*
X52627357Y-101135038D01*
X52627361Y-101135033D01*
X52627366Y-101135030D01*
X52752530Y-101009866D01*
X52752533Y-101009861D01*
X52752538Y-101009857D01*
X52860309Y-100869408D01*
X52897613Y-100804796D01*
X52935149Y-100764342D01*
X52986519Y-100744181D01*
X53041550Y-100748305D01*
X53089342Y-100775898D01*
X53112387Y-100804796D01*
X53132423Y-100839500D01*
X53149690Y-100869407D01*
X53149698Y-100869418D01*
X53257462Y-101009857D01*
X53257470Y-101009866D01*
X53382634Y-101135030D01*
X53382642Y-101135037D01*
X53382643Y-101135038D01*
X53389579Y-101140360D01*
X53523081Y-101242801D01*
X53523084Y-101242803D01*
X53523092Y-101242809D01*
X53676407Y-101331326D01*
X53676410Y-101331327D01*
X53676415Y-101331330D01*
X53839956Y-101399070D01*
X53839958Y-101399070D01*
X53839964Y-101399073D01*
X54010965Y-101444893D01*
X54142604Y-101462223D01*
X54186483Y-101468000D01*
X54186484Y-101468000D01*
X54363517Y-101468000D01*
X54398619Y-101463378D01*
X54539035Y-101444893D01*
X54710036Y-101399073D01*
X54754162Y-101380795D01*
X54873584Y-101331330D01*
X54873585Y-101331328D01*
X54873593Y-101331326D01*
X55026908Y-101242809D01*
X55167357Y-101135038D01*
X55167361Y-101135033D01*
X55167366Y-101135030D01*
X55292530Y-101009866D01*
X55292533Y-101009861D01*
X55292538Y-101009857D01*
X55400309Y-100869408D01*
X55437613Y-100804796D01*
X55475149Y-100764342D01*
X55526519Y-100744181D01*
X55581550Y-100748305D01*
X55629342Y-100775898D01*
X55652387Y-100804796D01*
X55672423Y-100839500D01*
X55689690Y-100869407D01*
X55689698Y-100869418D01*
X55797462Y-101009857D01*
X55797470Y-101009866D01*
X55922634Y-101135030D01*
X55922642Y-101135037D01*
X55922643Y-101135038D01*
X55929579Y-101140360D01*
X56063081Y-101242801D01*
X56063084Y-101242803D01*
X56063092Y-101242809D01*
X56216407Y-101331326D01*
X56216410Y-101331327D01*
X56216415Y-101331330D01*
X56379956Y-101399070D01*
X56379958Y-101399070D01*
X56379964Y-101399073D01*
X56550965Y-101444893D01*
X56682604Y-101462223D01*
X56726483Y-101468000D01*
X56726484Y-101468000D01*
X56903517Y-101468000D01*
X56938619Y-101463378D01*
X57079035Y-101444893D01*
X57250036Y-101399073D01*
X57294162Y-101380795D01*
X57413584Y-101331330D01*
X57413585Y-101331328D01*
X57413593Y-101331326D01*
X57566908Y-101242809D01*
X57707357Y-101135038D01*
X57707361Y-101135033D01*
X57707366Y-101135030D01*
X57832530Y-101009866D01*
X57832533Y-101009861D01*
X57832538Y-101009857D01*
X57940309Y-100869408D01*
X58028826Y-100716093D01*
X58096573Y-100552536D01*
X58142393Y-100381535D01*
X58165500Y-100206016D01*
X58165500Y-100028984D01*
X58142393Y-99853465D01*
X58096573Y-99682464D01*
X58096570Y-99682456D01*
X58028830Y-99518915D01*
X58028825Y-99518906D01*
X57940309Y-99365592D01*
X57832538Y-99225143D01*
X57832537Y-99225142D01*
X57832530Y-99225134D01*
X57707366Y-99099970D01*
X57707357Y-99099962D01*
X57566918Y-98992198D01*
X57566912Y-98992194D01*
X57566908Y-98992191D01*
X57413593Y-98903674D01*
X57413584Y-98903669D01*
X57250043Y-98835929D01*
X57098799Y-98795403D01*
X57079035Y-98790107D01*
X57079034Y-98790106D01*
X57079031Y-98790106D01*
X56903517Y-98767000D01*
X56903516Y-98767000D01*
X56726484Y-98767000D01*
X56726483Y-98767000D01*
X56550968Y-98790106D01*
X56379956Y-98835929D01*
X56216415Y-98903669D01*
X56216406Y-98903674D01*
X56063092Y-98992191D01*
X56063081Y-98992198D01*
X55922642Y-99099962D01*
X55797462Y-99225142D01*
X55689698Y-99365581D01*
X55689690Y-99365593D01*
X55652387Y-99430204D01*
X55614851Y-99470657D01*
X55563480Y-99490818D01*
X55508449Y-99486694D01*
X55460658Y-99459101D01*
X55437613Y-99430204D01*
X55436645Y-99428528D01*
X55400309Y-99365592D01*
X55292538Y-99225143D01*
X55292537Y-99225142D01*
X55292530Y-99225134D01*
X55167366Y-99099970D01*
X55167357Y-99099962D01*
X55026918Y-98992198D01*
X55026912Y-98992194D01*
X55026908Y-98992191D01*
X54873593Y-98903674D01*
X54873584Y-98903669D01*
X54710043Y-98835929D01*
X54558799Y-98795403D01*
X54539035Y-98790107D01*
X54539034Y-98790106D01*
X54539031Y-98790106D01*
X54363517Y-98767000D01*
X54363516Y-98767000D01*
X54186484Y-98767000D01*
X54186483Y-98767000D01*
X54010968Y-98790106D01*
X53839956Y-98835929D01*
X53676415Y-98903669D01*
X53676406Y-98903674D01*
X53523092Y-98992191D01*
X53523081Y-98992198D01*
X53382642Y-99099962D01*
X53257462Y-99225142D01*
X53149698Y-99365581D01*
X53149690Y-99365593D01*
X53112387Y-99430204D01*
X53074851Y-99470657D01*
X53023480Y-99490818D01*
X52968449Y-99486694D01*
X52920658Y-99459101D01*
X52897613Y-99430204D01*
X52896645Y-99428528D01*
X52860309Y-99365592D01*
X52752538Y-99225143D01*
X52752537Y-99225142D01*
X52752530Y-99225134D01*
X52627366Y-99099970D01*
X52627357Y-99099962D01*
X52486918Y-98992198D01*
X52486912Y-98992194D01*
X52486908Y-98992191D01*
X52333593Y-98903674D01*
X52333584Y-98903669D01*
X52170043Y-98835929D01*
X52018799Y-98795403D01*
X51999035Y-98790107D01*
X51999034Y-98790106D01*
X51999031Y-98790106D01*
X51823517Y-98767000D01*
X51823516Y-98767000D01*
X51646484Y-98767000D01*
X51646483Y-98767000D01*
X51470968Y-98790106D01*
X51299956Y-98835929D01*
X51136415Y-98903669D01*
X51136406Y-98903674D01*
X50983092Y-98992191D01*
X50983081Y-98992198D01*
X50842642Y-99099962D01*
X50738192Y-99204412D01*
X50691465Y-99233772D01*
X50636627Y-99239950D01*
X50584539Y-99221723D01*
X50545517Y-99182701D01*
X50530176Y-99146655D01*
X50517096Y-99094059D01*
X50468775Y-98996628D01*
X50400638Y-98911862D01*
X50400637Y-98911861D01*
X50315871Y-98843724D01*
X50218441Y-98795403D01*
X50112899Y-98769156D01*
X50112903Y-98769156D01*
X50088474Y-98767500D01*
X49445000Y-98767500D01*
X49445000Y-99683199D01*
X49431839Y-99674406D01*
X49340845Y-99636715D01*
X49244246Y-99617500D01*
X49145754Y-99617500D01*
X49049155Y-99636715D01*
X48958161Y-99674406D01*
X48945000Y-99683199D01*
X48945000Y-98767500D01*
X48301526Y-98767500D01*
X48277098Y-98769156D01*
X48171558Y-98795403D01*
X48074128Y-98843724D01*
X47989362Y-98911861D01*
X47989361Y-98911862D01*
X47921224Y-98996628D01*
X47872903Y-99094058D01*
X47846656Y-99199598D01*
X47845000Y-99224026D01*
X38192500Y-99224026D01*
X38192500Y-90846753D01*
X40609500Y-90846753D01*
X40609500Y-91017246D01*
X40625372Y-91137801D01*
X40631752Y-91186259D01*
X40642488Y-91226326D01*
X40675873Y-91350924D01*
X40675874Y-91350928D01*
X40675875Y-91350929D01*
X40741115Y-91508430D01*
X40741117Y-91508433D01*
X40741120Y-91508440D01*
X40826353Y-91656068D01*
X40930133Y-91791317D01*
X40930139Y-91791324D01*
X41050675Y-91911860D01*
X41050682Y-91911866D01*
X41185931Y-92015646D01*
X41333559Y-92100879D01*
X41333561Y-92100880D01*
X41333570Y-92100885D01*
X41491071Y-92166125D01*
X41655741Y-92210248D01*
X41824761Y-92232500D01*
X41824768Y-92232500D01*
X41995232Y-92232500D01*
X41995239Y-92232500D01*
X42164259Y-92210248D01*
X42328929Y-92166125D01*
X42486430Y-92100885D01*
X42634069Y-92015646D01*
X42769319Y-91911865D01*
X42889865Y-91791319D01*
X42993646Y-91656069D01*
X43078885Y-91508430D01*
X43144125Y-91350929D01*
X43188248Y-91186259D01*
X43210500Y-91017239D01*
X43210500Y-90846761D01*
X43210499Y-90846753D01*
X48229500Y-90846753D01*
X48229500Y-91017246D01*
X48245372Y-91137801D01*
X48251752Y-91186259D01*
X48262488Y-91226326D01*
X48295873Y-91350924D01*
X48295874Y-91350928D01*
X48295875Y-91350929D01*
X48361115Y-91508430D01*
X48361117Y-91508433D01*
X48361120Y-91508440D01*
X48446353Y-91656068D01*
X48550133Y-91791317D01*
X48550139Y-91791324D01*
X48670675Y-91911860D01*
X48670682Y-91911866D01*
X48805931Y-92015646D01*
X48953559Y-92100879D01*
X48953561Y-92100880D01*
X48953570Y-92100885D01*
X49111071Y-92166125D01*
X49275741Y-92210248D01*
X49444761Y-92232500D01*
X49444768Y-92232500D01*
X49615232Y-92232500D01*
X49615239Y-92232500D01*
X49784259Y-92210248D01*
X49948929Y-92166125D01*
X50106430Y-92100885D01*
X50254069Y-92015646D01*
X50389319Y-91911865D01*
X50509865Y-91791319D01*
X50613646Y-91656069D01*
X50698885Y-91508430D01*
X50764125Y-91350929D01*
X50808248Y-91186259D01*
X50830500Y-91017239D01*
X50830500Y-90846761D01*
X50808248Y-90677741D01*
X50764125Y-90513071D01*
X50698885Y-90355570D01*
X50653254Y-90276535D01*
X50613646Y-90207931D01*
X50509866Y-90072682D01*
X50509860Y-90072675D01*
X50389324Y-89952139D01*
X50389317Y-89952133D01*
X50254068Y-89848353D01*
X50106440Y-89763120D01*
X50106433Y-89763117D01*
X50106434Y-89763117D01*
X50106430Y-89763115D01*
X49948929Y-89697875D01*
X49948928Y-89697874D01*
X49948924Y-89697873D01*
X49852228Y-89671964D01*
X49784259Y-89653752D01*
X49756010Y-89650033D01*
X49615246Y-89631500D01*
X49615239Y-89631500D01*
X49444761Y-89631500D01*
X49444753Y-89631500D01*
X49283878Y-89652680D01*
X49275741Y-89653752D01*
X49247010Y-89661450D01*
X49111075Y-89697873D01*
X49032320Y-89730495D01*
X48953570Y-89763115D01*
X48953567Y-89763116D01*
X48953566Y-89763117D01*
X48953559Y-89763120D01*
X48805931Y-89848353D01*
X48670682Y-89952133D01*
X48670675Y-89952139D01*
X48550139Y-90072675D01*
X48550133Y-90072682D01*
X48446353Y-90207931D01*
X48361120Y-90355559D01*
X48361117Y-90355566D01*
X48295873Y-90513075D01*
X48251753Y-90677738D01*
X48251751Y-90677749D01*
X48229500Y-90846753D01*
X43210499Y-90846753D01*
X43188248Y-90677741D01*
X43144125Y-90513071D01*
X43078885Y-90355570D01*
X43033254Y-90276535D01*
X42993646Y-90207931D01*
X42889866Y-90072682D01*
X42889860Y-90072675D01*
X42769324Y-89952139D01*
X42769317Y-89952133D01*
X42634068Y-89848353D01*
X42486440Y-89763120D01*
X42486433Y-89763117D01*
X42486434Y-89763117D01*
X42486430Y-89763115D01*
X42328929Y-89697875D01*
X42328928Y-89697874D01*
X42328924Y-89697873D01*
X42232228Y-89671964D01*
X42164259Y-89653752D01*
X42136010Y-89650033D01*
X41995246Y-89631500D01*
X41995239Y-89631500D01*
X41824761Y-89631500D01*
X41824753Y-89631500D01*
X41663878Y-89652680D01*
X41655741Y-89653752D01*
X41627010Y-89661450D01*
X41491075Y-89697873D01*
X41412320Y-89730495D01*
X41333570Y-89763115D01*
X41333567Y-89763116D01*
X41333566Y-89763117D01*
X41333559Y-89763120D01*
X41185931Y-89848353D01*
X41050682Y-89952133D01*
X41050675Y-89952139D01*
X40930139Y-90072675D01*
X40930133Y-90072682D01*
X40826353Y-90207931D01*
X40741120Y-90355559D01*
X40741117Y-90355566D01*
X40675873Y-90513075D01*
X40631753Y-90677738D01*
X40631751Y-90677749D01*
X40609500Y-90846753D01*
X38192500Y-90846753D01*
X38192500Y-62316942D01*
X40857500Y-62316942D01*
X40857500Y-63494057D01*
X40863743Y-63573381D01*
X40863744Y-63573387D01*
X40896750Y-63704372D01*
X40896751Y-63704375D01*
X40952620Y-63827376D01*
X41029556Y-63938425D01*
X41125074Y-64033943D01*
X41236123Y-64110879D01*
X41236124Y-64110879D01*
X41236125Y-64110880D01*
X41260917Y-64122141D01*
X41359120Y-64166747D01*
X41359121Y-64166747D01*
X41359123Y-64166748D01*
X41463802Y-64193125D01*
X41512968Y-64218177D01*
X41546399Y-64262083D01*
X41557500Y-64313365D01*
X41557500Y-70232350D01*
X41557499Y-70232356D01*
X41557499Y-70350644D01*
X41576150Y-70444408D01*
X41577473Y-70451060D01*
X41577474Y-70451070D01*
X41580574Y-70466653D01*
X41580578Y-70466666D01*
X41625840Y-70575939D01*
X41625841Y-70575941D01*
X41691559Y-70674295D01*
X41691560Y-70674296D01*
X41691561Y-70674297D01*
X41775203Y-70757939D01*
X41775204Y-70757939D01*
X41782271Y-70765006D01*
X41782270Y-70765006D01*
X41782274Y-70765009D01*
X43559181Y-72541916D01*
X43588542Y-72588642D01*
X43595500Y-72629597D01*
X43595500Y-80799496D01*
X43583220Y-80853298D01*
X43548813Y-80896443D01*
X43499093Y-80920387D01*
X43443907Y-80920387D01*
X43394188Y-80896444D01*
X43339371Y-80852730D01*
X43196715Y-80763093D01*
X43044944Y-80690004D01*
X43044927Y-80689997D01*
X42885912Y-80634354D01*
X42885906Y-80634352D01*
X42721658Y-80596864D01*
X42721642Y-80596862D01*
X42554242Y-80578000D01*
X42385758Y-80578000D01*
X42218357Y-80596862D01*
X42218341Y-80596864D01*
X42054093Y-80634352D01*
X42054087Y-80634354D01*
X41895072Y-80689997D01*
X41895055Y-80690004D01*
X41743284Y-80763093D01*
X41600619Y-80852736D01*
X41599323Y-80853769D01*
X41599323Y-80853770D01*
X42299047Y-81553494D01*
X42209477Y-81590597D01*
X42119396Y-81650787D01*
X42042787Y-81727396D01*
X41982597Y-81817477D01*
X41945494Y-81907047D01*
X41245770Y-81207323D01*
X41245769Y-81207323D01*
X41244736Y-81208619D01*
X41155093Y-81351284D01*
X41082004Y-81503055D01*
X41081997Y-81503072D01*
X41026354Y-81662087D01*
X41026352Y-81662093D01*
X40988864Y-81826341D01*
X40988862Y-81826357D01*
X40970000Y-81993757D01*
X40970000Y-82162242D01*
X40988862Y-82329642D01*
X40988864Y-82329658D01*
X41026352Y-82493906D01*
X41026354Y-82493912D01*
X41081997Y-82652927D01*
X41082004Y-82652944D01*
X41155093Y-82804715D01*
X41244733Y-82947376D01*
X41244738Y-82947382D01*
X41245768Y-82948674D01*
X41245770Y-82948674D01*
X41945494Y-82248951D01*
X41982597Y-82338523D01*
X42042787Y-82428604D01*
X42119396Y-82505213D01*
X42209477Y-82565403D01*
X42299046Y-82602504D01*
X41599323Y-83302228D01*
X41600624Y-83303266D01*
X41600631Y-83303271D01*
X41743271Y-83392899D01*
X41743284Y-83392906D01*
X41895055Y-83465995D01*
X41895072Y-83466002D01*
X42054087Y-83521645D01*
X42054093Y-83521647D01*
X42218341Y-83559135D01*
X42218357Y-83559137D01*
X42385757Y-83577999D01*
X42385758Y-83578000D01*
X42554242Y-83578000D01*
X42554242Y-83577999D01*
X42721642Y-83559137D01*
X42721658Y-83559135D01*
X42885906Y-83521647D01*
X42885912Y-83521645D01*
X43044927Y-83466002D01*
X43044944Y-83465995D01*
X43196715Y-83392906D01*
X43339372Y-83303268D01*
X43394187Y-83259556D01*
X43443907Y-83235612D01*
X43499093Y-83235612D01*
X43548813Y-83259556D01*
X43583220Y-83302701D01*
X43595500Y-83356503D01*
X43595500Y-84551902D01*
X43583220Y-84605704D01*
X43559181Y-84639583D01*
X43073627Y-85125136D01*
X43026900Y-85154497D01*
X42972062Y-85160675D01*
X42944993Y-85154497D01*
X42886053Y-85133874D01*
X42886045Y-85133871D01*
X42721742Y-85096370D01*
X42721726Y-85096368D01*
X42554270Y-85077500D01*
X42554266Y-85077500D01*
X42385734Y-85077500D01*
X42385730Y-85077500D01*
X42218273Y-85096368D01*
X42218257Y-85096370D01*
X42053958Y-85133870D01*
X42053942Y-85133875D01*
X41894875Y-85189536D01*
X41894867Y-85189539D01*
X41743041Y-85262654D01*
X41600337Y-85352322D01*
X41468572Y-85457400D01*
X41349400Y-85576572D01*
X41244322Y-85708337D01*
X41154654Y-85851041D01*
X41081539Y-86002867D01*
X41081536Y-86002875D01*
X41025875Y-86161942D01*
X41025870Y-86161958D01*
X40988370Y-86326257D01*
X40988368Y-86326273D01*
X40969500Y-86493729D01*
X40969500Y-86662270D01*
X40988368Y-86829726D01*
X40988370Y-86829742D01*
X41025870Y-86994041D01*
X41025875Y-86994057D01*
X41081536Y-87153124D01*
X41081539Y-87153132D01*
X41154654Y-87304958D01*
X41197021Y-87372384D01*
X41244323Y-87447664D01*
X41296748Y-87513403D01*
X41339653Y-87567205D01*
X41349401Y-87579428D01*
X41468572Y-87698599D01*
X41600336Y-87803677D01*
X41709440Y-87872232D01*
X41743041Y-87893345D01*
X41894867Y-87966460D01*
X41894874Y-87966462D01*
X41894879Y-87966465D01*
X42008535Y-88006235D01*
X42053942Y-88022124D01*
X42053947Y-88022125D01*
X42053954Y-88022128D01*
X42218261Y-88059630D01*
X42385729Y-88078499D01*
X42385730Y-88078500D01*
X42385734Y-88078500D01*
X42554270Y-88078500D01*
X42554270Y-88078499D01*
X42721739Y-88059630D01*
X42886046Y-88022128D01*
X43045121Y-87966465D01*
X43045129Y-87966461D01*
X43045132Y-87966460D01*
X43196958Y-87893345D01*
X43196958Y-87893344D01*
X43196964Y-87893342D01*
X43339664Y-87803677D01*
X43471428Y-87698599D01*
X43590599Y-87579428D01*
X43695677Y-87447664D01*
X43785342Y-87304964D01*
X43812438Y-87248697D01*
X43846845Y-87205553D01*
X43896565Y-87181609D01*
X43924158Y-87178500D01*
X47515842Y-87178500D01*
X47569644Y-87190780D01*
X47612789Y-87225187D01*
X47627563Y-87248699D01*
X47654658Y-87304965D01*
X47704309Y-87383983D01*
X47744323Y-87447664D01*
X47796748Y-87513403D01*
X47839653Y-87567205D01*
X47849401Y-87579428D01*
X47968572Y-87698599D01*
X48100336Y-87803677D01*
X48209440Y-87872232D01*
X48243041Y-87893345D01*
X48394867Y-87966460D01*
X48394874Y-87966462D01*
X48394879Y-87966465D01*
X48508535Y-88006235D01*
X48553942Y-88022124D01*
X48553947Y-88022125D01*
X48553954Y-88022128D01*
X48718261Y-88059630D01*
X48885729Y-88078499D01*
X48885730Y-88078500D01*
X48885734Y-88078500D01*
X49054270Y-88078500D01*
X49054270Y-88078499D01*
X49221739Y-88059630D01*
X49386046Y-88022128D01*
X49545121Y-87966465D01*
X49545129Y-87966461D01*
X49545132Y-87966460D01*
X49696958Y-87893345D01*
X49696958Y-87893344D01*
X49696964Y-87893342D01*
X49839664Y-87803677D01*
X49971428Y-87698599D01*
X50090599Y-87579428D01*
X50195677Y-87447664D01*
X50285342Y-87304964D01*
X50331813Y-87208465D01*
X50358460Y-87153132D01*
X50358461Y-87153129D01*
X50358465Y-87153121D01*
X50414128Y-86994046D01*
X50451630Y-86829739D01*
X50470500Y-86662266D01*
X50470500Y-86493734D01*
X50451630Y-86326261D01*
X50414128Y-86161954D01*
X50358465Y-86002879D01*
X50358462Y-86002874D01*
X50358460Y-86002867D01*
X50285345Y-85851041D01*
X50268898Y-85824866D01*
X50195677Y-85708336D01*
X50090599Y-85576572D01*
X49971428Y-85457401D01*
X49839664Y-85352323D01*
X49696964Y-85262658D01*
X49696965Y-85262658D01*
X49696958Y-85262654D01*
X49545132Y-85189539D01*
X49545124Y-85189536D01*
X49386057Y-85133875D01*
X49386041Y-85133870D01*
X49221742Y-85096370D01*
X49221726Y-85096368D01*
X49054270Y-85077500D01*
X49054266Y-85077500D01*
X48885734Y-85077500D01*
X48885730Y-85077500D01*
X48718273Y-85096368D01*
X48718257Y-85096370D01*
X48553958Y-85133870D01*
X48553942Y-85133875D01*
X48394875Y-85189536D01*
X48394867Y-85189539D01*
X48243041Y-85262654D01*
X48100337Y-85352322D01*
X47968572Y-85457400D01*
X47849400Y-85576572D01*
X47744322Y-85708337D01*
X47654658Y-85851034D01*
X47627563Y-85907301D01*
X47593155Y-85950447D01*
X47543435Y-85974391D01*
X47515842Y-85977500D01*
X44219097Y-85977500D01*
X44165295Y-85965220D01*
X44122150Y-85930813D01*
X44098206Y-85881093D01*
X44098206Y-85825907D01*
X44122150Y-85776187D01*
X44131416Y-85765819D01*
X44439834Y-85457400D01*
X44578793Y-85318441D01*
X44578797Y-85318439D01*
X44662439Y-85234797D01*
X44728157Y-85136444D01*
X44728158Y-85136443D01*
X44773424Y-85027159D01*
X44796501Y-84911144D01*
X44796501Y-84792856D01*
X44796501Y-84787746D01*
X44796500Y-84787720D01*
X44796500Y-81993757D01*
X47470000Y-81993757D01*
X47470000Y-82162242D01*
X47488862Y-82329642D01*
X47488864Y-82329658D01*
X47526352Y-82493906D01*
X47526354Y-82493912D01*
X47581997Y-82652927D01*
X47582004Y-82652944D01*
X47655093Y-82804715D01*
X47744733Y-82947376D01*
X47744738Y-82947382D01*
X47745768Y-82948674D01*
X47745770Y-82948674D01*
X48445494Y-82248951D01*
X48482597Y-82338523D01*
X48542787Y-82428604D01*
X48619396Y-82505213D01*
X48709477Y-82565403D01*
X48799048Y-82602505D01*
X48099323Y-83302228D01*
X48100624Y-83303266D01*
X48100631Y-83303271D01*
X48243271Y-83392899D01*
X48243284Y-83392906D01*
X48395055Y-83465995D01*
X48395072Y-83466002D01*
X48554087Y-83521645D01*
X48554093Y-83521647D01*
X48718341Y-83559135D01*
X48718357Y-83559137D01*
X48885757Y-83577999D01*
X48885758Y-83578000D01*
X49054242Y-83578000D01*
X49054242Y-83577999D01*
X49221642Y-83559137D01*
X49221658Y-83559135D01*
X49385906Y-83521647D01*
X49385912Y-83521645D01*
X49544927Y-83466002D01*
X49544944Y-83465995D01*
X49696715Y-83392906D01*
X49839375Y-83303266D01*
X49839378Y-83303263D01*
X49840675Y-83302228D01*
X49140951Y-82602505D01*
X49230523Y-82565403D01*
X49320604Y-82505213D01*
X49397213Y-82428604D01*
X49457403Y-82338523D01*
X49494505Y-82248951D01*
X50194228Y-82948675D01*
X50195263Y-82947378D01*
X50195266Y-82947375D01*
X50284906Y-82804715D01*
X50357995Y-82652944D01*
X50358002Y-82652927D01*
X50413645Y-82493912D01*
X50413647Y-82493906D01*
X50451135Y-82329658D01*
X50451137Y-82329642D01*
X50469999Y-82162242D01*
X50470000Y-82162242D01*
X50470000Y-81993758D01*
X50469999Y-81993757D01*
X50451137Y-81826357D01*
X50451135Y-81826341D01*
X50413647Y-81662093D01*
X50413645Y-81662087D01*
X50358002Y-81503072D01*
X50357995Y-81503055D01*
X50284906Y-81351284D01*
X50284899Y-81351271D01*
X50195271Y-81208631D01*
X50195266Y-81208624D01*
X50194228Y-81207323D01*
X49494504Y-81907047D01*
X49457403Y-81817477D01*
X49397213Y-81727396D01*
X49320604Y-81650787D01*
X49230523Y-81590597D01*
X49140951Y-81553494D01*
X49840674Y-80853770D01*
X49840674Y-80853768D01*
X49839382Y-80852738D01*
X49839376Y-80852733D01*
X49696715Y-80763093D01*
X49544944Y-80690004D01*
X49544927Y-80689997D01*
X49385912Y-80634354D01*
X49385906Y-80634352D01*
X49221658Y-80596864D01*
X49221642Y-80596862D01*
X49054242Y-80578000D01*
X48885758Y-80578000D01*
X48718357Y-80596862D01*
X48718341Y-80596864D01*
X48554093Y-80634352D01*
X48554087Y-80634354D01*
X48395072Y-80689997D01*
X48395055Y-80690004D01*
X48243284Y-80763093D01*
X48100619Y-80852736D01*
X48099323Y-80853769D01*
X48099323Y-80853770D01*
X48799048Y-81553494D01*
X48709477Y-81590597D01*
X48619396Y-81650787D01*
X48542787Y-81727396D01*
X48482597Y-81817477D01*
X48445494Y-81907047D01*
X47745770Y-81207323D01*
X47745769Y-81207323D01*
X47744736Y-81208619D01*
X47655093Y-81351284D01*
X47582004Y-81503055D01*
X47581997Y-81503072D01*
X47526354Y-81662087D01*
X47526352Y-81662093D01*
X47488864Y-81826341D01*
X47488862Y-81826357D01*
X47470000Y-81993757D01*
X44796500Y-81993757D01*
X44796500Y-72270357D01*
X44790257Y-72238971D01*
X44773424Y-72154340D01*
X44729998Y-72049500D01*
X44728159Y-72045060D01*
X44728158Y-72045058D01*
X44662440Y-71946704D01*
X44629414Y-71913678D01*
X44578797Y-71863061D01*
X44578796Y-71863060D01*
X42794819Y-70079083D01*
X42765458Y-70032357D01*
X42758500Y-69991402D01*
X42758500Y-64313365D01*
X42770780Y-64259563D01*
X42805187Y-64216418D01*
X42852197Y-64193125D01*
X42956877Y-64166748D01*
X43079875Y-64110880D01*
X43190922Y-64033946D01*
X43286446Y-63938422D01*
X43363380Y-63827375D01*
X43419248Y-63704377D01*
X43419249Y-63704369D01*
X43421089Y-63699117D01*
X43421972Y-63699426D01*
X43444088Y-63655997D01*
X43487987Y-63622556D01*
X43542048Y-63611474D01*
X43595564Y-63624945D01*
X43637671Y-63659957D01*
X43718133Y-63764817D01*
X43718139Y-63764824D01*
X43838675Y-63885360D01*
X43838682Y-63885366D01*
X43973932Y-63989147D01*
X44004544Y-64006820D01*
X44035499Y-64024692D01*
X44075953Y-64062226D01*
X44096115Y-64113596D01*
X44097500Y-64132079D01*
X44097500Y-70572094D01*
X44097499Y-70572100D01*
X44097499Y-70690388D01*
X44110936Y-70757939D01*
X44112423Y-70765416D01*
X44112424Y-70765425D01*
X44120574Y-70806397D01*
X44120578Y-70806410D01*
X44165840Y-70915683D01*
X44165841Y-70915685D01*
X44231559Y-71014039D01*
X44231560Y-71014040D01*
X44231561Y-71014041D01*
X44315203Y-71097683D01*
X44315204Y-71097683D01*
X44322271Y-71104750D01*
X44322270Y-71104750D01*
X44322274Y-71104753D01*
X54453455Y-81235936D01*
X54453459Y-81235939D01*
X54551812Y-81301657D01*
X54551813Y-81301657D01*
X54551814Y-81301658D01*
X54551816Y-81301659D01*
X54636335Y-81336667D01*
X54661096Y-81346924D01*
X54777112Y-81370000D01*
X54895400Y-81370000D01*
X56995722Y-81370000D01*
X56995742Y-81370001D01*
X57001856Y-81370001D01*
X57120146Y-81370001D01*
X57120147Y-81370000D01*
X57236160Y-81346924D01*
X57345444Y-81301657D01*
X57443797Y-81235939D01*
X57527439Y-81152297D01*
X57527440Y-81152295D01*
X57534506Y-81145229D01*
X57534509Y-81145225D01*
X57718295Y-80961438D01*
X57765019Y-80932079D01*
X57819858Y-80925901D01*
X57838053Y-80929343D01*
X57906741Y-80947748D01*
X58067623Y-80968928D01*
X58071955Y-80969499D01*
X58075761Y-80970000D01*
X58075768Y-80970000D01*
X58246232Y-80970000D01*
X58246239Y-80970000D01*
X58415259Y-80947748D01*
X58579929Y-80903625D01*
X58737430Y-80838385D01*
X58885069Y-80753146D01*
X59020319Y-80649365D01*
X59140865Y-80528819D01*
X59244646Y-80393569D01*
X59323613Y-80256794D01*
X59361148Y-80216340D01*
X59412518Y-80196178D01*
X59467549Y-80200302D01*
X59515341Y-80227894D01*
X59538387Y-80256794D01*
X59617350Y-80393564D01*
X59617351Y-80393566D01*
X59721133Y-80528817D01*
X59721139Y-80528824D01*
X59841675Y-80649360D01*
X59841682Y-80649366D01*
X59976931Y-80753146D01*
X60124559Y-80838379D01*
X60124561Y-80838380D01*
X60124570Y-80838385D01*
X60282071Y-80903625D01*
X60446741Y-80947748D01*
X60607623Y-80968928D01*
X60611955Y-80969499D01*
X60615761Y-80970000D01*
X60615768Y-80970000D01*
X60786232Y-80970000D01*
X60786239Y-80970000D01*
X60955259Y-80947748D01*
X61119929Y-80903625D01*
X61277430Y-80838385D01*
X61425069Y-80753146D01*
X61560319Y-80649365D01*
X61680865Y-80528819D01*
X61784646Y-80393569D01*
X61863613Y-80256794D01*
X61901148Y-80216340D01*
X61952518Y-80196178D01*
X62007549Y-80200302D01*
X62055341Y-80227894D01*
X62078387Y-80256794D01*
X62157350Y-80393564D01*
X62157351Y-80393566D01*
X62261133Y-80528817D01*
X62261139Y-80528824D01*
X62381675Y-80649360D01*
X62381682Y-80649366D01*
X62516931Y-80753146D01*
X62664559Y-80838379D01*
X62664561Y-80838380D01*
X62664570Y-80838385D01*
X62822071Y-80903625D01*
X62986741Y-80947748D01*
X63147623Y-80968928D01*
X63151955Y-80969499D01*
X63155761Y-80970000D01*
X63155768Y-80970000D01*
X63326232Y-80970000D01*
X63326239Y-80970000D01*
X63495259Y-80947748D01*
X63659929Y-80903625D01*
X63817430Y-80838385D01*
X63965069Y-80753146D01*
X64100319Y-80649365D01*
X64220865Y-80528819D01*
X64324646Y-80393569D01*
X64403613Y-80256794D01*
X64441148Y-80216340D01*
X64492518Y-80196178D01*
X64547549Y-80200302D01*
X64595341Y-80227894D01*
X64618387Y-80256794D01*
X64697350Y-80393564D01*
X64697351Y-80393566D01*
X64801133Y-80528817D01*
X64801139Y-80528824D01*
X64921675Y-80649360D01*
X64921682Y-80649366D01*
X65056931Y-80753146D01*
X65204559Y-80838379D01*
X65204561Y-80838380D01*
X65204570Y-80838385D01*
X65362071Y-80903625D01*
X65526741Y-80947748D01*
X65687623Y-80968928D01*
X65691955Y-80969499D01*
X65695761Y-80970000D01*
X65695768Y-80970000D01*
X65866232Y-80970000D01*
X65866239Y-80970000D01*
X66035259Y-80947748D01*
X66199929Y-80903625D01*
X66357430Y-80838385D01*
X66505069Y-80753146D01*
X66640319Y-80649365D01*
X66760865Y-80528819D01*
X66864646Y-80393569D01*
X66943613Y-80256794D01*
X66981148Y-80216340D01*
X67032518Y-80196178D01*
X67087549Y-80200302D01*
X67135341Y-80227894D01*
X67158387Y-80256794D01*
X67237350Y-80393564D01*
X67237351Y-80393566D01*
X67341133Y-80528817D01*
X67341139Y-80528824D01*
X67461675Y-80649360D01*
X67461682Y-80649366D01*
X67596931Y-80753146D01*
X67744559Y-80838379D01*
X67744561Y-80838380D01*
X67744570Y-80838385D01*
X67902071Y-80903625D01*
X68066741Y-80947748D01*
X68227623Y-80968928D01*
X68231955Y-80969499D01*
X68235761Y-80970000D01*
X68235768Y-80970000D01*
X68406232Y-80970000D01*
X68406239Y-80970000D01*
X68575259Y-80947748D01*
X68739929Y-80903625D01*
X68897430Y-80838385D01*
X69045069Y-80753146D01*
X69180319Y-80649365D01*
X69300865Y-80528819D01*
X69404646Y-80393569D01*
X69483613Y-80256794D01*
X69521148Y-80216340D01*
X69572518Y-80196178D01*
X69627549Y-80200302D01*
X69675341Y-80227894D01*
X69698387Y-80256794D01*
X69777350Y-80393564D01*
X69777351Y-80393566D01*
X69881133Y-80528817D01*
X69881139Y-80528824D01*
X70001675Y-80649360D01*
X70001682Y-80649366D01*
X70136931Y-80753146D01*
X70284559Y-80838379D01*
X70284561Y-80838380D01*
X70284570Y-80838385D01*
X70442071Y-80903625D01*
X70606741Y-80947748D01*
X70767623Y-80968928D01*
X70771955Y-80969499D01*
X70775761Y-80970000D01*
X70775768Y-80970000D01*
X70946232Y-80970000D01*
X70946239Y-80970000D01*
X71115259Y-80947748D01*
X71279929Y-80903625D01*
X71437430Y-80838385D01*
X71585069Y-80753146D01*
X71720319Y-80649365D01*
X71735332Y-80634352D01*
X71755150Y-80614535D01*
X71840860Y-80528824D01*
X71840865Y-80528819D01*
X71944646Y-80393569D01*
X72023902Y-80256292D01*
X72061436Y-80215841D01*
X72112806Y-80195679D01*
X72167837Y-80199803D01*
X72215629Y-80227395D01*
X72238675Y-80256294D01*
X72317766Y-80393284D01*
X72317770Y-80393291D01*
X72320325Y-80396620D01*
X73002169Y-79714776D01*
X73016372Y-79786176D01*
X73046525Y-79858971D01*
X73090300Y-79924485D01*
X73146015Y-79980200D01*
X73211529Y-80023975D01*
X73284324Y-80054128D01*
X73355722Y-80068330D01*
X72673879Y-80750173D01*
X72677208Y-80752729D01*
X72824783Y-80837932D01*
X72824794Y-80837937D01*
X72982229Y-80903149D01*
X73146839Y-80947255D01*
X73315786Y-80969499D01*
X73315801Y-80969500D01*
X73486199Y-80969500D01*
X73486213Y-80969499D01*
X73655160Y-80947255D01*
X73819770Y-80903149D01*
X73977205Y-80837937D01*
X73977216Y-80837932D01*
X74124788Y-80752731D01*
X74124788Y-80752730D01*
X74128119Y-80750173D01*
X74128119Y-80750172D01*
X73446277Y-80068330D01*
X73517676Y-80054128D01*
X73590471Y-80023975D01*
X73655985Y-79980200D01*
X73711700Y-79924485D01*
X73755475Y-79858971D01*
X73785628Y-79786176D01*
X73799830Y-79714777D01*
X74491158Y-80406105D01*
X74500893Y-80407667D01*
X74546193Y-80439184D01*
X74573332Y-80487235D01*
X74578500Y-80522661D01*
X74578500Y-89032220D01*
X74578499Y-89032246D01*
X74578499Y-89155648D01*
X74601574Y-89271652D01*
X74601577Y-89271664D01*
X74646840Y-89380939D01*
X74646841Y-89380941D01*
X74712560Y-89479296D01*
X74712563Y-89479300D01*
X74800522Y-89567259D01*
X74800544Y-89567279D01*
X82328181Y-97094916D01*
X82357542Y-97141642D01*
X82364500Y-97182597D01*
X82364500Y-98526013D01*
X82364501Y-98526023D01*
X82366157Y-98550461D01*
X82366157Y-98550463D01*
X82392431Y-98656114D01*
X82392432Y-98656115D01*
X82440800Y-98753642D01*
X82506943Y-98835927D01*
X82509006Y-98838494D01*
X82593857Y-98906699D01*
X82691387Y-98955069D01*
X82771176Y-98974911D01*
X82797029Y-98981341D01*
X82797030Y-98981341D01*
X82797034Y-98981342D01*
X82821483Y-98983000D01*
X84608516Y-98982999D01*
X84632966Y-98981342D01*
X84738613Y-98955069D01*
X84836143Y-98906699D01*
X84920994Y-98838494D01*
X84989199Y-98753643D01*
X85037569Y-98656113D01*
X85063842Y-98550466D01*
X85065500Y-98526017D01*
X85065499Y-96738984D01*
X85063842Y-96714534D01*
X85037569Y-96608887D01*
X84989199Y-96511357D01*
X84920994Y-96426506D01*
X84836143Y-96358301D01*
X84836142Y-96358300D01*
X84738615Y-96309932D01*
X84738609Y-96309929D01*
X84686254Y-96296909D01*
X84637007Y-96272007D01*
X84603441Y-96228204D01*
X84592205Y-96174175D01*
X84605524Y-96120621D01*
X84628498Y-96088896D01*
X84732538Y-95984857D01*
X84840309Y-95844408D01*
X84928826Y-95691093D01*
X84996573Y-95527536D01*
X85042393Y-95356535D01*
X85065500Y-95181016D01*
X85065500Y-95003984D01*
X85042393Y-94828465D01*
X84996573Y-94657464D01*
X84995840Y-94655694D01*
X84928830Y-94493915D01*
X84928825Y-94493906D01*
X84840309Y-94340592D01*
X84732538Y-94200143D01*
X84732537Y-94200142D01*
X84732530Y-94200134D01*
X84607366Y-94074970D01*
X84607357Y-94074962D01*
X84466918Y-93967198D01*
X84466900Y-93967186D01*
X84402296Y-93929887D01*
X84361842Y-93892351D01*
X84341681Y-93840981D01*
X84345805Y-93785950D01*
X84373398Y-93738158D01*
X84402296Y-93715113D01*
X84403861Y-93714209D01*
X84466908Y-93677809D01*
X84607357Y-93570038D01*
X84607361Y-93570033D01*
X84607366Y-93570030D01*
X84732530Y-93444866D01*
X84732533Y-93444861D01*
X84732538Y-93444857D01*
X84840309Y-93304408D01*
X84928826Y-93151093D01*
X84996573Y-92987536D01*
X85042393Y-92816535D01*
X85065500Y-92641016D01*
X85065500Y-92463984D01*
X85042393Y-92288465D01*
X84996573Y-92117464D01*
X84996570Y-92117456D01*
X84928830Y-91953915D01*
X84928825Y-91953906D01*
X84904553Y-91911866D01*
X84840309Y-91800592D01*
X84833197Y-91791324D01*
X84732537Y-91660142D01*
X84732530Y-91660134D01*
X84607366Y-91534970D01*
X84607357Y-91534962D01*
X84466918Y-91427198D01*
X84466900Y-91427186D01*
X84402296Y-91389887D01*
X84361842Y-91352351D01*
X84341681Y-91300981D01*
X84345805Y-91245950D01*
X84373398Y-91198158D01*
X84402296Y-91175113D01*
X84403861Y-91174209D01*
X84466908Y-91137809D01*
X84607357Y-91030038D01*
X84607361Y-91030033D01*
X84607366Y-91030030D01*
X84732530Y-90904866D01*
X84732533Y-90904861D01*
X84732538Y-90904857D01*
X84840309Y-90764408D01*
X84928826Y-90611093D01*
X84996573Y-90447536D01*
X85042393Y-90276535D01*
X85065500Y-90101016D01*
X85065500Y-89923984D01*
X85042393Y-89748465D01*
X84996573Y-89577464D01*
X84995840Y-89575694D01*
X84928830Y-89413915D01*
X84928825Y-89413906D01*
X84840309Y-89260592D01*
X84732538Y-89120143D01*
X84732537Y-89120142D01*
X84732530Y-89120134D01*
X84607366Y-88994970D01*
X84607357Y-88994962D01*
X84466918Y-88887198D01*
X84466900Y-88887186D01*
X84402296Y-88849887D01*
X84361842Y-88812351D01*
X84341681Y-88760981D01*
X84345805Y-88705950D01*
X84373398Y-88658158D01*
X84402296Y-88635113D01*
X84403861Y-88634209D01*
X84466908Y-88597809D01*
X84607357Y-88490038D01*
X84607361Y-88490033D01*
X84607366Y-88490030D01*
X84732530Y-88364866D01*
X84732533Y-88364861D01*
X84732538Y-88364857D01*
X84840309Y-88224408D01*
X84928826Y-88071093D01*
X84949108Y-88022129D01*
X84996570Y-87907543D01*
X84996569Y-87907543D01*
X84996573Y-87907536D01*
X85042393Y-87736535D01*
X85065500Y-87561016D01*
X85065500Y-87383984D01*
X85042393Y-87208465D01*
X84996573Y-87037464D01*
X84996570Y-87037456D01*
X84928830Y-86873915D01*
X84928825Y-86873906D01*
X84903325Y-86829739D01*
X84840309Y-86720592D01*
X84732538Y-86580143D01*
X84732537Y-86580142D01*
X84732530Y-86580134D01*
X84607366Y-86454970D01*
X84607357Y-86454962D01*
X84466918Y-86347198D01*
X84466900Y-86347186D01*
X84402296Y-86309887D01*
X84361842Y-86272351D01*
X84341681Y-86220981D01*
X84345805Y-86165950D01*
X84373398Y-86118158D01*
X84402296Y-86095113D01*
X84403861Y-86094209D01*
X84466908Y-86057809D01*
X84607357Y-85950038D01*
X84607361Y-85950033D01*
X84607366Y-85950030D01*
X84732530Y-85824866D01*
X84732533Y-85824861D01*
X84732538Y-85824857D01*
X84840309Y-85684408D01*
X84928826Y-85531093D01*
X84959351Y-85457400D01*
X84996570Y-85367543D01*
X84996569Y-85367543D01*
X84996573Y-85367536D01*
X85042393Y-85196535D01*
X85065500Y-85021016D01*
X85065500Y-84843984D01*
X85042393Y-84668465D01*
X84996573Y-84497464D01*
X84996570Y-84497456D01*
X84928830Y-84333915D01*
X84928825Y-84333906D01*
X84840309Y-84180592D01*
X84732538Y-84040143D01*
X84732537Y-84040142D01*
X84732530Y-84040134D01*
X84607366Y-83914970D01*
X84607357Y-83914962D01*
X84466918Y-83807198D01*
X84466900Y-83807186D01*
X84402296Y-83769887D01*
X84361842Y-83732351D01*
X84341681Y-83680981D01*
X84345805Y-83625950D01*
X84373398Y-83578158D01*
X84402296Y-83555113D01*
X84403861Y-83554209D01*
X84466908Y-83517809D01*
X84607357Y-83410038D01*
X84607361Y-83410033D01*
X84607366Y-83410030D01*
X84732530Y-83284866D01*
X84732533Y-83284861D01*
X84732538Y-83284857D01*
X84840309Y-83144408D01*
X84928826Y-82991093D01*
X84946397Y-82948674D01*
X84996570Y-82827543D01*
X84996569Y-82827543D01*
X84996573Y-82827536D01*
X85042393Y-82656535D01*
X85065500Y-82481016D01*
X85065500Y-82303984D01*
X85042393Y-82128465D01*
X84996573Y-81957464D01*
X84980049Y-81917571D01*
X84928830Y-81793915D01*
X84928825Y-81793906D01*
X84840309Y-81640592D01*
X84732538Y-81500143D01*
X84732537Y-81500142D01*
X84732530Y-81500134D01*
X84607366Y-81374970D01*
X84607357Y-81374962D01*
X84466918Y-81267198D01*
X84466900Y-81267186D01*
X84402296Y-81229887D01*
X84361842Y-81192351D01*
X84341681Y-81140981D01*
X84345805Y-81085950D01*
X84373398Y-81038158D01*
X84402296Y-81015113D01*
X84403861Y-81014209D01*
X84466908Y-80977809D01*
X84607357Y-80870038D01*
X84607361Y-80870033D01*
X84607366Y-80870030D01*
X84732530Y-80744866D01*
X84732533Y-80744861D01*
X84732538Y-80744857D01*
X84840309Y-80604408D01*
X84928826Y-80451093D01*
X84946814Y-80407667D01*
X84996570Y-80287543D01*
X84996569Y-80287543D01*
X84996573Y-80287536D01*
X85042393Y-80116535D01*
X85065500Y-79941016D01*
X85065500Y-79763984D01*
X85042393Y-79588465D01*
X84996573Y-79417464D01*
X84996570Y-79417456D01*
X84928830Y-79253915D01*
X84928825Y-79253906D01*
X84926900Y-79250571D01*
X84840309Y-79100592D01*
X84834537Y-79093070D01*
X84732537Y-78960142D01*
X84732530Y-78960134D01*
X84607366Y-78834970D01*
X84607357Y-78834962D01*
X84466918Y-78727198D01*
X84466900Y-78727186D01*
X84402296Y-78689887D01*
X84361842Y-78652351D01*
X84341681Y-78600981D01*
X84345805Y-78545950D01*
X84373398Y-78498158D01*
X84402296Y-78475113D01*
X84403861Y-78474209D01*
X84466908Y-78437809D01*
X84607357Y-78330038D01*
X84607361Y-78330033D01*
X84607366Y-78330030D01*
X84732530Y-78204866D01*
X84732533Y-78204861D01*
X84732538Y-78204857D01*
X84840309Y-78064408D01*
X84928826Y-77911093D01*
X84996573Y-77747536D01*
X85042393Y-77576535D01*
X85065500Y-77401016D01*
X85065500Y-77223984D01*
X85042393Y-77048465D01*
X84996573Y-76877464D01*
X84995223Y-76874204D01*
X84928830Y-76713915D01*
X84928825Y-76713906D01*
X84840309Y-76560592D01*
X84732538Y-76420143D01*
X84732537Y-76420142D01*
X84732530Y-76420134D01*
X84607366Y-76294970D01*
X84607357Y-76294962D01*
X84466918Y-76187198D01*
X84466900Y-76187186D01*
X84402296Y-76149887D01*
X84361842Y-76112351D01*
X84341681Y-76060981D01*
X84345805Y-76005950D01*
X84373398Y-75958158D01*
X84402296Y-75935113D01*
X84403861Y-75934209D01*
X84466908Y-75897809D01*
X84607357Y-75790038D01*
X84607361Y-75790033D01*
X84607366Y-75790030D01*
X84732530Y-75664866D01*
X84732533Y-75664861D01*
X84732538Y-75664857D01*
X84840309Y-75524408D01*
X84928826Y-75371093D01*
X84996573Y-75207536D01*
X85042393Y-75036535D01*
X85065500Y-74861016D01*
X85065500Y-74683984D01*
X85042393Y-74508465D01*
X84996573Y-74337464D01*
X84996570Y-74337456D01*
X84928830Y-74173915D01*
X84928825Y-74173906D01*
X84840309Y-74020592D01*
X84732538Y-73880143D01*
X84732537Y-73880142D01*
X84732530Y-73880134D01*
X84607366Y-73754970D01*
X84607357Y-73754962D01*
X84466918Y-73647198D01*
X84466900Y-73647186D01*
X84402296Y-73609887D01*
X84361842Y-73572351D01*
X84341681Y-73520981D01*
X84345805Y-73465950D01*
X84373398Y-73418158D01*
X84402296Y-73395113D01*
X84403861Y-73394209D01*
X84466908Y-73357809D01*
X84607357Y-73250038D01*
X84607361Y-73250033D01*
X84607366Y-73250030D01*
X84732530Y-73124866D01*
X84732533Y-73124861D01*
X84732538Y-73124857D01*
X84840309Y-72984408D01*
X84928826Y-72831093D01*
X84952654Y-72773568D01*
X84996570Y-72667543D01*
X84996569Y-72667543D01*
X84996573Y-72667536D01*
X85042393Y-72496535D01*
X85065500Y-72321016D01*
X85065500Y-72143984D01*
X85064790Y-72138594D01*
X85052476Y-72045056D01*
X85042393Y-71968465D01*
X84996573Y-71797464D01*
X84995840Y-71795694D01*
X84928830Y-71633915D01*
X84928825Y-71633906D01*
X84926900Y-71630571D01*
X84840309Y-71480592D01*
X84834537Y-71473070D01*
X84732537Y-71340142D01*
X84732530Y-71340134D01*
X84607366Y-71214970D01*
X84607357Y-71214962D01*
X84466918Y-71107198D01*
X84466900Y-71107186D01*
X84402296Y-71069887D01*
X84361842Y-71032351D01*
X84341681Y-70980981D01*
X84345805Y-70925950D01*
X84373398Y-70878158D01*
X84402296Y-70855113D01*
X84421021Y-70844302D01*
X84466908Y-70817809D01*
X84607357Y-70710038D01*
X84607361Y-70710033D01*
X84607366Y-70710030D01*
X84732530Y-70584866D01*
X84732533Y-70584861D01*
X84732538Y-70584857D01*
X84840309Y-70444408D01*
X84928826Y-70291093D01*
X84929797Y-70288750D01*
X84996570Y-70127543D01*
X84996569Y-70127543D01*
X84996573Y-70127536D01*
X85042393Y-69956535D01*
X85065500Y-69781016D01*
X85065500Y-69603984D01*
X85042393Y-69428465D01*
X84996573Y-69257464D01*
X84996570Y-69257456D01*
X84928830Y-69093915D01*
X84928825Y-69093906D01*
X84840309Y-68940592D01*
X84732538Y-68800143D01*
X84732537Y-68800142D01*
X84732530Y-68800134D01*
X84607366Y-68674970D01*
X84607357Y-68674962D01*
X84466918Y-68567198D01*
X84466900Y-68567186D01*
X84402296Y-68529887D01*
X84361842Y-68492351D01*
X84341681Y-68440981D01*
X84345805Y-68385950D01*
X84373398Y-68338158D01*
X84402296Y-68315113D01*
X84403861Y-68314209D01*
X84466908Y-68277809D01*
X84607357Y-68170038D01*
X84607361Y-68170033D01*
X84607366Y-68170030D01*
X84732530Y-68044866D01*
X84732533Y-68044861D01*
X84732538Y-68044857D01*
X84840309Y-67904408D01*
X84928826Y-67751093D01*
X84942327Y-67718500D01*
X84996570Y-67587543D01*
X84996569Y-67587543D01*
X84996573Y-67587536D01*
X85042393Y-67416535D01*
X85065500Y-67241016D01*
X85065500Y-67063984D01*
X85062353Y-67040083D01*
X85051067Y-66954352D01*
X85042393Y-66888465D01*
X84996573Y-66717464D01*
X84961195Y-66632053D01*
X84928830Y-66553915D01*
X84928825Y-66553906D01*
X84840309Y-66400592D01*
X84839817Y-66399951D01*
X84732537Y-66260142D01*
X84732530Y-66260134D01*
X84607366Y-66134970D01*
X84607357Y-66134962D01*
X84466918Y-66027198D01*
X84466900Y-66027186D01*
X84402296Y-65989887D01*
X84361842Y-65952351D01*
X84341681Y-65900981D01*
X84345805Y-65845950D01*
X84373398Y-65798158D01*
X84402296Y-65775113D01*
X84403861Y-65774209D01*
X84466908Y-65737809D01*
X84607357Y-65630038D01*
X84607361Y-65630033D01*
X84607366Y-65630030D01*
X84732530Y-65504866D01*
X84732533Y-65504861D01*
X84732538Y-65504857D01*
X84840309Y-65364408D01*
X84928826Y-65211093D01*
X84996573Y-65047536D01*
X85042393Y-64876535D01*
X85065500Y-64701016D01*
X85065500Y-64523984D01*
X85042393Y-64348465D01*
X84996573Y-64177464D01*
X84992268Y-64167070D01*
X84928830Y-64013915D01*
X84928825Y-64013906D01*
X84840309Y-63860592D01*
X84814821Y-63827376D01*
X84766818Y-63764817D01*
X84732538Y-63720143D01*
X84732537Y-63720142D01*
X84732530Y-63720134D01*
X84607366Y-63594970D01*
X84607357Y-63594962D01*
X84466918Y-63487198D01*
X84466900Y-63487186D01*
X84402296Y-63449887D01*
X84361842Y-63412351D01*
X84341681Y-63360981D01*
X84345805Y-63305950D01*
X84373398Y-63258158D01*
X84402296Y-63235113D01*
X84435054Y-63216200D01*
X84466908Y-63197809D01*
X84607357Y-63090038D01*
X84607361Y-63090033D01*
X84607366Y-63090030D01*
X84732530Y-62964866D01*
X84732533Y-62964861D01*
X84732538Y-62964857D01*
X84840309Y-62824408D01*
X84928826Y-62671093D01*
X84932282Y-62662751D01*
X84996570Y-62507543D01*
X84996569Y-62507543D01*
X84996573Y-62507536D01*
X85042393Y-62336535D01*
X85065500Y-62161016D01*
X85065500Y-61983984D01*
X85065452Y-61983623D01*
X85058835Y-61933359D01*
X85042393Y-61808465D01*
X84996573Y-61637464D01*
X84992547Y-61627744D01*
X84928830Y-61473915D01*
X84928825Y-61473906D01*
X84840309Y-61320592D01*
X84732538Y-61180143D01*
X84732537Y-61180142D01*
X84732530Y-61180134D01*
X84607366Y-61054970D01*
X84607357Y-61054962D01*
X84466918Y-60947198D01*
X84466900Y-60947186D01*
X84402296Y-60909887D01*
X84361842Y-60872351D01*
X84341681Y-60820981D01*
X84345805Y-60765950D01*
X84373398Y-60718158D01*
X84402296Y-60695113D01*
X84403861Y-60694209D01*
X84466908Y-60657809D01*
X84607357Y-60550038D01*
X84607361Y-60550033D01*
X84607366Y-60550030D01*
X84732530Y-60424866D01*
X84732533Y-60424861D01*
X84732538Y-60424857D01*
X84840309Y-60284408D01*
X84928826Y-60131093D01*
X84996573Y-59967536D01*
X85042393Y-59796535D01*
X85065500Y-59621016D01*
X85065500Y-59443984D01*
X85042393Y-59268465D01*
X84996573Y-59097464D01*
X84996570Y-59097456D01*
X84928830Y-58933915D01*
X84928825Y-58933906D01*
X84840309Y-58780592D01*
X84732538Y-58640143D01*
X84732537Y-58640142D01*
X84732530Y-58640134D01*
X84607366Y-58514970D01*
X84607357Y-58514962D01*
X84466918Y-58407198D01*
X84466900Y-58407186D01*
X84402296Y-58369887D01*
X84361842Y-58332351D01*
X84341681Y-58280981D01*
X84345805Y-58225950D01*
X84373398Y-58178158D01*
X84402296Y-58155113D01*
X84403861Y-58154209D01*
X84466908Y-58117809D01*
X84607357Y-58010038D01*
X84607361Y-58010033D01*
X84607366Y-58010030D01*
X84732530Y-57884866D01*
X84732533Y-57884861D01*
X84732538Y-57884857D01*
X84840309Y-57744408D01*
X84928826Y-57591093D01*
X84996573Y-57427536D01*
X85042393Y-57256535D01*
X85065500Y-57081016D01*
X85065500Y-56903984D01*
X85042393Y-56728465D01*
X84996573Y-56557464D01*
X84991554Y-56545347D01*
X84928830Y-56393915D01*
X84928825Y-56393906D01*
X84914530Y-56369146D01*
X84840309Y-56240592D01*
X84732538Y-56100143D01*
X84732537Y-56100142D01*
X84732530Y-56100134D01*
X84607366Y-55974970D01*
X84607357Y-55974962D01*
X84466918Y-55867198D01*
X84466900Y-55867186D01*
X84402296Y-55829887D01*
X84361842Y-55792351D01*
X84341681Y-55740981D01*
X84345805Y-55685950D01*
X84373398Y-55638158D01*
X84402296Y-55615113D01*
X84403861Y-55614209D01*
X84466908Y-55577809D01*
X84607357Y-55470038D01*
X84607361Y-55470033D01*
X84607366Y-55470030D01*
X84732530Y-55344866D01*
X84732533Y-55344861D01*
X84732538Y-55344857D01*
X84840309Y-55204408D01*
X84928826Y-55051093D01*
X84996573Y-54887536D01*
X85042393Y-54716535D01*
X85065500Y-54541016D01*
X85065500Y-54363984D01*
X85042393Y-54188465D01*
X84996573Y-54017464D01*
X84992344Y-54007254D01*
X84928830Y-53853915D01*
X84928825Y-53853906D01*
X84921627Y-53841438D01*
X84840309Y-53700592D01*
X84732538Y-53560143D01*
X84732537Y-53560142D01*
X84732530Y-53560134D01*
X84607366Y-53434970D01*
X84607357Y-53434962D01*
X84466918Y-53327198D01*
X84466900Y-53327186D01*
X84402296Y-53289887D01*
X84361842Y-53252351D01*
X84341681Y-53200981D01*
X84345805Y-53145950D01*
X84373398Y-53098158D01*
X84402296Y-53075113D01*
X84403861Y-53074209D01*
X84466908Y-53037809D01*
X84607357Y-52930038D01*
X84607361Y-52930033D01*
X84607366Y-52930030D01*
X84732530Y-52804866D01*
X84732533Y-52804861D01*
X84732538Y-52804857D01*
X84840309Y-52664408D01*
X84928826Y-52511093D01*
X84957994Y-52440676D01*
X84996570Y-52347543D01*
X84996569Y-52347543D01*
X84996573Y-52347536D01*
X85042393Y-52176535D01*
X85065500Y-52001016D01*
X85065500Y-51823984D01*
X85042393Y-51648465D01*
X84996573Y-51477464D01*
X84991276Y-51464675D01*
X84928830Y-51313915D01*
X84928825Y-51313906D01*
X84900589Y-51265000D01*
X84840309Y-51160592D01*
X84836453Y-51155567D01*
X84752189Y-51045753D01*
X84732538Y-51020143D01*
X84732537Y-51020142D01*
X84732530Y-51020134D01*
X84607366Y-50894970D01*
X84607357Y-50894962D01*
X84466918Y-50787198D01*
X84466900Y-50787186D01*
X84402296Y-50749887D01*
X84361842Y-50712351D01*
X84341681Y-50660981D01*
X84345805Y-50605950D01*
X84373398Y-50558158D01*
X84402296Y-50535113D01*
X84415482Y-50527500D01*
X84466908Y-50497809D01*
X84607357Y-50390038D01*
X84607361Y-50390033D01*
X84607366Y-50390030D01*
X84732530Y-50264866D01*
X84732533Y-50264861D01*
X84732538Y-50264857D01*
X84840309Y-50124408D01*
X84928826Y-49971093D01*
X84929972Y-49968328D01*
X84996570Y-49807543D01*
X84996569Y-49807543D01*
X84996573Y-49807536D01*
X85042393Y-49636535D01*
X85065500Y-49461016D01*
X85065500Y-49283984D01*
X85042393Y-49108465D01*
X84996573Y-48937464D01*
X84984638Y-48908650D01*
X84928830Y-48773915D01*
X84928825Y-48773906D01*
X84889755Y-48706235D01*
X84840309Y-48620592D01*
X84732538Y-48480143D01*
X84732537Y-48480142D01*
X84732530Y-48480134D01*
X84607366Y-48354970D01*
X84607357Y-48354962D01*
X84466918Y-48247198D01*
X84466900Y-48247186D01*
X84402296Y-48209887D01*
X84361842Y-48172351D01*
X84341681Y-48120981D01*
X84345805Y-48065950D01*
X84373398Y-48018158D01*
X84402296Y-47995113D01*
X84414659Y-47987975D01*
X84466908Y-47957809D01*
X84607357Y-47850038D01*
X84607361Y-47850033D01*
X84607366Y-47850030D01*
X84732530Y-47724866D01*
X84732533Y-47724861D01*
X84732538Y-47724857D01*
X84840309Y-47584408D01*
X84928826Y-47431093D01*
X84933556Y-47419675D01*
X84996570Y-47267543D01*
X84996569Y-47267543D01*
X84996573Y-47267536D01*
X85042393Y-47096535D01*
X85065500Y-46921016D01*
X85065500Y-46743984D01*
X85064790Y-46738594D01*
X85053061Y-46649499D01*
X85042393Y-46568465D01*
X84996573Y-46397464D01*
X84995693Y-46395339D01*
X84928830Y-46233915D01*
X84928825Y-46233906D01*
X84926900Y-46230571D01*
X84840309Y-46080592D01*
X84834537Y-46073070D01*
X84732537Y-45940142D01*
X84732530Y-45940134D01*
X84607366Y-45814970D01*
X84607357Y-45814962D01*
X84466918Y-45707198D01*
X84466900Y-45707186D01*
X84402296Y-45669887D01*
X84361842Y-45632351D01*
X84341681Y-45580981D01*
X84345805Y-45525950D01*
X84373398Y-45478158D01*
X84402296Y-45455113D01*
X84421336Y-45444120D01*
X84466908Y-45417809D01*
X84607357Y-45310038D01*
X84607361Y-45310033D01*
X84607366Y-45310030D01*
X84732530Y-45184866D01*
X84732533Y-45184861D01*
X84732538Y-45184857D01*
X84840309Y-45044408D01*
X84928826Y-44891093D01*
X84996573Y-44727536D01*
X85042393Y-44556535D01*
X85065500Y-44381016D01*
X85065500Y-44203984D01*
X85042393Y-44028465D01*
X84996573Y-43857464D01*
X84996570Y-43857456D01*
X84928830Y-43693915D01*
X84928825Y-43693906D01*
X84918367Y-43675792D01*
X84840309Y-43540592D01*
X84825025Y-43520674D01*
X84755448Y-43430000D01*
X84732538Y-43400143D01*
X84732537Y-43400142D01*
X84732530Y-43400134D01*
X84607366Y-43274970D01*
X84607357Y-43274962D01*
X84466918Y-43167198D01*
X84466900Y-43167186D01*
X84402296Y-43129887D01*
X84361842Y-43092351D01*
X84341681Y-43040981D01*
X84345805Y-42985950D01*
X84373398Y-42938158D01*
X84402296Y-42915113D01*
X84403861Y-42914209D01*
X84466908Y-42877809D01*
X84607357Y-42770038D01*
X84607361Y-42770033D01*
X84607366Y-42770030D01*
X84732530Y-42644866D01*
X84732533Y-42644861D01*
X84732538Y-42644857D01*
X84840309Y-42504408D01*
X84928826Y-42351093D01*
X84996573Y-42187536D01*
X85042393Y-42016535D01*
X85065500Y-41841016D01*
X85065500Y-41663984D01*
X85042393Y-41488465D01*
X84996573Y-41317464D01*
X84996570Y-41317456D01*
X84928830Y-41153915D01*
X84928825Y-41153906D01*
X84840309Y-41000592D01*
X84732538Y-40860143D01*
X84732537Y-40860142D01*
X84732530Y-40860134D01*
X84607366Y-40734970D01*
X84607357Y-40734962D01*
X84466918Y-40627198D01*
X84466900Y-40627186D01*
X84402296Y-40589887D01*
X84361842Y-40552351D01*
X84341681Y-40500981D01*
X84345805Y-40445950D01*
X84373398Y-40398158D01*
X84402296Y-40375113D01*
X84412477Y-40369235D01*
X84466908Y-40337809D01*
X84607357Y-40230038D01*
X84607361Y-40230033D01*
X84607366Y-40230030D01*
X84732530Y-40104866D01*
X84732533Y-40104861D01*
X84732538Y-40104857D01*
X84840309Y-39964408D01*
X84928826Y-39811093D01*
X84952654Y-39753568D01*
X84996570Y-39647543D01*
X84996569Y-39647543D01*
X84996573Y-39647536D01*
X85042393Y-39476535D01*
X85065500Y-39301016D01*
X85065500Y-39123984D01*
X85042393Y-38948465D01*
X84996573Y-38777464D01*
X84995656Y-38775249D01*
X84928830Y-38613915D01*
X84928825Y-38613906D01*
X84926900Y-38610571D01*
X84840309Y-38460592D01*
X84834537Y-38453070D01*
X84732537Y-38320142D01*
X84732530Y-38320134D01*
X84607366Y-38194970D01*
X84607357Y-38194962D01*
X84466918Y-38087198D01*
X84466912Y-38087194D01*
X84466908Y-38087191D01*
X84313593Y-37998674D01*
X84313584Y-37998669D01*
X84150043Y-37930929D01*
X83979031Y-37885106D01*
X83803517Y-37862000D01*
X83803516Y-37862000D01*
X83626484Y-37862000D01*
X83626483Y-37862000D01*
X83450968Y-37885106D01*
X83279956Y-37930929D01*
X83116415Y-37998669D01*
X83116406Y-37998674D01*
X82963092Y-38087191D01*
X82963081Y-38087198D01*
X82822642Y-38194962D01*
X82697462Y-38320142D01*
X82589698Y-38460581D01*
X82589691Y-38460592D01*
X82501174Y-38613906D01*
X82501169Y-38613915D01*
X82433429Y-38777456D01*
X82387606Y-38948468D01*
X82364500Y-39123983D01*
X82364500Y-39301016D01*
X82383906Y-39448429D01*
X82387607Y-39476535D01*
X82422279Y-39605933D01*
X82433429Y-39647543D01*
X82501169Y-39811084D01*
X82501174Y-39811093D01*
X82589691Y-39964408D01*
X82589694Y-39964412D01*
X82589698Y-39964418D01*
X82697462Y-40104857D01*
X82697470Y-40104866D01*
X82822634Y-40230030D01*
X82822642Y-40230037D01*
X82963081Y-40337801D01*
X82963085Y-40337803D01*
X82963092Y-40337809D01*
X83017523Y-40369235D01*
X83027704Y-40375113D01*
X83068157Y-40412649D01*
X83088318Y-40464020D01*
X83084194Y-40519051D01*
X83056601Y-40566842D01*
X83027704Y-40589887D01*
X82963093Y-40627190D01*
X82963081Y-40627198D01*
X82822642Y-40734962D01*
X82697462Y-40860142D01*
X82589698Y-41000581D01*
X82589691Y-41000592D01*
X82501174Y-41153906D01*
X82501169Y-41153915D01*
X82433429Y-41317456D01*
X82387606Y-41488468D01*
X82364500Y-41663983D01*
X82364500Y-41841016D01*
X82387606Y-42016531D01*
X82433429Y-42187543D01*
X82501169Y-42351084D01*
X82501174Y-42351093D01*
X82589691Y-42504408D01*
X82589694Y-42504412D01*
X82589698Y-42504418D01*
X82697462Y-42644857D01*
X82697470Y-42644866D01*
X82822634Y-42770030D01*
X82822642Y-42770037D01*
X82963081Y-42877801D01*
X82963085Y-42877803D01*
X82963092Y-42877809D01*
X83026028Y-42914145D01*
X83027704Y-42915113D01*
X83068157Y-42952649D01*
X83088318Y-43004020D01*
X83084194Y-43059051D01*
X83056601Y-43106842D01*
X83027704Y-43129887D01*
X82963093Y-43167190D01*
X82963081Y-43167198D01*
X82822642Y-43274962D01*
X82697462Y-43400142D01*
X82589698Y-43540581D01*
X82589691Y-43540592D01*
X82501174Y-43693906D01*
X82501169Y-43693915D01*
X82433429Y-43857456D01*
X82387606Y-44028468D01*
X82364500Y-44203983D01*
X82364500Y-44381016D01*
X82383408Y-44524644D01*
X82387607Y-44556535D01*
X82432907Y-44725597D01*
X82433429Y-44727543D01*
X82501169Y-44891084D01*
X82501174Y-44891093D01*
X82589691Y-45044408D01*
X82589694Y-45044412D01*
X82589698Y-45044418D01*
X82697462Y-45184857D01*
X82697470Y-45184866D01*
X82822634Y-45310030D01*
X82822642Y-45310037D01*
X82963081Y-45417801D01*
X82963085Y-45417803D01*
X82963092Y-45417809D01*
X83008664Y-45444120D01*
X83027704Y-45455113D01*
X83068157Y-45492649D01*
X83088318Y-45544020D01*
X83084194Y-45599051D01*
X83056601Y-45646842D01*
X83027704Y-45669887D01*
X82963093Y-45707190D01*
X82963081Y-45707198D01*
X82822642Y-45814962D01*
X82697462Y-45940142D01*
X82589698Y-46080581D01*
X82589691Y-46080592D01*
X82501174Y-46233906D01*
X82501169Y-46233915D01*
X82433429Y-46397456D01*
X82387606Y-46568468D01*
X82364500Y-46743983D01*
X82364500Y-46873403D01*
X82352220Y-46927205D01*
X82317813Y-46970350D01*
X82268093Y-46994294D01*
X82212907Y-46994294D01*
X82163187Y-46970350D01*
X82152819Y-46961084D01*
X78355819Y-43164084D01*
X78326458Y-43117358D01*
X78319500Y-43076403D01*
X78319500Y-39564299D01*
X78317885Y-39556178D01*
X78296424Y-39448282D01*
X78269405Y-39383053D01*
X78251159Y-39339002D01*
X78251158Y-39339000D01*
X78239228Y-39321146D01*
X78214732Y-39284485D01*
X78185440Y-39240646D01*
X78163765Y-39218971D01*
X78101797Y-39157003D01*
X78101796Y-39157002D01*
X75133566Y-36188773D01*
X75133564Y-36188770D01*
X75133564Y-36188771D01*
X75126497Y-36181704D01*
X75126497Y-36181703D01*
X75042855Y-36098061D01*
X75042854Y-36098060D01*
X75042853Y-36098059D01*
X74944499Y-36032341D01*
X74944497Y-36032340D01*
X74835222Y-35987077D01*
X74835210Y-35987074D01*
X74719205Y-35963999D01*
X74719202Y-35963999D01*
X74600914Y-35963999D01*
X74594800Y-35963999D01*
X74594780Y-35964000D01*
X63106856Y-35964000D01*
X63048848Y-35975538D01*
X62990839Y-35987076D01*
X62990833Y-35987078D01*
X62881560Y-36032340D01*
X62881558Y-36032341D01*
X62783204Y-36098059D01*
X62741383Y-36139881D01*
X62699561Y-36181703D01*
X62699558Y-36181706D01*
X61143705Y-37737558D01*
X61096979Y-37766919D01*
X61042140Y-37773097D01*
X61023931Y-37769652D01*
X60955269Y-37751254D01*
X60955262Y-37751252D01*
X60955259Y-37751252D01*
X60917699Y-37746307D01*
X60786246Y-37729000D01*
X60786239Y-37729000D01*
X60615761Y-37729000D01*
X60615753Y-37729000D01*
X60454878Y-37750180D01*
X60446741Y-37751252D01*
X60418010Y-37758950D01*
X60282075Y-37795373D01*
X60203320Y-37827995D01*
X60124570Y-37860615D01*
X60124567Y-37860616D01*
X60124566Y-37860617D01*
X60124559Y-37860620D01*
X59976931Y-37945853D01*
X59841682Y-38049633D01*
X59841675Y-38049639D01*
X59721139Y-38170175D01*
X59721133Y-38170182D01*
X59617353Y-38305431D01*
X59538098Y-38442705D01*
X59500562Y-38483159D01*
X59449192Y-38503320D01*
X59394161Y-38499196D01*
X59346369Y-38471603D01*
X59323324Y-38442705D01*
X59244229Y-38305708D01*
X59241673Y-38302379D01*
X58559830Y-38984221D01*
X58545628Y-38912824D01*
X58515475Y-38840029D01*
X58471700Y-38774515D01*
X58415985Y-38718800D01*
X58350471Y-38675025D01*
X58277676Y-38644872D01*
X58206275Y-38630669D01*
X58888120Y-37948825D01*
X58884791Y-37946270D01*
X58884784Y-37946266D01*
X58737216Y-37861067D01*
X58737205Y-37861062D01*
X58579770Y-37795850D01*
X58415160Y-37751744D01*
X58246213Y-37729500D01*
X58075786Y-37729500D01*
X57906839Y-37751744D01*
X57742229Y-37795850D01*
X57584794Y-37861062D01*
X57584783Y-37861067D01*
X57437210Y-37946269D01*
X57433878Y-37948825D01*
X58115722Y-38630669D01*
X58044324Y-38644872D01*
X57971529Y-38675025D01*
X57906015Y-38718800D01*
X57850300Y-38774515D01*
X57806525Y-38840029D01*
X57776372Y-38912824D01*
X57762169Y-38984222D01*
X57080325Y-38302378D01*
X57077772Y-38305707D01*
X56998675Y-38442706D01*
X56961139Y-38483159D01*
X56909769Y-38503320D01*
X56854738Y-38499196D01*
X56806946Y-38471603D01*
X56783901Y-38442705D01*
X56704646Y-38305431D01*
X56600866Y-38170182D01*
X56600860Y-38170175D01*
X56480324Y-38049639D01*
X56480317Y-38049633D01*
X56345068Y-37945853D01*
X56197440Y-37860620D01*
X56197433Y-37860617D01*
X56197434Y-37860617D01*
X56197430Y-37860615D01*
X56039929Y-37795375D01*
X56039928Y-37795374D01*
X56039924Y-37795373D01*
X55933729Y-37766919D01*
X55875259Y-37751252D01*
X55847010Y-37747533D01*
X55706246Y-37729000D01*
X55706239Y-37729000D01*
X55535761Y-37729000D01*
X55535753Y-37729000D01*
X55374878Y-37750180D01*
X55366741Y-37751252D01*
X55338010Y-37758950D01*
X55202075Y-37795373D01*
X55123320Y-37827995D01*
X55044570Y-37860615D01*
X55044567Y-37860616D01*
X55044566Y-37860617D01*
X55044559Y-37860620D01*
X54896931Y-37945853D01*
X54761682Y-38049633D01*
X54761675Y-38049639D01*
X54641139Y-38170175D01*
X54641133Y-38170182D01*
X54537353Y-38305431D01*
X54452120Y-38453059D01*
X54452117Y-38453066D01*
X54452115Y-38453070D01*
X54419495Y-38531820D01*
X54386873Y-38610575D01*
X54342753Y-38775238D01*
X54342751Y-38775249D01*
X54320500Y-38944253D01*
X54320500Y-39114746D01*
X54326064Y-39157003D01*
X54342752Y-39283759D01*
X54351000Y-39314541D01*
X54386873Y-39448424D01*
X54386874Y-39448428D01*
X54386875Y-39448429D01*
X54452115Y-39605930D01*
X54452117Y-39605933D01*
X54452120Y-39605940D01*
X54537353Y-39753568D01*
X54641133Y-39888817D01*
X54641139Y-39888824D01*
X54761675Y-40009360D01*
X54761682Y-40009366D01*
X54896931Y-40113146D01*
X55044559Y-40198379D01*
X55044561Y-40198380D01*
X55044570Y-40198385D01*
X55202071Y-40263625D01*
X55366741Y-40307748D01*
X55527623Y-40328928D01*
X55531955Y-40329499D01*
X55535761Y-40330000D01*
X55535768Y-40330000D01*
X55706232Y-40330000D01*
X55706239Y-40330000D01*
X55875259Y-40307748D01*
X56039929Y-40263625D01*
X56197430Y-40198385D01*
X56345069Y-40113146D01*
X56480319Y-40009365D01*
X56480324Y-40009360D01*
X56515150Y-39974535D01*
X56600860Y-39888824D01*
X56600865Y-39888819D01*
X56704646Y-39753569D01*
X56783902Y-39616292D01*
X56821436Y-39575841D01*
X56872806Y-39555679D01*
X56927837Y-39559803D01*
X56975629Y-39587395D01*
X56998675Y-39616294D01*
X57077766Y-39753284D01*
X57077770Y-39753291D01*
X57080325Y-39756620D01*
X57762169Y-39074776D01*
X57776372Y-39146176D01*
X57806525Y-39218971D01*
X57850300Y-39284485D01*
X57906015Y-39340200D01*
X57971529Y-39383975D01*
X58044324Y-39414128D01*
X58115722Y-39428330D01*
X57433879Y-40110173D01*
X57437208Y-40112729D01*
X57584783Y-40197932D01*
X57584794Y-40197937D01*
X57742229Y-40263149D01*
X57906839Y-40307255D01*
X58075786Y-40329499D01*
X58075801Y-40329500D01*
X58246199Y-40329500D01*
X58246213Y-40329499D01*
X58415160Y-40307255D01*
X58579770Y-40263149D01*
X58737205Y-40197937D01*
X58737216Y-40197932D01*
X58884788Y-40112731D01*
X58884788Y-40112730D01*
X58888119Y-40110173D01*
X58888119Y-40110172D01*
X58206277Y-39428330D01*
X58277676Y-39414128D01*
X58350471Y-39383975D01*
X58415985Y-39340200D01*
X58471700Y-39284485D01*
X58515475Y-39218971D01*
X58545628Y-39146176D01*
X58559830Y-39074777D01*
X59241672Y-39756619D01*
X59241673Y-39756619D01*
X59244230Y-39753288D01*
X59244231Y-39753288D01*
X59323324Y-39616294D01*
X59360859Y-39575841D01*
X59412229Y-39555679D01*
X59467260Y-39559803D01*
X59515052Y-39587395D01*
X59538098Y-39616294D01*
X59617353Y-39753568D01*
X59721133Y-39888817D01*
X59721139Y-39888824D01*
X59841675Y-40009360D01*
X59841682Y-40009366D01*
X59976931Y-40113146D01*
X60124559Y-40198379D01*
X60124561Y-40198380D01*
X60124570Y-40198385D01*
X60282071Y-40263625D01*
X60446741Y-40307748D01*
X60607623Y-40328928D01*
X60611955Y-40329499D01*
X60615761Y-40330000D01*
X60615768Y-40330000D01*
X60786232Y-40330000D01*
X60786239Y-40330000D01*
X60955259Y-40307748D01*
X61119929Y-40263625D01*
X61277430Y-40198385D01*
X61425069Y-40113146D01*
X61560319Y-40009365D01*
X61680865Y-39888819D01*
X61784646Y-39753569D01*
X61863613Y-39616794D01*
X61901148Y-39576340D01*
X61952518Y-39556178D01*
X62007549Y-39560302D01*
X62055341Y-39587894D01*
X62078387Y-39616794D01*
X62157350Y-39753564D01*
X62157351Y-39753566D01*
X62261133Y-39888817D01*
X62261139Y-39888824D01*
X62381675Y-40009360D01*
X62381682Y-40009366D01*
X62516931Y-40113146D01*
X62664559Y-40198379D01*
X62664561Y-40198380D01*
X62664570Y-40198385D01*
X62822071Y-40263625D01*
X62986741Y-40307748D01*
X63147623Y-40328928D01*
X63151955Y-40329499D01*
X63155761Y-40330000D01*
X63155768Y-40330000D01*
X63326232Y-40330000D01*
X63326239Y-40330000D01*
X63495259Y-40307748D01*
X63659929Y-40263625D01*
X63817430Y-40198385D01*
X63965069Y-40113146D01*
X64100319Y-40009365D01*
X64220865Y-39888819D01*
X64324646Y-39753569D01*
X64403613Y-39616794D01*
X64441148Y-39576340D01*
X64492518Y-39556178D01*
X64547549Y-39560302D01*
X64595341Y-39587894D01*
X64618387Y-39616794D01*
X64697350Y-39753564D01*
X64697351Y-39753566D01*
X64801133Y-39888817D01*
X64801139Y-39888824D01*
X64921675Y-40009360D01*
X64921682Y-40009366D01*
X65056931Y-40113146D01*
X65204559Y-40198379D01*
X65204561Y-40198380D01*
X65204570Y-40198385D01*
X65362071Y-40263625D01*
X65526741Y-40307748D01*
X65687623Y-40328928D01*
X65691955Y-40329499D01*
X65695761Y-40330000D01*
X65695768Y-40330000D01*
X65866232Y-40330000D01*
X65866239Y-40330000D01*
X66035259Y-40307748D01*
X66199929Y-40263625D01*
X66357430Y-40198385D01*
X66505069Y-40113146D01*
X66640319Y-40009365D01*
X66760865Y-39888819D01*
X66864646Y-39753569D01*
X66943613Y-39616794D01*
X66981148Y-39576340D01*
X67032518Y-39556178D01*
X67087549Y-39560302D01*
X67135341Y-39587894D01*
X67158387Y-39616794D01*
X67237350Y-39753564D01*
X67237351Y-39753566D01*
X67341133Y-39888817D01*
X67341139Y-39888824D01*
X67461675Y-40009360D01*
X67461682Y-40009366D01*
X67596931Y-40113146D01*
X67744559Y-40198379D01*
X67744561Y-40198380D01*
X67744570Y-40198385D01*
X67902071Y-40263625D01*
X68066741Y-40307748D01*
X68227623Y-40328928D01*
X68231955Y-40329499D01*
X68235761Y-40330000D01*
X68235768Y-40330000D01*
X68406232Y-40330000D01*
X68406239Y-40330000D01*
X68575259Y-40307748D01*
X68739929Y-40263625D01*
X68897430Y-40198385D01*
X69045069Y-40113146D01*
X69180319Y-40009365D01*
X69300865Y-39888819D01*
X69404646Y-39753569D01*
X69483613Y-39616794D01*
X69521148Y-39576340D01*
X69572518Y-39556178D01*
X69627549Y-39560302D01*
X69675341Y-39587894D01*
X69698387Y-39616794D01*
X69777350Y-39753564D01*
X69777351Y-39753566D01*
X69881133Y-39888817D01*
X69881139Y-39888824D01*
X70001675Y-40009360D01*
X70001682Y-40009366D01*
X70136931Y-40113146D01*
X70284559Y-40198379D01*
X70284561Y-40198380D01*
X70284570Y-40198385D01*
X70442071Y-40263625D01*
X70606741Y-40307748D01*
X70767623Y-40328928D01*
X70771955Y-40329499D01*
X70775761Y-40330000D01*
X70775768Y-40330000D01*
X70946232Y-40330000D01*
X70946239Y-40330000D01*
X71115259Y-40307748D01*
X71183931Y-40289346D01*
X71239077Y-40287284D01*
X71289658Y-40309352D01*
X71303705Y-40321441D01*
X71494181Y-40511916D01*
X71523541Y-40558642D01*
X71530500Y-40599597D01*
X71530500Y-45333586D01*
X71518220Y-45387388D01*
X71483813Y-45430533D01*
X71434093Y-45454477D01*
X71378907Y-45454477D01*
X71359047Y-45448147D01*
X71279927Y-45415374D01*
X71178700Y-45388251D01*
X71115259Y-45371252D01*
X71087010Y-45367533D01*
X70946246Y-45349000D01*
X70946239Y-45349000D01*
X70775761Y-45349000D01*
X70775753Y-45349000D01*
X70614878Y-45370180D01*
X70606741Y-45371252D01*
X70578010Y-45378950D01*
X70442075Y-45415373D01*
X70376212Y-45442655D01*
X70284570Y-45480615D01*
X70284567Y-45480616D01*
X70284566Y-45480617D01*
X70284559Y-45480620D01*
X70136931Y-45565853D01*
X70001682Y-45669633D01*
X70001675Y-45669639D01*
X69881139Y-45790175D01*
X69881133Y-45790182D01*
X69777353Y-45925431D01*
X69698387Y-46062206D01*
X69660852Y-46102659D01*
X69609482Y-46122821D01*
X69554451Y-46118697D01*
X69506659Y-46091105D01*
X69483613Y-46062206D01*
X69404646Y-45925431D01*
X69300866Y-45790182D01*
X69300860Y-45790175D01*
X69180324Y-45669639D01*
X69180317Y-45669633D01*
X69045068Y-45565853D01*
X68897440Y-45480620D01*
X68897433Y-45480617D01*
X68897434Y-45480617D01*
X68897430Y-45480615D01*
X68739929Y-45415375D01*
X68739928Y-45415374D01*
X68739924Y-45415373D01*
X68638697Y-45388250D01*
X68575259Y-45371252D01*
X68547010Y-45367533D01*
X68406246Y-45349000D01*
X68406239Y-45349000D01*
X68235761Y-45349000D01*
X68235753Y-45349000D01*
X68074878Y-45370180D01*
X68066741Y-45371252D01*
X68038010Y-45378950D01*
X67902075Y-45415373D01*
X67836212Y-45442655D01*
X67744570Y-45480615D01*
X67744567Y-45480616D01*
X67744566Y-45480617D01*
X67744559Y-45480620D01*
X67596931Y-45565853D01*
X67461682Y-45669633D01*
X67461675Y-45669639D01*
X67341139Y-45790175D01*
X67341133Y-45790182D01*
X67237353Y-45925431D01*
X67158387Y-46062206D01*
X67120852Y-46102659D01*
X67069482Y-46122821D01*
X67014451Y-46118697D01*
X66966659Y-46091105D01*
X66943613Y-46062206D01*
X66864646Y-45925431D01*
X66760866Y-45790182D01*
X66760860Y-45790175D01*
X66640324Y-45669639D01*
X66640317Y-45669633D01*
X66505068Y-45565853D01*
X66357440Y-45480620D01*
X66357433Y-45480617D01*
X66357434Y-45480617D01*
X66357430Y-45480615D01*
X66199929Y-45415375D01*
X66199928Y-45415374D01*
X66199924Y-45415373D01*
X66098697Y-45388250D01*
X66035259Y-45371252D01*
X66007010Y-45367533D01*
X65866246Y-45349000D01*
X65866239Y-45349000D01*
X65695761Y-45349000D01*
X65695753Y-45349000D01*
X65534878Y-45370180D01*
X65526741Y-45371252D01*
X65498010Y-45378950D01*
X65362075Y-45415373D01*
X65296212Y-45442655D01*
X65204570Y-45480615D01*
X65204567Y-45480616D01*
X65204566Y-45480617D01*
X65204559Y-45480620D01*
X65056931Y-45565853D01*
X64921682Y-45669633D01*
X64921675Y-45669639D01*
X64801139Y-45790175D01*
X64801133Y-45790182D01*
X64697353Y-45925431D01*
X64618387Y-46062206D01*
X64580852Y-46102659D01*
X64529482Y-46122821D01*
X64474451Y-46118697D01*
X64426659Y-46091105D01*
X64403613Y-46062206D01*
X64324646Y-45925431D01*
X64220866Y-45790182D01*
X64220860Y-45790175D01*
X64100324Y-45669639D01*
X64100317Y-45669633D01*
X63965068Y-45565853D01*
X63817440Y-45480620D01*
X63817433Y-45480617D01*
X63817434Y-45480617D01*
X63817430Y-45480615D01*
X63659929Y-45415375D01*
X63659928Y-45415374D01*
X63659924Y-45415373D01*
X63558697Y-45388250D01*
X63495259Y-45371252D01*
X63467010Y-45367533D01*
X63326246Y-45349000D01*
X63326239Y-45349000D01*
X63155761Y-45349000D01*
X63155753Y-45349000D01*
X62994878Y-45370180D01*
X62986741Y-45371252D01*
X62958010Y-45378950D01*
X62822075Y-45415373D01*
X62756212Y-45442655D01*
X62664570Y-45480615D01*
X62664567Y-45480616D01*
X62664566Y-45480617D01*
X62664559Y-45480620D01*
X62516931Y-45565853D01*
X62381682Y-45669633D01*
X62381675Y-45669639D01*
X62261139Y-45790175D01*
X62261133Y-45790182D01*
X62157353Y-45925431D01*
X62078387Y-46062206D01*
X62040852Y-46102659D01*
X61989482Y-46122821D01*
X61934451Y-46118697D01*
X61886659Y-46091105D01*
X61863613Y-46062206D01*
X61784646Y-45925431D01*
X61680866Y-45790182D01*
X61680860Y-45790175D01*
X61560324Y-45669639D01*
X61560317Y-45669633D01*
X61425068Y-45565853D01*
X61277440Y-45480620D01*
X61277433Y-45480617D01*
X61277434Y-45480617D01*
X61277430Y-45480615D01*
X61119929Y-45415375D01*
X61119928Y-45415374D01*
X61119924Y-45415373D01*
X61018697Y-45388250D01*
X60955259Y-45371252D01*
X60927010Y-45367533D01*
X60786246Y-45349000D01*
X60786239Y-45349000D01*
X60615761Y-45349000D01*
X60615753Y-45349000D01*
X60454878Y-45370180D01*
X60446741Y-45371252D01*
X60418010Y-45378950D01*
X60282075Y-45415373D01*
X60216212Y-45442655D01*
X60124570Y-45480615D01*
X60124567Y-45480616D01*
X60124566Y-45480617D01*
X60124559Y-45480620D01*
X59976931Y-45565853D01*
X59841682Y-45669633D01*
X59841675Y-45669639D01*
X59721139Y-45790175D01*
X59721133Y-45790182D01*
X59617353Y-45925431D01*
X59538387Y-46062206D01*
X59500852Y-46102659D01*
X59449482Y-46122821D01*
X59394451Y-46118697D01*
X59346659Y-46091105D01*
X59323613Y-46062206D01*
X59244646Y-45925431D01*
X59140866Y-45790182D01*
X59140860Y-45790175D01*
X59020324Y-45669639D01*
X59020317Y-45669633D01*
X58885068Y-45565853D01*
X58737440Y-45480620D01*
X58737433Y-45480617D01*
X58737434Y-45480617D01*
X58737430Y-45480615D01*
X58579929Y-45415375D01*
X58579928Y-45415374D01*
X58579924Y-45415373D01*
X58478697Y-45388250D01*
X58415259Y-45371252D01*
X58387010Y-45367533D01*
X58246246Y-45349000D01*
X58246239Y-45349000D01*
X58075761Y-45349000D01*
X58075753Y-45349000D01*
X57914878Y-45370180D01*
X57906741Y-45371252D01*
X57878010Y-45378950D01*
X57742075Y-45415373D01*
X57676212Y-45442655D01*
X57584570Y-45480615D01*
X57584567Y-45480616D01*
X57584566Y-45480617D01*
X57584559Y-45480620D01*
X57436931Y-45565853D01*
X57301682Y-45669633D01*
X57301675Y-45669639D01*
X57181139Y-45790175D01*
X57181131Y-45790185D01*
X57100670Y-45895043D01*
X57058176Y-45930251D01*
X57004613Y-45943534D01*
X56950591Y-45932262D01*
X56906810Y-45898668D01*
X56884961Y-45855577D01*
X56884089Y-45855883D01*
X56882248Y-45850624D01*
X56866053Y-45814970D01*
X56826380Y-45727625D01*
X56749446Y-45616578D01*
X56749445Y-45616577D01*
X56749443Y-45616574D01*
X56653925Y-45521056D01*
X56542876Y-45444120D01*
X56419875Y-45388251D01*
X56419872Y-45388250D01*
X56288887Y-45355244D01*
X56288881Y-45355243D01*
X56209557Y-45349000D01*
X56209552Y-45349000D01*
X55032448Y-45349000D01*
X55032442Y-45349000D01*
X54953118Y-45355243D01*
X54953112Y-45355244D01*
X54822127Y-45388250D01*
X54822124Y-45388251D01*
X54699123Y-45444120D01*
X54588074Y-45521056D01*
X54492556Y-45616574D01*
X54415620Y-45727623D01*
X54359751Y-45850624D01*
X54359750Y-45850627D01*
X54326744Y-45981612D01*
X54326743Y-45981618D01*
X54320500Y-46060942D01*
X54320500Y-47049402D01*
X54308220Y-47103204D01*
X54284181Y-47137083D01*
X54224924Y-47196340D01*
X54138206Y-47283058D01*
X54138203Y-47283061D01*
X54096382Y-47324882D01*
X54054561Y-47366702D01*
X54049975Y-47373566D01*
X54019165Y-47419677D01*
X54011543Y-47431084D01*
X53988842Y-47465056D01*
X53988840Y-47465060D01*
X53943577Y-47574335D01*
X53943574Y-47574347D01*
X53920499Y-47690351D01*
X53920499Y-47814757D01*
X53920500Y-47814778D01*
X53920500Y-61746350D01*
X53920499Y-61746356D01*
X53920499Y-61864644D01*
X53932631Y-61925635D01*
X53941297Y-61969204D01*
X53943576Y-61980661D01*
X53943577Y-61980664D01*
X53988840Y-62089939D01*
X53988841Y-62089941D01*
X54054560Y-62188296D01*
X54054563Y-62188300D01*
X54142522Y-62276259D01*
X54142544Y-62276279D01*
X54284181Y-62417916D01*
X54313542Y-62464642D01*
X54320500Y-62505597D01*
X54320500Y-63305402D01*
X54308220Y-63359204D01*
X54284181Y-63393083D01*
X54227377Y-63449887D01*
X54138206Y-63539058D01*
X54138203Y-63539061D01*
X54103885Y-63573379D01*
X54054559Y-63622704D01*
X54027593Y-63663063D01*
X53988841Y-63721058D01*
X53988840Y-63721060D01*
X53943577Y-63830335D01*
X53943574Y-63830347D01*
X53920499Y-63946351D01*
X53920499Y-64070757D01*
X53920500Y-64070778D01*
X53920500Y-76820402D01*
X53908220Y-76874204D01*
X53873813Y-76917349D01*
X53824093Y-76941293D01*
X53768907Y-76941293D01*
X53719187Y-76917349D01*
X53708819Y-76908083D01*
X47874819Y-71074083D01*
X47845458Y-71027357D01*
X47838500Y-70986402D01*
X47838500Y-64132079D01*
X47850780Y-64078277D01*
X47885187Y-64035132D01*
X47900497Y-64024693D01*
X47962069Y-63989146D01*
X48097319Y-63885365D01*
X48097324Y-63885360D01*
X48132150Y-63850535D01*
X48217860Y-63764824D01*
X48217865Y-63764819D01*
X48321646Y-63629569D01*
X48400902Y-63492292D01*
X48438436Y-63451841D01*
X48489806Y-63431679D01*
X48544837Y-63435803D01*
X48592629Y-63463395D01*
X48615675Y-63492294D01*
X48694766Y-63629284D01*
X48694770Y-63629291D01*
X48697325Y-63632620D01*
X49379169Y-62950776D01*
X49393372Y-63022176D01*
X49423525Y-63094971D01*
X49467300Y-63160485D01*
X49523015Y-63216200D01*
X49588529Y-63259975D01*
X49661324Y-63290128D01*
X49732722Y-63304330D01*
X49050879Y-63986173D01*
X49054208Y-63988729D01*
X49201783Y-64073932D01*
X49201794Y-64073937D01*
X49359229Y-64139149D01*
X49523839Y-64183255D01*
X49692786Y-64205499D01*
X49692801Y-64205500D01*
X49863199Y-64205500D01*
X49863213Y-64205499D01*
X50032160Y-64183255D01*
X50196770Y-64139149D01*
X50354205Y-64073937D01*
X50354216Y-64073932D01*
X50501788Y-63988731D01*
X50501788Y-63988730D01*
X50505119Y-63986173D01*
X50505119Y-63986172D01*
X49823277Y-63304330D01*
X49894676Y-63290128D01*
X49967471Y-63259975D01*
X50032985Y-63216200D01*
X50088700Y-63160485D01*
X50132475Y-63094971D01*
X50162628Y-63022176D01*
X50176830Y-62950777D01*
X50858672Y-63632619D01*
X50858673Y-63632619D01*
X50861230Y-63629288D01*
X50861231Y-63629288D01*
X50946432Y-63481716D01*
X50946437Y-63481705D01*
X51011649Y-63324270D01*
X51055755Y-63159660D01*
X51077999Y-62990713D01*
X51078000Y-62990699D01*
X51078000Y-62820300D01*
X51077999Y-62820286D01*
X51055755Y-62651339D01*
X51011649Y-62486729D01*
X50946437Y-62329294D01*
X50946432Y-62329283D01*
X50861229Y-62181708D01*
X50858673Y-62178379D01*
X50176830Y-62860221D01*
X50162628Y-62788824D01*
X50132475Y-62716029D01*
X50088700Y-62650515D01*
X50032985Y-62594800D01*
X49967471Y-62551025D01*
X49894676Y-62520872D01*
X49823275Y-62506669D01*
X50505120Y-61824825D01*
X50501791Y-61822270D01*
X50501784Y-61822266D01*
X50354216Y-61737067D01*
X50354205Y-61737062D01*
X50196770Y-61671850D01*
X50032160Y-61627744D01*
X49863213Y-61605500D01*
X49692786Y-61605500D01*
X49523839Y-61627744D01*
X49359229Y-61671850D01*
X49201794Y-61737062D01*
X49201783Y-61737067D01*
X49054210Y-61822269D01*
X49050878Y-61824825D01*
X49732722Y-62506669D01*
X49661324Y-62520872D01*
X49588529Y-62551025D01*
X49523015Y-62594800D01*
X49467300Y-62650515D01*
X49423525Y-62716029D01*
X49393372Y-62788824D01*
X49379169Y-62860222D01*
X48697325Y-62178378D01*
X48694772Y-62181707D01*
X48615675Y-62318706D01*
X48578139Y-62359159D01*
X48526769Y-62379320D01*
X48471738Y-62375196D01*
X48423946Y-62347603D01*
X48400901Y-62318705D01*
X48321646Y-62181431D01*
X48217866Y-62046182D01*
X48217860Y-62046175D01*
X48097321Y-61925636D01*
X48097317Y-61925633D01*
X47962068Y-61821853D01*
X47814440Y-61736620D01*
X47814433Y-61736617D01*
X47814434Y-61736617D01*
X47814430Y-61736615D01*
X47656929Y-61671375D01*
X47656928Y-61671374D01*
X47656924Y-61671373D01*
X47555697Y-61644250D01*
X47492259Y-61627252D01*
X47464010Y-61623533D01*
X47323246Y-61605000D01*
X47323239Y-61605000D01*
X47152761Y-61605000D01*
X47152753Y-61605000D01*
X46995940Y-61625646D01*
X46983741Y-61627252D01*
X46955010Y-61634950D01*
X46819075Y-61671373D01*
X46753212Y-61698655D01*
X46661570Y-61736615D01*
X46661567Y-61736616D01*
X46661566Y-61736617D01*
X46661559Y-61736620D01*
X46513931Y-61821853D01*
X46378682Y-61925633D01*
X46378679Y-61925636D01*
X46258139Y-62046175D01*
X46258133Y-62046182D01*
X46154353Y-62181431D01*
X46075387Y-62318206D01*
X46037852Y-62358659D01*
X45986482Y-62378821D01*
X45931451Y-62374697D01*
X45883659Y-62347105D01*
X45860613Y-62318206D01*
X45781646Y-62181431D01*
X45677866Y-62046182D01*
X45677860Y-62046175D01*
X45557321Y-61925636D01*
X45557317Y-61925633D01*
X45422068Y-61821853D01*
X45274440Y-61736620D01*
X45274433Y-61736617D01*
X45274434Y-61736617D01*
X45274430Y-61736615D01*
X45116929Y-61671375D01*
X45116928Y-61671374D01*
X45116924Y-61671373D01*
X45015697Y-61644250D01*
X44952259Y-61627252D01*
X44924010Y-61623533D01*
X44783246Y-61605000D01*
X44783239Y-61605000D01*
X44612761Y-61605000D01*
X44612753Y-61605000D01*
X44455940Y-61625646D01*
X44443741Y-61627252D01*
X44415010Y-61634950D01*
X44279075Y-61671373D01*
X44213212Y-61698655D01*
X44121570Y-61736615D01*
X44121567Y-61736616D01*
X44121566Y-61736617D01*
X44121559Y-61736620D01*
X43973931Y-61821853D01*
X43838682Y-61925633D01*
X43838679Y-61925636D01*
X43718139Y-62046175D01*
X43718131Y-62046185D01*
X43637670Y-62151043D01*
X43595176Y-62186251D01*
X43541613Y-62199534D01*
X43487591Y-62188262D01*
X43443810Y-62154668D01*
X43421961Y-62111577D01*
X43421089Y-62111883D01*
X43419248Y-62106624D01*
X43411670Y-62089941D01*
X43363380Y-61983625D01*
X43328555Y-61933359D01*
X43286443Y-61872574D01*
X43190925Y-61777056D01*
X43079876Y-61700120D01*
X42956875Y-61644251D01*
X42956872Y-61644250D01*
X42825887Y-61611244D01*
X42825881Y-61611243D01*
X42746557Y-61605000D01*
X42746552Y-61605000D01*
X41569448Y-61605000D01*
X41569442Y-61605000D01*
X41490118Y-61611243D01*
X41490112Y-61611244D01*
X41359127Y-61644250D01*
X41359124Y-61644251D01*
X41236123Y-61700120D01*
X41125074Y-61777056D01*
X41029556Y-61872574D01*
X40952620Y-61983623D01*
X40896751Y-62106624D01*
X40896750Y-62106627D01*
X40863744Y-62237612D01*
X40863743Y-62237618D01*
X40857500Y-62316942D01*
X38192500Y-62316942D01*
X38192500Y-55200253D01*
X40857500Y-55200253D01*
X40857500Y-55370746D01*
X40870572Y-55470030D01*
X40879752Y-55539759D01*
X40897964Y-55607728D01*
X40923873Y-55704424D01*
X40923874Y-55704428D01*
X40923875Y-55704429D01*
X40989115Y-55861930D01*
X40989117Y-55861933D01*
X40989120Y-55861940D01*
X41074353Y-56009568D01*
X41178133Y-56144817D01*
X41178139Y-56144824D01*
X41298675Y-56265360D01*
X41298682Y-56265366D01*
X41433931Y-56369146D01*
X41581559Y-56454379D01*
X41581561Y-56454380D01*
X41581570Y-56454385D01*
X41739071Y-56519625D01*
X41903741Y-56563748D01*
X42072761Y-56586000D01*
X42072768Y-56586000D01*
X42243232Y-56586000D01*
X42243239Y-56586000D01*
X42412259Y-56563748D01*
X42576929Y-56519625D01*
X42734430Y-56454385D01*
X42882069Y-56369146D01*
X43017319Y-56265365D01*
X43137865Y-56144819D01*
X43241646Y-56009569D01*
X43320613Y-55872794D01*
X43358148Y-55832340D01*
X43409518Y-55812178D01*
X43464549Y-55816302D01*
X43512341Y-55843894D01*
X43535387Y-55872794D01*
X43614350Y-56009564D01*
X43614351Y-56009566D01*
X43718133Y-56144817D01*
X43718139Y-56144824D01*
X43838675Y-56265360D01*
X43838682Y-56265366D01*
X43973931Y-56369146D01*
X44121559Y-56454379D01*
X44121561Y-56454380D01*
X44121570Y-56454385D01*
X44279071Y-56519625D01*
X44443741Y-56563748D01*
X44612761Y-56586000D01*
X44612768Y-56586000D01*
X44783232Y-56586000D01*
X44783239Y-56586000D01*
X44952259Y-56563748D01*
X45116929Y-56519625D01*
X45274430Y-56454385D01*
X45422069Y-56369146D01*
X45557319Y-56265365D01*
X45677865Y-56144819D01*
X45781646Y-56009569D01*
X45860613Y-55872794D01*
X45898148Y-55832340D01*
X45949518Y-55812178D01*
X46004549Y-55816302D01*
X46052341Y-55843894D01*
X46075387Y-55872794D01*
X46154350Y-56009564D01*
X46154351Y-56009566D01*
X46258133Y-56144817D01*
X46258139Y-56144824D01*
X46378675Y-56265360D01*
X46378682Y-56265366D01*
X46513931Y-56369146D01*
X46661559Y-56454379D01*
X46661561Y-56454380D01*
X46661570Y-56454385D01*
X46819071Y-56519625D01*
X46983741Y-56563748D01*
X47152761Y-56586000D01*
X47152768Y-56586000D01*
X47323232Y-56586000D01*
X47323239Y-56586000D01*
X47492259Y-56563748D01*
X47656929Y-56519625D01*
X47814430Y-56454385D01*
X47962069Y-56369146D01*
X48097319Y-56265365D01*
X48217865Y-56144819D01*
X48321646Y-56009569D01*
X48400613Y-55872794D01*
X48438148Y-55832340D01*
X48489518Y-55812178D01*
X48544549Y-55816302D01*
X48592341Y-55843894D01*
X48615387Y-55872794D01*
X48694350Y-56009564D01*
X48694351Y-56009566D01*
X48798133Y-56144817D01*
X48798139Y-56144824D01*
X48918675Y-56265360D01*
X48918682Y-56265366D01*
X49053931Y-56369146D01*
X49201559Y-56454379D01*
X49201561Y-56454380D01*
X49201570Y-56454385D01*
X49359071Y-56519625D01*
X49523741Y-56563748D01*
X49692761Y-56586000D01*
X49692768Y-56586000D01*
X49863232Y-56586000D01*
X49863239Y-56586000D01*
X50032259Y-56563748D01*
X50196929Y-56519625D01*
X50354430Y-56454385D01*
X50502069Y-56369146D01*
X50637319Y-56265365D01*
X50757865Y-56144819D01*
X50861646Y-56009569D01*
X50946885Y-55861930D01*
X51012125Y-55704429D01*
X51056248Y-55539759D01*
X51078500Y-55370739D01*
X51078500Y-55200261D01*
X51056248Y-55031241D01*
X51012125Y-54866571D01*
X50946885Y-54709070D01*
X50861646Y-54561431D01*
X50757865Y-54426181D01*
X50757860Y-54426175D01*
X50637324Y-54305639D01*
X50637317Y-54305633D01*
X50502068Y-54201853D01*
X50354440Y-54116620D01*
X50354433Y-54116617D01*
X50354434Y-54116617D01*
X50354430Y-54116615D01*
X50196929Y-54051375D01*
X50196928Y-54051374D01*
X50196924Y-54051373D01*
X50090729Y-54022919D01*
X50032259Y-54007252D01*
X50004010Y-54003533D01*
X49863246Y-53985000D01*
X49863239Y-53985000D01*
X49692761Y-53985000D01*
X49692753Y-53985000D01*
X49531878Y-54006180D01*
X49523741Y-54007252D01*
X49523734Y-54007254D01*
X49359075Y-54051373D01*
X49280320Y-54083995D01*
X49201570Y-54116615D01*
X49201567Y-54116616D01*
X49201566Y-54116617D01*
X49201559Y-54116620D01*
X49053931Y-54201853D01*
X48918682Y-54305633D01*
X48918675Y-54305639D01*
X48798139Y-54426175D01*
X48798133Y-54426182D01*
X48694353Y-54561431D01*
X48615387Y-54698206D01*
X48577852Y-54738659D01*
X48526482Y-54758821D01*
X48471451Y-54754697D01*
X48423659Y-54727105D01*
X48400613Y-54698206D01*
X48321646Y-54561431D01*
X48217866Y-54426182D01*
X48217860Y-54426175D01*
X48097324Y-54305639D01*
X48097317Y-54305633D01*
X47962068Y-54201853D01*
X47814440Y-54116620D01*
X47814433Y-54116617D01*
X47814434Y-54116617D01*
X47814430Y-54116615D01*
X47656929Y-54051375D01*
X47656928Y-54051374D01*
X47656924Y-54051373D01*
X47550729Y-54022919D01*
X47492259Y-54007252D01*
X47464010Y-54003533D01*
X47323246Y-53985000D01*
X47323239Y-53985000D01*
X47152761Y-53985000D01*
X47152753Y-53985000D01*
X46991878Y-54006180D01*
X46983741Y-54007252D01*
X46983734Y-54007254D01*
X46819075Y-54051373D01*
X46740320Y-54083995D01*
X46661570Y-54116615D01*
X46661567Y-54116616D01*
X46661566Y-54116617D01*
X46661559Y-54116620D01*
X46513931Y-54201853D01*
X46378682Y-54305633D01*
X46378675Y-54305639D01*
X46258139Y-54426175D01*
X46258133Y-54426182D01*
X46154353Y-54561431D01*
X46075387Y-54698206D01*
X46037852Y-54738659D01*
X45986482Y-54758821D01*
X45931451Y-54754697D01*
X45883659Y-54727105D01*
X45860613Y-54698206D01*
X45781646Y-54561431D01*
X45677866Y-54426182D01*
X45677860Y-54426175D01*
X45557324Y-54305639D01*
X45557317Y-54305633D01*
X45422068Y-54201853D01*
X45274440Y-54116620D01*
X45274433Y-54116617D01*
X45274434Y-54116617D01*
X45274430Y-54116615D01*
X45116929Y-54051375D01*
X45116928Y-54051374D01*
X45116924Y-54051373D01*
X45010729Y-54022919D01*
X44952259Y-54007252D01*
X44924010Y-54003533D01*
X44783246Y-53985000D01*
X44783239Y-53985000D01*
X44612761Y-53985000D01*
X44612753Y-53985000D01*
X44451878Y-54006180D01*
X44443741Y-54007252D01*
X44443734Y-54007254D01*
X44279075Y-54051373D01*
X44200320Y-54083995D01*
X44121570Y-54116615D01*
X44121567Y-54116616D01*
X44121566Y-54116617D01*
X44121559Y-54116620D01*
X43973931Y-54201853D01*
X43838682Y-54305633D01*
X43838675Y-54305639D01*
X43718139Y-54426175D01*
X43718133Y-54426182D01*
X43614353Y-54561431D01*
X43535387Y-54698206D01*
X43497852Y-54738659D01*
X43446482Y-54758821D01*
X43391451Y-54754697D01*
X43343659Y-54727105D01*
X43320613Y-54698206D01*
X43241646Y-54561431D01*
X43137866Y-54426182D01*
X43137860Y-54426175D01*
X43017324Y-54305639D01*
X43017317Y-54305633D01*
X42882068Y-54201853D01*
X42734440Y-54116620D01*
X42734433Y-54116617D01*
X42734434Y-54116617D01*
X42734430Y-54116615D01*
X42576929Y-54051375D01*
X42576928Y-54051374D01*
X42576924Y-54051373D01*
X42470729Y-54022919D01*
X42412259Y-54007252D01*
X42384010Y-54003533D01*
X42243246Y-53985000D01*
X42243239Y-53985000D01*
X42072761Y-53985000D01*
X42072753Y-53985000D01*
X41911878Y-54006180D01*
X41903741Y-54007252D01*
X41903734Y-54007254D01*
X41739075Y-54051373D01*
X41660320Y-54083995D01*
X41581570Y-54116615D01*
X41581567Y-54116616D01*
X41581566Y-54116617D01*
X41581559Y-54116620D01*
X41433931Y-54201853D01*
X41298682Y-54305633D01*
X41298675Y-54305639D01*
X41178139Y-54426175D01*
X41178133Y-54426182D01*
X41074353Y-54561431D01*
X40989120Y-54709059D01*
X40989117Y-54709066D01*
X40989115Y-54709070D01*
X40968507Y-54758821D01*
X40923873Y-54866575D01*
X40879753Y-55031238D01*
X40879751Y-55031249D01*
X40857500Y-55200253D01*
X38192500Y-55200253D01*
X38192500Y-52238753D01*
X40863500Y-52238753D01*
X40863500Y-52409246D01*
X40868178Y-52444774D01*
X40885752Y-52578259D01*
X40885753Y-52578261D01*
X40929873Y-52742924D01*
X40929874Y-52742928D01*
X40929875Y-52742929D01*
X40995115Y-52900430D01*
X40995117Y-52900433D01*
X40995120Y-52900440D01*
X41080353Y-53048068D01*
X41184133Y-53183317D01*
X41184139Y-53183324D01*
X41304675Y-53303860D01*
X41304682Y-53303866D01*
X41439931Y-53407646D01*
X41587559Y-53492879D01*
X41587561Y-53492880D01*
X41587570Y-53492885D01*
X41745071Y-53558125D01*
X41909741Y-53602248D01*
X42070623Y-53623428D01*
X42074955Y-53623999D01*
X42078761Y-53624500D01*
X42078768Y-53624500D01*
X42249232Y-53624500D01*
X42249239Y-53624500D01*
X42418259Y-53602248D01*
X42582929Y-53558125D01*
X42740430Y-53492885D01*
X42888069Y-53407646D01*
X43023319Y-53303865D01*
X43037297Y-53289887D01*
X43058150Y-53269035D01*
X43143860Y-53183324D01*
X43143865Y-53183319D01*
X43247646Y-53048069D01*
X43332885Y-52900430D01*
X43398125Y-52742929D01*
X43442248Y-52578259D01*
X43464500Y-52409239D01*
X43464500Y-52238786D01*
X45864000Y-52238786D01*
X45864000Y-52409213D01*
X45886244Y-52578160D01*
X45930350Y-52742770D01*
X45995562Y-52900205D01*
X45995567Y-52900216D01*
X46080766Y-53047784D01*
X46080770Y-53047791D01*
X46083325Y-53051120D01*
X46765169Y-52369276D01*
X46779372Y-52440676D01*
X46809525Y-52513471D01*
X46853300Y-52578985D01*
X46909015Y-52634700D01*
X46974529Y-52678475D01*
X47047324Y-52708628D01*
X47118722Y-52722830D01*
X46436879Y-53404673D01*
X46440208Y-53407229D01*
X46587783Y-53492432D01*
X46587794Y-53492437D01*
X46745229Y-53557649D01*
X46909839Y-53601755D01*
X47078786Y-53623999D01*
X47078801Y-53624000D01*
X47249199Y-53624000D01*
X47249213Y-53623999D01*
X47418160Y-53601755D01*
X47582770Y-53557649D01*
X47740205Y-53492437D01*
X47740216Y-53492432D01*
X47887788Y-53407231D01*
X47887788Y-53407230D01*
X47891119Y-53404673D01*
X47891119Y-53404672D01*
X47209277Y-52722830D01*
X47280676Y-52708628D01*
X47353471Y-52678475D01*
X47418985Y-52634700D01*
X47474700Y-52578985D01*
X47518475Y-52513471D01*
X47548628Y-52440676D01*
X47562830Y-52369277D01*
X48244672Y-53051119D01*
X48244673Y-53051119D01*
X48247230Y-53047788D01*
X48247231Y-53047788D01*
X48332432Y-52900216D01*
X48332437Y-52900205D01*
X48397649Y-52742770D01*
X48441755Y-52578160D01*
X48463999Y-52409213D01*
X48464000Y-52409199D01*
X48464000Y-52238800D01*
X48463999Y-52238786D01*
X48441755Y-52069839D01*
X48397649Y-51905229D01*
X48332437Y-51747794D01*
X48332432Y-51747783D01*
X48247229Y-51600208D01*
X48244673Y-51596879D01*
X47562830Y-52278721D01*
X47548628Y-52207324D01*
X47518475Y-52134529D01*
X47474700Y-52069015D01*
X47418985Y-52013300D01*
X47353471Y-51969525D01*
X47280676Y-51939372D01*
X47209275Y-51925169D01*
X47891120Y-51243325D01*
X47887791Y-51240770D01*
X47887784Y-51240766D01*
X47740216Y-51155567D01*
X47740205Y-51155562D01*
X47582770Y-51090350D01*
X47418160Y-51046244D01*
X47249213Y-51024000D01*
X47078786Y-51024000D01*
X46909839Y-51046244D01*
X46745229Y-51090350D01*
X46587794Y-51155562D01*
X46587783Y-51155567D01*
X46440210Y-51240769D01*
X46436878Y-51243325D01*
X47118722Y-51925169D01*
X47047324Y-51939372D01*
X46974529Y-51969525D01*
X46909015Y-52013300D01*
X46853300Y-52069015D01*
X46809525Y-52134529D01*
X46779372Y-52207324D01*
X46765169Y-52278722D01*
X46083325Y-51596878D01*
X46080769Y-51600210D01*
X45995567Y-51747783D01*
X45995562Y-51747794D01*
X45930350Y-51905229D01*
X45886244Y-52069839D01*
X45864000Y-52238786D01*
X43464500Y-52238786D01*
X43464500Y-52238761D01*
X43442248Y-52069741D01*
X43398125Y-51905071D01*
X43332885Y-51747570D01*
X43247646Y-51599931D01*
X43143865Y-51464681D01*
X43143860Y-51464675D01*
X43023324Y-51344139D01*
X43023317Y-51344133D01*
X42888068Y-51240353D01*
X42740440Y-51155120D01*
X42740433Y-51155117D01*
X42740434Y-51155117D01*
X42740430Y-51155115D01*
X42582929Y-51089875D01*
X42582928Y-51089874D01*
X42582924Y-51089873D01*
X42486228Y-51063964D01*
X42418259Y-51045752D01*
X42390010Y-51042033D01*
X42249246Y-51023500D01*
X42249239Y-51023500D01*
X42078761Y-51023500D01*
X42078753Y-51023500D01*
X41917878Y-51044680D01*
X41909741Y-51045752D01*
X41905789Y-51046811D01*
X41745075Y-51089873D01*
X41666320Y-51122495D01*
X41587570Y-51155115D01*
X41587567Y-51155116D01*
X41587566Y-51155117D01*
X41587559Y-51155120D01*
X41439931Y-51240353D01*
X41304682Y-51344133D01*
X41304675Y-51344139D01*
X41184139Y-51464675D01*
X41184133Y-51464682D01*
X41080353Y-51599931D01*
X40995120Y-51747559D01*
X40995117Y-51747566D01*
X40995115Y-51747570D01*
X40963463Y-51823983D01*
X40929873Y-51905075D01*
X40885753Y-52069738D01*
X40885751Y-52069749D01*
X40863500Y-52238753D01*
X38192500Y-52238753D01*
X38192500Y-43078879D01*
X41887500Y-43078879D01*
X41887500Y-43281120D01*
X41910139Y-43482055D01*
X41910142Y-43482073D01*
X41955140Y-43679223D01*
X41955145Y-43679239D01*
X42021931Y-43870100D01*
X42021940Y-43870122D01*
X42109673Y-44052302D01*
X42109677Y-44052308D01*
X42217269Y-44223539D01*
X42343356Y-44381647D01*
X42486353Y-44524644D01*
X42644461Y-44650731D01*
X42815692Y-44758323D01*
X42815697Y-44758326D01*
X42997877Y-44846059D01*
X42997886Y-44846062D01*
X42997893Y-44846066D01*
X42997899Y-44846068D01*
X43188760Y-44912854D01*
X43188765Y-44912855D01*
X43188772Y-44912858D01*
X43385930Y-44957858D01*
X43385936Y-44957858D01*
X43385944Y-44957860D01*
X43519900Y-44972952D01*
X43586880Y-44980499D01*
X43586883Y-44980500D01*
X43586886Y-44980500D01*
X43789117Y-44980500D01*
X43789118Y-44980499D01*
X43891813Y-44968928D01*
X43990055Y-44957860D01*
X43990060Y-44957859D01*
X43990070Y-44957858D01*
X44187228Y-44912858D01*
X44378107Y-44846066D01*
X44560308Y-44758323D01*
X44731539Y-44650731D01*
X44889647Y-44524644D01*
X45032644Y-44381647D01*
X45158731Y-44223539D01*
X45266323Y-44052308D01*
X45354066Y-43870107D01*
X45420858Y-43679228D01*
X45465858Y-43482070D01*
X45475090Y-43400134D01*
X45479077Y-43364754D01*
X45479077Y-43364753D01*
X45488499Y-43281120D01*
X45488500Y-43281116D01*
X45488500Y-43078883D01*
X45488499Y-43078879D01*
X45465860Y-42877944D01*
X45465857Y-42877926D01*
X45465828Y-42877801D01*
X45420858Y-42680772D01*
X45354066Y-42489893D01*
X45354062Y-42489886D01*
X45354059Y-42489877D01*
X45266326Y-42307697D01*
X45170395Y-42155024D01*
X45169579Y-42153726D01*
X45158731Y-42136461D01*
X45122861Y-42091481D01*
X46968000Y-42091481D01*
X46968000Y-42930000D01*
X48165869Y-42930000D01*
X48165621Y-42930487D01*
X48134005Y-43027791D01*
X48118000Y-43128844D01*
X48118000Y-43231156D01*
X48134005Y-43332209D01*
X48165621Y-43429513D01*
X48165869Y-43430000D01*
X46968001Y-43430000D01*
X46968001Y-44268519D01*
X46974240Y-44347805D01*
X47007224Y-44478704D01*
X47007225Y-44478707D01*
X47063058Y-44601628D01*
X47139942Y-44712602D01*
X47235397Y-44808057D01*
X47346371Y-44884941D01*
X47469292Y-44940774D01*
X47469295Y-44940775D01*
X47600191Y-44973758D01*
X47600198Y-44973759D01*
X47679488Y-44979999D01*
X48517999Y-44979999D01*
X48518000Y-44979998D01*
X48518000Y-43782130D01*
X48518487Y-43782379D01*
X48615791Y-43813995D01*
X48716844Y-43830000D01*
X48819156Y-43830000D01*
X48920209Y-43813995D01*
X49017513Y-43782379D01*
X49018000Y-43782130D01*
X49018000Y-44979999D01*
X49856503Y-44979999D01*
X49856519Y-44979998D01*
X49935805Y-44973759D01*
X50066704Y-44940775D01*
X50066707Y-44940774D01*
X50189628Y-44884941D01*
X50300602Y-44808057D01*
X50396057Y-44712602D01*
X50472941Y-44601628D01*
X50528774Y-44478707D01*
X50528775Y-44478704D01*
X50561758Y-44347808D01*
X50561759Y-44347801D01*
X50567999Y-44268518D01*
X50568000Y-44268505D01*
X50568000Y-43430000D01*
X49370131Y-43430000D01*
X49370379Y-43429513D01*
X49401995Y-43332209D01*
X49418000Y-43231156D01*
X49418000Y-43128844D01*
X49401995Y-43027791D01*
X49370379Y-42930487D01*
X49370131Y-42930000D01*
X50567999Y-42930000D01*
X50567999Y-42091497D01*
X50567998Y-42091480D01*
X50561759Y-42012194D01*
X50528775Y-41881295D01*
X50528774Y-41881292D01*
X50472941Y-41758371D01*
X50396057Y-41647397D01*
X50300602Y-41551942D01*
X50189628Y-41475058D01*
X50066707Y-41419225D01*
X50066704Y-41419224D01*
X49935808Y-41386241D01*
X49935801Y-41386240D01*
X49856518Y-41380000D01*
X49018000Y-41380000D01*
X49018000Y-42577869D01*
X49017513Y-42577621D01*
X48920209Y-42546005D01*
X48819156Y-42530000D01*
X48716844Y-42530000D01*
X48615791Y-42546005D01*
X48518487Y-42577621D01*
X48518000Y-42577869D01*
X48518000Y-41380000D01*
X47679497Y-41380000D01*
X47679480Y-41380001D01*
X47600194Y-41386240D01*
X47469295Y-41419224D01*
X47469292Y-41419225D01*
X47346371Y-41475058D01*
X47235397Y-41551942D01*
X47139942Y-41647397D01*
X47063058Y-41758371D01*
X47007225Y-41881292D01*
X47007224Y-41881295D01*
X46974241Y-42012191D01*
X46974240Y-42012198D01*
X46968000Y-42091481D01*
X45122861Y-42091481D01*
X45032644Y-41978353D01*
X44889647Y-41835356D01*
X44731539Y-41709269D01*
X44560308Y-41601677D01*
X44560309Y-41601677D01*
X44560302Y-41601673D01*
X44378122Y-41513940D01*
X44378100Y-41513931D01*
X44187239Y-41447145D01*
X44187223Y-41447140D01*
X43990073Y-41402142D01*
X43990055Y-41402139D01*
X43789120Y-41379500D01*
X43789114Y-41379500D01*
X43586886Y-41379500D01*
X43586879Y-41379500D01*
X43385944Y-41402139D01*
X43385926Y-41402142D01*
X43188776Y-41447140D01*
X43188760Y-41447145D01*
X42997899Y-41513931D01*
X42997877Y-41513940D01*
X42815697Y-41601673D01*
X42644462Y-41709268D01*
X42486353Y-41835355D01*
X42343355Y-41978353D01*
X42217268Y-42136462D01*
X42109673Y-42307697D01*
X42021940Y-42489877D01*
X42021931Y-42489899D01*
X41955145Y-42680760D01*
X41955140Y-42680776D01*
X41910142Y-42877926D01*
X41910139Y-42877944D01*
X41887500Y-43078879D01*
X38192500Y-43078879D01*
X38192500Y-35982753D01*
X54320500Y-35982753D01*
X54320500Y-36153246D01*
X54325178Y-36188774D01*
X54342752Y-36322259D01*
X54342753Y-36322261D01*
X54386873Y-36486924D01*
X54386874Y-36486928D01*
X54386875Y-36486929D01*
X54452115Y-36644430D01*
X54452117Y-36644433D01*
X54452120Y-36644440D01*
X54537353Y-36792068D01*
X54641133Y-36927317D01*
X54641139Y-36927324D01*
X54761675Y-37047860D01*
X54761682Y-37047866D01*
X54896931Y-37151646D01*
X55044559Y-37236879D01*
X55044561Y-37236880D01*
X55044570Y-37236885D01*
X55202071Y-37302125D01*
X55366741Y-37346248D01*
X55527623Y-37367428D01*
X55531955Y-37367999D01*
X55535761Y-37368500D01*
X55535768Y-37368500D01*
X55706232Y-37368500D01*
X55706239Y-37368500D01*
X55875259Y-37346248D01*
X56039929Y-37302125D01*
X56197430Y-37236885D01*
X56345069Y-37151646D01*
X56480319Y-37047865D01*
X56480324Y-37047860D01*
X56515150Y-37013035D01*
X56600860Y-36927324D01*
X56600865Y-36927319D01*
X56704646Y-36792069D01*
X56789885Y-36644430D01*
X56855125Y-36486929D01*
X56899248Y-36322259D01*
X56921500Y-36153239D01*
X56921500Y-35982786D01*
X59321000Y-35982786D01*
X59321000Y-36153213D01*
X59343244Y-36322160D01*
X59387350Y-36486770D01*
X59452562Y-36644205D01*
X59452567Y-36644216D01*
X59537766Y-36791784D01*
X59537770Y-36791791D01*
X59540325Y-36795120D01*
X60222169Y-36113276D01*
X60236372Y-36184676D01*
X60266525Y-36257471D01*
X60310300Y-36322985D01*
X60366015Y-36378700D01*
X60431529Y-36422475D01*
X60504324Y-36452628D01*
X60575722Y-36466830D01*
X59893879Y-37148673D01*
X59897208Y-37151229D01*
X60044783Y-37236432D01*
X60044794Y-37236437D01*
X60202229Y-37301649D01*
X60366839Y-37345755D01*
X60535786Y-37367999D01*
X60535801Y-37368000D01*
X60706199Y-37368000D01*
X60706213Y-37367999D01*
X60875160Y-37345755D01*
X61039770Y-37301649D01*
X61197205Y-37236437D01*
X61197216Y-37236432D01*
X61344788Y-37151231D01*
X61344788Y-37151230D01*
X61348119Y-37148673D01*
X61348119Y-37148672D01*
X60666277Y-36466830D01*
X60737676Y-36452628D01*
X60810471Y-36422475D01*
X60875985Y-36378700D01*
X60931700Y-36322985D01*
X60975475Y-36257471D01*
X61005628Y-36184676D01*
X61019830Y-36113277D01*
X61701672Y-36795119D01*
X61701673Y-36795119D01*
X61704230Y-36791788D01*
X61704231Y-36791788D01*
X61789432Y-36644216D01*
X61789437Y-36644205D01*
X61854649Y-36486770D01*
X61898755Y-36322160D01*
X61920999Y-36153213D01*
X61921000Y-36153199D01*
X61921000Y-35982800D01*
X61920999Y-35982786D01*
X61898755Y-35813839D01*
X61854649Y-35649229D01*
X61789437Y-35491794D01*
X61789432Y-35491783D01*
X61704229Y-35344208D01*
X61701673Y-35340879D01*
X61019830Y-36022721D01*
X61005628Y-35951324D01*
X60975475Y-35878529D01*
X60931700Y-35813015D01*
X60875985Y-35757300D01*
X60810471Y-35713525D01*
X60737676Y-35683372D01*
X60666275Y-35669169D01*
X61348120Y-34987325D01*
X61344791Y-34984770D01*
X61344784Y-34984766D01*
X61197216Y-34899567D01*
X61197205Y-34899562D01*
X61039770Y-34834350D01*
X60875160Y-34790244D01*
X60706213Y-34768000D01*
X60535786Y-34768000D01*
X60366839Y-34790244D01*
X60202229Y-34834350D01*
X60044794Y-34899562D01*
X60044783Y-34899567D01*
X59897210Y-34984769D01*
X59893878Y-34987325D01*
X60575722Y-35669169D01*
X60504324Y-35683372D01*
X60431529Y-35713525D01*
X60366015Y-35757300D01*
X60310300Y-35813015D01*
X60266525Y-35878529D01*
X60236372Y-35951324D01*
X60222169Y-36022722D01*
X59540325Y-35340878D01*
X59537769Y-35344210D01*
X59452567Y-35491783D01*
X59452562Y-35491794D01*
X59387350Y-35649229D01*
X59343244Y-35813839D01*
X59321000Y-35982786D01*
X56921500Y-35982786D01*
X56921500Y-35982761D01*
X56899248Y-35813741D01*
X56855125Y-35649071D01*
X56789885Y-35491570D01*
X56704646Y-35343931D01*
X56600865Y-35208681D01*
X56600860Y-35208675D01*
X56480324Y-35088139D01*
X56480317Y-35088133D01*
X56345068Y-34984353D01*
X56197440Y-34899120D01*
X56197433Y-34899117D01*
X56197434Y-34899117D01*
X56197430Y-34899115D01*
X56039929Y-34833875D01*
X56039928Y-34833874D01*
X56039924Y-34833873D01*
X55943228Y-34807964D01*
X55875259Y-34789752D01*
X55847010Y-34786033D01*
X55706246Y-34767500D01*
X55706239Y-34767500D01*
X55535761Y-34767500D01*
X55535753Y-34767500D01*
X55374878Y-34788680D01*
X55366741Y-34789752D01*
X55338010Y-34797450D01*
X55202075Y-34833873D01*
X55123320Y-34866495D01*
X55044570Y-34899115D01*
X55044567Y-34899116D01*
X55044566Y-34899117D01*
X55044559Y-34899120D01*
X54896931Y-34984353D01*
X54761682Y-35088133D01*
X54761675Y-35088139D01*
X54641139Y-35208675D01*
X54641133Y-35208682D01*
X54537353Y-35343931D01*
X54452120Y-35491559D01*
X54452117Y-35491566D01*
X54452115Y-35491570D01*
X54419495Y-35570320D01*
X54386873Y-35649075D01*
X54342753Y-35813738D01*
X54342751Y-35813749D01*
X54320500Y-35982753D01*
X38192500Y-35982753D01*
X38192500Y-28156500D01*
X38204780Y-28102698D01*
X38239187Y-28059553D01*
X38288907Y-28035609D01*
X38316500Y-28032500D01*
X82399118Y-28032500D01*
X82415412Y-28036219D01*
G37*
%TD.AperFunction*%
%TD*%
M02*
