M48
; DRILL file KiCad 10.0.0 date 2026-05-11T20:42:49
; FORMAT={-:-/ absolute / metric / decimal}
; #@! TF.CreationDate,2026-05-11T20:42:49-04:00
; #@! TF.GenerationSoftware,Kicad,Pcbnew,10.0.0
; #@! TF.FileFunction,Plated,1,2,PTH
FMAT,2
METRIC
; #@! TA.AperFunction,Plated,PTH,ViaDrill
T1C0.300
; #@! TA.AperFunction,Plated,PTH,ComponentDrill
T2C1.000
%
G90
G05
T1
X103.632Y-123.444
X111.252Y-114.808
X115.316Y-122.077
X115.985Y-114.647
T2
X95.888Y-107.021
X95.888Y-109.561
X95.888Y-112.102
X95.888Y-114.641
X95.888Y-117.181
X95.888Y-119.721
X95.888Y-122.261
X95.888Y-124.801
X99.314Y-103.124
X99.314Y-128.524
X101.854Y-103.124
X101.854Y-128.524
X104.394Y-103.124
X104.394Y-128.524
X106.934Y-103.124
X106.934Y-128.524
X109.474Y-103.124
X109.474Y-128.524
X112.014Y-103.124
X112.014Y-128.524
X114.554Y-103.124
X114.554Y-128.524
X117.094Y-103.124
X117.094Y-128.524
X119.888Y-107.021
X119.888Y-109.561
X119.888Y-112.102
X119.888Y-114.641
X119.888Y-117.181
X119.888Y-119.721
X119.888Y-122.261
X119.888Y-124.801
M30
