%TF.GenerationSoftware,KiCad,Pcbnew,10.0.0*%
%TF.CreationDate,2026-05-11T20:42:43-04:00*%
%TF.ProjectId,8x8,3878382e-6b69-4636-9164-5f7063625858,rev?*%
%TF.SameCoordinates,Original*%
%TF.FileFunction,Copper,L2,Bot*%
%TF.FilePolarity,Positive*%
%FSLAX46Y46*%
G04 Gerber Fmt 4.6, Leading zero omitted, Abs format (unit mm)*
G04 Created by KiCad (PCBNEW 10.0.0) date 2026-05-11 20:42:43*
%MOMM*%
%LPD*%
G01*
G04 APERTURE LIST*
%TA.AperFunction,ComponentPad*%
%ADD10C,1.700000*%
%TD*%
%TA.AperFunction,ComponentPad*%
%ADD11R,1.700000X1.700000*%
%TD*%
%TA.AperFunction,ViaPad*%
%ADD12C,0.600000*%
%TD*%
%TA.AperFunction,Conductor*%
%ADD13C,0.200000*%
%TD*%
G04 APERTURE END LIST*
D10*
%TO.P,U1,8,C6_8*%
%TO.N,Net-(COLS1-Pin_6)*%
X95888000Y-124801500D03*
%TO.P,U1,7,C3_7*%
%TO.N,Net-(COLS1-Pin_3)*%
X95888000Y-122261500D03*
%TO.P,U1,6,R5_6*%
%TO.N,Net-(ROWS1-Pin_5)*%
X95888000Y-119721500D03*
%TO.P,U1,5,C1_5*%
%TO.N,Net-(COLS1-Pin_1)*%
X95888000Y-117181500D03*
%TO.P,U1,4,R3_4*%
%TO.N,Net-(ROWS1-Pin_3)*%
X95888000Y-114641500D03*
%TO.P,U1,3,R2_3*%
%TO.N,Net-(ROWS1-Pin_2)*%
X95888000Y-112101500D03*
%TO.P,U1,2,C2_2*%
%TO.N,Net-(COLS1-Pin_2)*%
X95888000Y-109561500D03*
%TO.P,U1,1,C4_1*%
%TO.N,Net-(COLS1-Pin_4)*%
X95888000Y-107021500D03*
%TO.P,U1,16,R8_16*%
%TO.N,Net-(ROWS1-Pin_8)*%
X119888000Y-107021500D03*
%TO.P,U1,15,R7_15*%
%TO.N,Net-(ROWS1-Pin_7)*%
X119888000Y-109561500D03*
%TO.P,U1,14,C7_14*%
%TO.N,Net-(COLS1-Pin_7)*%
X119888000Y-112101500D03*
%TO.P,U1,13,R1_13*%
%TO.N,Net-(ROWS1-Pin_1)*%
X119888000Y-114641500D03*
%TO.P,U1,12,C5_12*%
%TO.N,Net-(COLS1-Pin_5)*%
X119888000Y-117181500D03*
%TO.P,U1,11,R6_11*%
%TO.N,Net-(ROWS1-Pin_6)*%
X119888000Y-119721500D03*
%TO.P,U1,10,R4_10*%
%TO.N,Net-(ROWS1-Pin_4)*%
X119888000Y-122261500D03*
%TO.P,U1,9,C8_9*%
%TO.N,Net-(COLS1-Pin_8)*%
X119888000Y-124801500D03*
%TD*%
D11*
%TO.P,COLS1,1,Pin_1_1*%
%TO.N,Net-(COLS1-Pin_1)*%
X99314000Y-128524000D03*
D10*
%TO.P,COLS1,2,Pin_2_2*%
%TO.N,Net-(COLS1-Pin_2)*%
X101854000Y-128524000D03*
%TO.P,COLS1,3,Pin_3_3*%
%TO.N,Net-(COLS1-Pin_3)*%
X104394000Y-128524000D03*
%TO.P,COLS1,4,Pin_4_4*%
%TO.N,Net-(COLS1-Pin_4)*%
X106934000Y-128524000D03*
%TO.P,COLS1,5,Pin_5_5*%
%TO.N,Net-(COLS1-Pin_5)*%
X109474000Y-128524000D03*
%TO.P,COLS1,6,Pin_6_6*%
%TO.N,Net-(COLS1-Pin_6)*%
X112014000Y-128524000D03*
%TO.P,COLS1,7,Pin_7_7*%
%TO.N,Net-(COLS1-Pin_7)*%
X114554000Y-128524000D03*
%TO.P,COLS1,8,Pin_8_8*%
%TO.N,Net-(COLS1-Pin_8)*%
X117094000Y-128524000D03*
%TD*%
D11*
%TO.P,ROWS1,1,Pin_1_1*%
%TO.N,Net-(ROWS1-Pin_1)*%
X99314000Y-103124000D03*
D10*
%TO.P,ROWS1,2,Pin_2_2*%
%TO.N,Net-(ROWS1-Pin_2)*%
X101854000Y-103124000D03*
%TO.P,ROWS1,3,Pin_3_3*%
%TO.N,Net-(ROWS1-Pin_3)*%
X104394000Y-103124000D03*
%TO.P,ROWS1,4,Pin_4_4*%
%TO.N,Net-(ROWS1-Pin_4)*%
X106934000Y-103124000D03*
%TO.P,ROWS1,5,Pin_5_5*%
%TO.N,Net-(ROWS1-Pin_5)*%
X109474000Y-103124000D03*
%TO.P,ROWS1,6,Pin_6_6*%
%TO.N,Net-(ROWS1-Pin_6)*%
X112014000Y-103124000D03*
%TO.P,ROWS1,7,Pin_7_7*%
%TO.N,Net-(ROWS1-Pin_7)*%
X114554000Y-103124000D03*
%TO.P,ROWS1,8,Pin_8_8*%
%TO.N,Net-(ROWS1-Pin_8)*%
X117094000Y-103124000D03*
%TD*%
D12*
%TO.N,Net-(ROWS1-Pin_1)*%
X111252000Y-114808000D03*
X115985265Y-114646735D03*
%TO.N,Net-(COLS1-Pin_3)*%
X103632000Y-123444000D03*
%TO.N,Net-(COLS1-Pin_5)*%
X115316000Y-122077000D03*
%TD*%
%TO.N,Net-(ROWS1-Pin_1)*%
D13*
X115824000Y-114808000D02*
X111252000Y-114808000D01*
X115985265Y-114646735D02*
X115824000Y-114808000D01*
%TO.N,Net-(COLS1-Pin_3)*%
X103632000Y-123444000D02*
X102449500Y-122261500D01*
X102449500Y-122261500D02*
X96211500Y-122261500D01*
%TO.N,Net-(COLS1-Pin_5)*%
X120211500Y-117181500D02*
X115316000Y-122077000D01*
%TO.N,Net-(COLS1-Pin_7)*%
X114554000Y-128524000D02*
X114554000Y-117759000D01*
X114554000Y-117759000D02*
X120211500Y-112101500D01*
%TO.N,Net-(ROWS1-Pin_2)*%
X96211500Y-112101500D02*
X101854000Y-106459000D01*
X101854000Y-106459000D02*
X101854000Y-103124000D01*
%TO.N,Net-(ROWS1-Pin_3)*%
X96211500Y-114641500D02*
X104394000Y-106459000D01*
X104394000Y-106459000D02*
X104394000Y-103124000D01*
%TO.N,Net-(ROWS1-Pin_5)*%
X96211500Y-119721500D02*
X109474000Y-106459000D01*
X109474000Y-106459000D02*
X109474000Y-103124000D01*
%TO.N,Net-(COLS1-Pin_6)*%
X96211500Y-124801500D02*
X108291500Y-124801500D01*
X108291500Y-124801500D02*
X112014000Y-128524000D01*
%TD*%
M02*
