%TF.GenerationSoftware,KiCad,Pcbnew,10.0.0*%
%TF.CreationDate,2026-05-11T20:42:43-04:00*%
%TF.ProjectId,8x8,3878382e-6b69-4636-9164-5f7063625858,rev?*%
%TF.SameCoordinates,Original*%
%TF.FileFunction,Legend,Top*%
%TF.FilePolarity,Positive*%
%FSLAX46Y46*%
G04 Gerber Fmt 4.6, Leading zero omitted, Abs format (unit mm)*
G04 Created by KiCad (PCBNEW 10.0.0) date 2026-05-11 20:42:43*
%MOMM*%
%LPD*%
G01*
G04 APERTURE LIST*
%ADD10C,0.120000*%
%ADD11C,0.150000*%
G04 APERTURE END LIST*
%TO.C,U1*%
D10*
X93968000Y-115911500D02*
G75*
G02*
X91968000Y-117911500I-2000000J0D01*
G01*
X91968000Y-113911500D02*
G75*
G02*
X93968000Y-115911500I0J-2000000D01*
G01*
X94991034Y-101941500D02*
G75*
G02*
X92754966Y-101941500I-1118034J0D01*
G01*
X92754966Y-101941500D02*
G75*
G02*
X94991034Y-101941500I1118034J0D01*
G01*
D11*
X91968000Y-117911500D02*
X91968000Y-131911500D01*
X91968000Y-131911500D02*
X123968000Y-131911500D01*
X123968000Y-131911500D02*
X123968000Y-99911500D01*
X123968000Y-99911500D02*
X91968000Y-99911500D01*
X91968000Y-99911500D02*
X91968000Y-113911500D01*
%TO.C,COLS1*%
D10*
X100584000Y-129854000D02*
X118424000Y-129854000D01*
X100584000Y-129854000D02*
X100584000Y-127194000D01*
X118424000Y-129854000D02*
X118424000Y-127194000D01*
X97984000Y-128524000D02*
X97984000Y-127194000D01*
X97984000Y-127194000D02*
X99314000Y-127194000D01*
X100584000Y-127194000D02*
X118424000Y-127194000D01*
%TO.C,ROWS1*%
X100584000Y-104454000D02*
X118424000Y-104454000D01*
X100584000Y-104454000D02*
X100584000Y-101794000D01*
X118424000Y-104454000D02*
X118424000Y-101794000D01*
X97984000Y-103124000D02*
X97984000Y-101794000D01*
X97984000Y-101794000D02*
X99314000Y-101794000D01*
X100584000Y-101794000D02*
X118424000Y-101794000D01*
%TD*%
M02*
