%TF.GenerationSoftware,KiCad,Pcbnew,10.0.0*%
%TF.CreationDate,2026-04-23T01:13:24-04:00*%
%TF.ProjectId,Logic Analyzer MK2,4c6f6769-6320-4416-9e61-6c797a657220,rev?*%
%TF.SameCoordinates,Original*%
%TF.FileFunction,Soldermask,Top*%
%TF.FilePolarity,Negative*%
%FSLAX46Y46*%
G04 Gerber Fmt 4.6, Leading zero omitted, Abs format (unit mm)*
G04 Created by KiCad (PCBNEW 10.0.0) date 2026-04-23 01:13:24*
%MOMM*%
%LPD*%
G01*
G04 APERTURE LIST*
G04 Aperture macros list*
%AMRoundRect*
0 Rectangle with rounded corners*
0 $1 Rounding radius*
0 $2 $3 $4 $5 $6 $7 $8 $9 X,Y pos of 4 corners*
0 Add a 4 corners polygon primitive as box body*
4,1,4,$2,$3,$4,$5,$6,$7,$8,$9,$2,$3,0*
0 Add four circle primitives for the rounded corners*
1,1,$1+$1,$2,$3*
1,1,$1+$1,$4,$5*
1,1,$1+$1,$6,$7*
1,1,$1+$1,$8,$9*
0 Add four rect primitives between the rounded corners*
20,1,$1+$1,$2,$3,$4,$5,0*
20,1,$1+$1,$4,$5,$6,$7,0*
20,1,$1+$1,$6,$7,$8,$9,0*
20,1,$1+$1,$8,$9,$2,$3,0*%
G04 Aperture macros list end*
%ADD10C,5.600000*%
%ADD11C,2.000000*%
%ADD12R,1.700000X1.700000*%
%ADD13C,1.700000*%
%ADD14RoundRect,0.250000X0.550000X-0.550000X0.550000X0.550000X-0.550000X0.550000X-0.550000X-0.550000X0*%
%ADD15C,1.600000*%
%ADD16RoundRect,0.250000X1.050000X1.050000X-1.050000X1.050000X-1.050000X-1.050000X1.050000X-1.050000X0*%
%ADD17C,2.600000*%
G04 APERTURE END LIST*
D10*
%TO.C,REF\u002A\u002A*%
X41148000Y-104140000D03*
%TD*%
%TO.C,REF\u002A\u002A*%
X84328000Y-104140000D03*
%TD*%
%TO.C,REF\u002A\u002A*%
X84328000Y-30988000D03*
%TD*%
D11*
%TO.C,SW1*%
X42470000Y-82078000D03*
X48970000Y-82078000D03*
X42470000Y-86578000D03*
X48970000Y-86578000D03*
%TD*%
D12*
%TO.C,J1*%
X83715000Y-97632500D03*
D13*
X83715000Y-95092500D03*
X83715000Y-92552500D03*
X83715000Y-90012500D03*
X83715000Y-87472500D03*
X83715000Y-84932500D03*
X83715000Y-82392500D03*
X83715000Y-79852500D03*
X83715000Y-77312500D03*
X83715000Y-74772500D03*
X83715000Y-72232500D03*
X83715000Y-69692500D03*
X83715000Y-67152500D03*
X83715000Y-64612500D03*
X83715000Y-62072500D03*
X83715000Y-59532500D03*
X83715000Y-56992500D03*
X83715000Y-54452500D03*
X83715000Y-51912500D03*
X83715000Y-49372500D03*
X83715000Y-46832500D03*
X83715000Y-44292500D03*
X83715000Y-41752500D03*
X83715000Y-39212500D03*
%TD*%
D14*
%TO.C,U2*%
X55621000Y-62905500D03*
D15*
X58161000Y-62905500D03*
X60701000Y-62905500D03*
X63241000Y-62905500D03*
X65781000Y-62905500D03*
X68321000Y-62905500D03*
X70861000Y-62905500D03*
X73401000Y-62905500D03*
X73401000Y-55285500D03*
X70861000Y-55285500D03*
X68321000Y-55285500D03*
X65781000Y-55285500D03*
X63241000Y-55285500D03*
X60701000Y-55285500D03*
X58161000Y-55285500D03*
X55621000Y-55285500D03*
%TD*%
D14*
%TO.C,U1*%
X55621000Y-79669500D03*
D15*
X58161000Y-79669500D03*
X60701000Y-79669500D03*
X63241000Y-79669500D03*
X65781000Y-79669500D03*
X68321000Y-79669500D03*
X70861000Y-79669500D03*
X73401000Y-79669500D03*
X73401000Y-72049500D03*
X70861000Y-72049500D03*
X68321000Y-72049500D03*
X65781000Y-72049500D03*
X63241000Y-72049500D03*
X60701000Y-72049500D03*
X58161000Y-72049500D03*
X55621000Y-72049500D03*
%TD*%
%TO.C,R1*%
X41910000Y-90932000D03*
X49530000Y-90932000D03*
%TD*%
%TO.C,C3*%
X55621000Y-69088000D03*
X60621000Y-69088000D03*
%TD*%
%TO.C,C2*%
X55621000Y-52324000D03*
X60621000Y-52324000D03*
%TD*%
D12*
%TO.C,J2*%
X49195000Y-100117500D03*
D13*
X51735000Y-100117500D03*
X54275000Y-100117500D03*
X56815000Y-100117500D03*
%TD*%
D14*
%TO.C,U3*%
X55621000Y-46649500D03*
D15*
X58161000Y-46649500D03*
X60701000Y-46649500D03*
X63241000Y-46649500D03*
X65781000Y-46649500D03*
X68321000Y-46649500D03*
X70861000Y-46649500D03*
X73401000Y-46649500D03*
X73401000Y-39029500D03*
X70861000Y-39029500D03*
X68321000Y-39029500D03*
X65781000Y-39029500D03*
X63241000Y-39029500D03*
X60701000Y-39029500D03*
X58161000Y-39029500D03*
X55621000Y-39029500D03*
%TD*%
D16*
%TO.C,J3*%
X48768000Y-43180000D03*
D17*
X43688000Y-43180000D03*
%TD*%
D14*
%TO.C,U4*%
X42158000Y-62905500D03*
D15*
X44698000Y-62905500D03*
X47238000Y-62905500D03*
X49778000Y-62905500D03*
X49778000Y-55285500D03*
X47238000Y-55285500D03*
X44698000Y-55285500D03*
X42158000Y-55285500D03*
%TD*%
%TO.C,C1*%
X55621000Y-36068000D03*
X60621000Y-36068000D03*
%TD*%
%TO.C,C4*%
X42164000Y-52324000D03*
X47164000Y-52324000D03*
%TD*%
M02*
